G04 #@! TF.GenerationSoftware,KiCad,Pcbnew,(5.1.5)-3*
G04 #@! TF.CreationDate,2021-02-19T06:08:39+08:00*
G04 #@! TF.ProjectId,SMD810x_breakout,534d4438-3130-4785-9f62-7265616b6f75,rev?*
G04 #@! TF.SameCoordinates,Original*
G04 #@! TF.FileFunction,Paste,Top*
G04 #@! TF.FilePolarity,Positive*
%FSLAX46Y46*%
G04 Gerber Fmt 4.6, Leading zero omitted, Abs format (unit mm)*
G04 Created by KiCad (PCBNEW (5.1.5)-3) date 2021-02-19 06:08:39*
%MOMM*%
%LPD*%
G04 APERTURE LIST*
%ADD10C,0.100000*%
%ADD11R,1.300000X2.000000*%
%ADD12R,1.400000X1.000000*%
%ADD13R,1.000000X1.400000*%
%ADD14R,0.800000X0.900000*%
%ADD15R,1.270000X0.500000*%
%ADD16R,1.000000X1.000000*%
%ADD17R,1.000000X0.500000*%
%ADD18R,0.500000X1.000000*%
G04 APERTURE END LIST*
D10*
G36*
X108876091Y-93709253D02*
G01*
X108897326Y-93712403D01*
X108918150Y-93717619D01*
X108938362Y-93724851D01*
X108957768Y-93734030D01*
X108976181Y-93745066D01*
X108993424Y-93757854D01*
X109009330Y-93772270D01*
X109023746Y-93788176D01*
X109036534Y-93805419D01*
X109047570Y-93823832D01*
X109056749Y-93843238D01*
X109063981Y-93863450D01*
X109069197Y-93884274D01*
X109072347Y-93905509D01*
X109073400Y-93926950D01*
X109073400Y-94439450D01*
X109072347Y-94460891D01*
X109069197Y-94482126D01*
X109063981Y-94502950D01*
X109056749Y-94523162D01*
X109047570Y-94542568D01*
X109036534Y-94560981D01*
X109023746Y-94578224D01*
X109009330Y-94594130D01*
X108993424Y-94608546D01*
X108976181Y-94621334D01*
X108957768Y-94632370D01*
X108938362Y-94641549D01*
X108918150Y-94648781D01*
X108897326Y-94653997D01*
X108876091Y-94657147D01*
X108854650Y-94658200D01*
X108417150Y-94658200D01*
X108395709Y-94657147D01*
X108374474Y-94653997D01*
X108353650Y-94648781D01*
X108333438Y-94641549D01*
X108314032Y-94632370D01*
X108295619Y-94621334D01*
X108278376Y-94608546D01*
X108262470Y-94594130D01*
X108248054Y-94578224D01*
X108235266Y-94560981D01*
X108224230Y-94542568D01*
X108215051Y-94523162D01*
X108207819Y-94502950D01*
X108202603Y-94482126D01*
X108199453Y-94460891D01*
X108198400Y-94439450D01*
X108198400Y-93926950D01*
X108199453Y-93905509D01*
X108202603Y-93884274D01*
X108207819Y-93863450D01*
X108215051Y-93843238D01*
X108224230Y-93823832D01*
X108235266Y-93805419D01*
X108248054Y-93788176D01*
X108262470Y-93772270D01*
X108278376Y-93757854D01*
X108295619Y-93745066D01*
X108314032Y-93734030D01*
X108333438Y-93724851D01*
X108353650Y-93717619D01*
X108374474Y-93712403D01*
X108395709Y-93709253D01*
X108417150Y-93708200D01*
X108854650Y-93708200D01*
X108876091Y-93709253D01*
G37*
G36*
X107301091Y-93709253D02*
G01*
X107322326Y-93712403D01*
X107343150Y-93717619D01*
X107363362Y-93724851D01*
X107382768Y-93734030D01*
X107401181Y-93745066D01*
X107418424Y-93757854D01*
X107434330Y-93772270D01*
X107448746Y-93788176D01*
X107461534Y-93805419D01*
X107472570Y-93823832D01*
X107481749Y-93843238D01*
X107488981Y-93863450D01*
X107494197Y-93884274D01*
X107497347Y-93905509D01*
X107498400Y-93926950D01*
X107498400Y-94439450D01*
X107497347Y-94460891D01*
X107494197Y-94482126D01*
X107488981Y-94502950D01*
X107481749Y-94523162D01*
X107472570Y-94542568D01*
X107461534Y-94560981D01*
X107448746Y-94578224D01*
X107434330Y-94594130D01*
X107418424Y-94608546D01*
X107401181Y-94621334D01*
X107382768Y-94632370D01*
X107363362Y-94641549D01*
X107343150Y-94648781D01*
X107322326Y-94653997D01*
X107301091Y-94657147D01*
X107279650Y-94658200D01*
X106842150Y-94658200D01*
X106820709Y-94657147D01*
X106799474Y-94653997D01*
X106778650Y-94648781D01*
X106758438Y-94641549D01*
X106739032Y-94632370D01*
X106720619Y-94621334D01*
X106703376Y-94608546D01*
X106687470Y-94594130D01*
X106673054Y-94578224D01*
X106660266Y-94560981D01*
X106649230Y-94542568D01*
X106640051Y-94523162D01*
X106632819Y-94502950D01*
X106627603Y-94482126D01*
X106624453Y-94460891D01*
X106623400Y-94439450D01*
X106623400Y-93926950D01*
X106624453Y-93905509D01*
X106627603Y-93884274D01*
X106632819Y-93863450D01*
X106640051Y-93843238D01*
X106649230Y-93823832D01*
X106660266Y-93805419D01*
X106673054Y-93788176D01*
X106687470Y-93772270D01*
X106703376Y-93757854D01*
X106720619Y-93745066D01*
X106739032Y-93734030D01*
X106758438Y-93724851D01*
X106778650Y-93717619D01*
X106799474Y-93712403D01*
X106820709Y-93709253D01*
X106842150Y-93708200D01*
X107279650Y-93708200D01*
X107301091Y-93709253D01*
G37*
G36*
X107642691Y-87346053D02*
G01*
X107663926Y-87349203D01*
X107684750Y-87354419D01*
X107704962Y-87361651D01*
X107724368Y-87370830D01*
X107742781Y-87381866D01*
X107760024Y-87394654D01*
X107775930Y-87409070D01*
X107790346Y-87424976D01*
X107803134Y-87442219D01*
X107814170Y-87460632D01*
X107823349Y-87480038D01*
X107830581Y-87500250D01*
X107835797Y-87521074D01*
X107838947Y-87542309D01*
X107840000Y-87563750D01*
X107840000Y-88076250D01*
X107838947Y-88097691D01*
X107835797Y-88118926D01*
X107830581Y-88139750D01*
X107823349Y-88159962D01*
X107814170Y-88179368D01*
X107803134Y-88197781D01*
X107790346Y-88215024D01*
X107775930Y-88230930D01*
X107760024Y-88245346D01*
X107742781Y-88258134D01*
X107724368Y-88269170D01*
X107704962Y-88278349D01*
X107684750Y-88285581D01*
X107663926Y-88290797D01*
X107642691Y-88293947D01*
X107621250Y-88295000D01*
X107183750Y-88295000D01*
X107162309Y-88293947D01*
X107141074Y-88290797D01*
X107120250Y-88285581D01*
X107100038Y-88278349D01*
X107080632Y-88269170D01*
X107062219Y-88258134D01*
X107044976Y-88245346D01*
X107029070Y-88230930D01*
X107014654Y-88215024D01*
X107001866Y-88197781D01*
X106990830Y-88179368D01*
X106981651Y-88159962D01*
X106974419Y-88139750D01*
X106969203Y-88118926D01*
X106966053Y-88097691D01*
X106965000Y-88076250D01*
X106965000Y-87563750D01*
X106966053Y-87542309D01*
X106969203Y-87521074D01*
X106974419Y-87500250D01*
X106981651Y-87480038D01*
X106990830Y-87460632D01*
X107001866Y-87442219D01*
X107014654Y-87424976D01*
X107029070Y-87409070D01*
X107044976Y-87394654D01*
X107062219Y-87381866D01*
X107080632Y-87370830D01*
X107100038Y-87361651D01*
X107120250Y-87354419D01*
X107141074Y-87349203D01*
X107162309Y-87346053D01*
X107183750Y-87345000D01*
X107621250Y-87345000D01*
X107642691Y-87346053D01*
G37*
G36*
X109217691Y-87346053D02*
G01*
X109238926Y-87349203D01*
X109259750Y-87354419D01*
X109279962Y-87361651D01*
X109299368Y-87370830D01*
X109317781Y-87381866D01*
X109335024Y-87394654D01*
X109350930Y-87409070D01*
X109365346Y-87424976D01*
X109378134Y-87442219D01*
X109389170Y-87460632D01*
X109398349Y-87480038D01*
X109405581Y-87500250D01*
X109410797Y-87521074D01*
X109413947Y-87542309D01*
X109415000Y-87563750D01*
X109415000Y-88076250D01*
X109413947Y-88097691D01*
X109410797Y-88118926D01*
X109405581Y-88139750D01*
X109398349Y-88159962D01*
X109389170Y-88179368D01*
X109378134Y-88197781D01*
X109365346Y-88215024D01*
X109350930Y-88230930D01*
X109335024Y-88245346D01*
X109317781Y-88258134D01*
X109299368Y-88269170D01*
X109279962Y-88278349D01*
X109259750Y-88285581D01*
X109238926Y-88290797D01*
X109217691Y-88293947D01*
X109196250Y-88295000D01*
X108758750Y-88295000D01*
X108737309Y-88293947D01*
X108716074Y-88290797D01*
X108695250Y-88285581D01*
X108675038Y-88278349D01*
X108655632Y-88269170D01*
X108637219Y-88258134D01*
X108619976Y-88245346D01*
X108604070Y-88230930D01*
X108589654Y-88215024D01*
X108576866Y-88197781D01*
X108565830Y-88179368D01*
X108556651Y-88159962D01*
X108549419Y-88139750D01*
X108544203Y-88118926D01*
X108541053Y-88097691D01*
X108540000Y-88076250D01*
X108540000Y-87563750D01*
X108541053Y-87542309D01*
X108544203Y-87521074D01*
X108549419Y-87500250D01*
X108556651Y-87480038D01*
X108565830Y-87460632D01*
X108576866Y-87442219D01*
X108589654Y-87424976D01*
X108604070Y-87409070D01*
X108619976Y-87394654D01*
X108637219Y-87381866D01*
X108655632Y-87370830D01*
X108675038Y-87361651D01*
X108695250Y-87354419D01*
X108716074Y-87349203D01*
X108737309Y-87346053D01*
X108758750Y-87345000D01*
X109196250Y-87345000D01*
X109217691Y-87346053D01*
G37*
G36*
X108377691Y-66791053D02*
G01*
X108398926Y-66794203D01*
X108419750Y-66799419D01*
X108439962Y-66806651D01*
X108459368Y-66815830D01*
X108477781Y-66826866D01*
X108495024Y-66839654D01*
X108510930Y-66854070D01*
X108525346Y-66869976D01*
X108538134Y-66887219D01*
X108549170Y-66905632D01*
X108558349Y-66925038D01*
X108565581Y-66945250D01*
X108570797Y-66966074D01*
X108573947Y-66987309D01*
X108575000Y-67008750D01*
X108575000Y-67446250D01*
X108573947Y-67467691D01*
X108570797Y-67488926D01*
X108565581Y-67509750D01*
X108558349Y-67529962D01*
X108549170Y-67549368D01*
X108538134Y-67567781D01*
X108525346Y-67585024D01*
X108510930Y-67600930D01*
X108495024Y-67615346D01*
X108477781Y-67628134D01*
X108459368Y-67639170D01*
X108439962Y-67648349D01*
X108419750Y-67655581D01*
X108398926Y-67660797D01*
X108377691Y-67663947D01*
X108356250Y-67665000D01*
X107843750Y-67665000D01*
X107822309Y-67663947D01*
X107801074Y-67660797D01*
X107780250Y-67655581D01*
X107760038Y-67648349D01*
X107740632Y-67639170D01*
X107722219Y-67628134D01*
X107704976Y-67615346D01*
X107689070Y-67600930D01*
X107674654Y-67585024D01*
X107661866Y-67567781D01*
X107650830Y-67549368D01*
X107641651Y-67529962D01*
X107634419Y-67509750D01*
X107629203Y-67488926D01*
X107626053Y-67467691D01*
X107625000Y-67446250D01*
X107625000Y-67008750D01*
X107626053Y-66987309D01*
X107629203Y-66966074D01*
X107634419Y-66945250D01*
X107641651Y-66925038D01*
X107650830Y-66905632D01*
X107661866Y-66887219D01*
X107674654Y-66869976D01*
X107689070Y-66854070D01*
X107704976Y-66839654D01*
X107722219Y-66826866D01*
X107740632Y-66815830D01*
X107760038Y-66806651D01*
X107780250Y-66799419D01*
X107801074Y-66794203D01*
X107822309Y-66791053D01*
X107843750Y-66790000D01*
X108356250Y-66790000D01*
X108377691Y-66791053D01*
G37*
G36*
X108377691Y-65216053D02*
G01*
X108398926Y-65219203D01*
X108419750Y-65224419D01*
X108439962Y-65231651D01*
X108459368Y-65240830D01*
X108477781Y-65251866D01*
X108495024Y-65264654D01*
X108510930Y-65279070D01*
X108525346Y-65294976D01*
X108538134Y-65312219D01*
X108549170Y-65330632D01*
X108558349Y-65350038D01*
X108565581Y-65370250D01*
X108570797Y-65391074D01*
X108573947Y-65412309D01*
X108575000Y-65433750D01*
X108575000Y-65871250D01*
X108573947Y-65892691D01*
X108570797Y-65913926D01*
X108565581Y-65934750D01*
X108558349Y-65954962D01*
X108549170Y-65974368D01*
X108538134Y-65992781D01*
X108525346Y-66010024D01*
X108510930Y-66025930D01*
X108495024Y-66040346D01*
X108477781Y-66053134D01*
X108459368Y-66064170D01*
X108439962Y-66073349D01*
X108419750Y-66080581D01*
X108398926Y-66085797D01*
X108377691Y-66088947D01*
X108356250Y-66090000D01*
X107843750Y-66090000D01*
X107822309Y-66088947D01*
X107801074Y-66085797D01*
X107780250Y-66080581D01*
X107760038Y-66073349D01*
X107740632Y-66064170D01*
X107722219Y-66053134D01*
X107704976Y-66040346D01*
X107689070Y-66025930D01*
X107674654Y-66010024D01*
X107661866Y-65992781D01*
X107650830Y-65974368D01*
X107641651Y-65954962D01*
X107634419Y-65934750D01*
X107629203Y-65913926D01*
X107626053Y-65892691D01*
X107625000Y-65871250D01*
X107625000Y-65433750D01*
X107626053Y-65412309D01*
X107629203Y-65391074D01*
X107634419Y-65370250D01*
X107641651Y-65350038D01*
X107650830Y-65330632D01*
X107661866Y-65312219D01*
X107674654Y-65294976D01*
X107689070Y-65279070D01*
X107704976Y-65264654D01*
X107722219Y-65251866D01*
X107740632Y-65240830D01*
X107760038Y-65231651D01*
X107780250Y-65224419D01*
X107801074Y-65219203D01*
X107822309Y-65216053D01*
X107843750Y-65215000D01*
X108356250Y-65215000D01*
X108377691Y-65216053D01*
G37*
D11*
X138180000Y-92590000D03*
X142280000Y-92590000D03*
D12*
X121295000Y-68804200D03*
X121295000Y-67534200D03*
X121295000Y-66264200D03*
D13*
X118628000Y-79773000D03*
X117358000Y-79773000D03*
X116088000Y-79773000D03*
X114818000Y-79773000D03*
X113548000Y-79773000D03*
X112278000Y-79773000D03*
D12*
X110500000Y-78380000D03*
X110500000Y-77110000D03*
X110500000Y-75840000D03*
X110500000Y-74570000D03*
X110500000Y-73300000D03*
X110500000Y-72030000D03*
X110500000Y-70760000D03*
X110500000Y-69490000D03*
X110500000Y-68220000D03*
X110500000Y-66950000D03*
X110500000Y-65680000D03*
D14*
X117160000Y-92100000D03*
X119060000Y-92100000D03*
X118110000Y-90100000D03*
D10*
G36*
X158197691Y-76476053D02*
G01*
X158218926Y-76479203D01*
X158239750Y-76484419D01*
X158259962Y-76491651D01*
X158279368Y-76500830D01*
X158297781Y-76511866D01*
X158315024Y-76524654D01*
X158330930Y-76539070D01*
X158345346Y-76554976D01*
X158358134Y-76572219D01*
X158369170Y-76590632D01*
X158378349Y-76610038D01*
X158385581Y-76630250D01*
X158390797Y-76651074D01*
X158393947Y-76672309D01*
X158395000Y-76693750D01*
X158395000Y-77131250D01*
X158393947Y-77152691D01*
X158390797Y-77173926D01*
X158385581Y-77194750D01*
X158378349Y-77214962D01*
X158369170Y-77234368D01*
X158358134Y-77252781D01*
X158345346Y-77270024D01*
X158330930Y-77285930D01*
X158315024Y-77300346D01*
X158297781Y-77313134D01*
X158279368Y-77324170D01*
X158259962Y-77333349D01*
X158239750Y-77340581D01*
X158218926Y-77345797D01*
X158197691Y-77348947D01*
X158176250Y-77350000D01*
X157663750Y-77350000D01*
X157642309Y-77348947D01*
X157621074Y-77345797D01*
X157600250Y-77340581D01*
X157580038Y-77333349D01*
X157560632Y-77324170D01*
X157542219Y-77313134D01*
X157524976Y-77300346D01*
X157509070Y-77285930D01*
X157494654Y-77270024D01*
X157481866Y-77252781D01*
X157470830Y-77234368D01*
X157461651Y-77214962D01*
X157454419Y-77194750D01*
X157449203Y-77173926D01*
X157446053Y-77152691D01*
X157445000Y-77131250D01*
X157445000Y-76693750D01*
X157446053Y-76672309D01*
X157449203Y-76651074D01*
X157454419Y-76630250D01*
X157461651Y-76610038D01*
X157470830Y-76590632D01*
X157481866Y-76572219D01*
X157494654Y-76554976D01*
X157509070Y-76539070D01*
X157524976Y-76524654D01*
X157542219Y-76511866D01*
X157560632Y-76500830D01*
X157580038Y-76491651D01*
X157600250Y-76484419D01*
X157621074Y-76479203D01*
X157642309Y-76476053D01*
X157663750Y-76475000D01*
X158176250Y-76475000D01*
X158197691Y-76476053D01*
G37*
G36*
X158197691Y-78051053D02*
G01*
X158218926Y-78054203D01*
X158239750Y-78059419D01*
X158259962Y-78066651D01*
X158279368Y-78075830D01*
X158297781Y-78086866D01*
X158315024Y-78099654D01*
X158330930Y-78114070D01*
X158345346Y-78129976D01*
X158358134Y-78147219D01*
X158369170Y-78165632D01*
X158378349Y-78185038D01*
X158385581Y-78205250D01*
X158390797Y-78226074D01*
X158393947Y-78247309D01*
X158395000Y-78268750D01*
X158395000Y-78706250D01*
X158393947Y-78727691D01*
X158390797Y-78748926D01*
X158385581Y-78769750D01*
X158378349Y-78789962D01*
X158369170Y-78809368D01*
X158358134Y-78827781D01*
X158345346Y-78845024D01*
X158330930Y-78860930D01*
X158315024Y-78875346D01*
X158297781Y-78888134D01*
X158279368Y-78899170D01*
X158259962Y-78908349D01*
X158239750Y-78915581D01*
X158218926Y-78920797D01*
X158197691Y-78923947D01*
X158176250Y-78925000D01*
X157663750Y-78925000D01*
X157642309Y-78923947D01*
X157621074Y-78920797D01*
X157600250Y-78915581D01*
X157580038Y-78908349D01*
X157560632Y-78899170D01*
X157542219Y-78888134D01*
X157524976Y-78875346D01*
X157509070Y-78860930D01*
X157494654Y-78845024D01*
X157481866Y-78827781D01*
X157470830Y-78809368D01*
X157461651Y-78789962D01*
X157454419Y-78769750D01*
X157449203Y-78748926D01*
X157446053Y-78727691D01*
X157445000Y-78706250D01*
X157445000Y-78268750D01*
X157446053Y-78247309D01*
X157449203Y-78226074D01*
X157454419Y-78205250D01*
X157461651Y-78185038D01*
X157470830Y-78165632D01*
X157481866Y-78147219D01*
X157494654Y-78129976D01*
X157509070Y-78114070D01*
X157524976Y-78099654D01*
X157542219Y-78086866D01*
X157560632Y-78075830D01*
X157580038Y-78066651D01*
X157600250Y-78059419D01*
X157621074Y-78054203D01*
X157642309Y-78051053D01*
X157663750Y-78050000D01*
X158176250Y-78050000D01*
X158197691Y-78051053D01*
G37*
G36*
X161612691Y-81946053D02*
G01*
X161633926Y-81949203D01*
X161654750Y-81954419D01*
X161674962Y-81961651D01*
X161694368Y-81970830D01*
X161712781Y-81981866D01*
X161730024Y-81994654D01*
X161745930Y-82009070D01*
X161760346Y-82024976D01*
X161773134Y-82042219D01*
X161784170Y-82060632D01*
X161793349Y-82080038D01*
X161800581Y-82100250D01*
X161805797Y-82121074D01*
X161808947Y-82142309D01*
X161810000Y-82163750D01*
X161810000Y-82676250D01*
X161808947Y-82697691D01*
X161805797Y-82718926D01*
X161800581Y-82739750D01*
X161793349Y-82759962D01*
X161784170Y-82779368D01*
X161773134Y-82797781D01*
X161760346Y-82815024D01*
X161745930Y-82830930D01*
X161730024Y-82845346D01*
X161712781Y-82858134D01*
X161694368Y-82869170D01*
X161674962Y-82878349D01*
X161654750Y-82885581D01*
X161633926Y-82890797D01*
X161612691Y-82893947D01*
X161591250Y-82895000D01*
X161153750Y-82895000D01*
X161132309Y-82893947D01*
X161111074Y-82890797D01*
X161090250Y-82885581D01*
X161070038Y-82878349D01*
X161050632Y-82869170D01*
X161032219Y-82858134D01*
X161014976Y-82845346D01*
X160999070Y-82830930D01*
X160984654Y-82815024D01*
X160971866Y-82797781D01*
X160960830Y-82779368D01*
X160951651Y-82759962D01*
X160944419Y-82739750D01*
X160939203Y-82718926D01*
X160936053Y-82697691D01*
X160935000Y-82676250D01*
X160935000Y-82163750D01*
X160936053Y-82142309D01*
X160939203Y-82121074D01*
X160944419Y-82100250D01*
X160951651Y-82080038D01*
X160960830Y-82060632D01*
X160971866Y-82042219D01*
X160984654Y-82024976D01*
X160999070Y-82009070D01*
X161014976Y-81994654D01*
X161032219Y-81981866D01*
X161050632Y-81970830D01*
X161070038Y-81961651D01*
X161090250Y-81954419D01*
X161111074Y-81949203D01*
X161132309Y-81946053D01*
X161153750Y-81945000D01*
X161591250Y-81945000D01*
X161612691Y-81946053D01*
G37*
G36*
X163187691Y-81946053D02*
G01*
X163208926Y-81949203D01*
X163229750Y-81954419D01*
X163249962Y-81961651D01*
X163269368Y-81970830D01*
X163287781Y-81981866D01*
X163305024Y-81994654D01*
X163320930Y-82009070D01*
X163335346Y-82024976D01*
X163348134Y-82042219D01*
X163359170Y-82060632D01*
X163368349Y-82080038D01*
X163375581Y-82100250D01*
X163380797Y-82121074D01*
X163383947Y-82142309D01*
X163385000Y-82163750D01*
X163385000Y-82676250D01*
X163383947Y-82697691D01*
X163380797Y-82718926D01*
X163375581Y-82739750D01*
X163368349Y-82759962D01*
X163359170Y-82779368D01*
X163348134Y-82797781D01*
X163335346Y-82815024D01*
X163320930Y-82830930D01*
X163305024Y-82845346D01*
X163287781Y-82858134D01*
X163269368Y-82869170D01*
X163249962Y-82878349D01*
X163229750Y-82885581D01*
X163208926Y-82890797D01*
X163187691Y-82893947D01*
X163166250Y-82895000D01*
X162728750Y-82895000D01*
X162707309Y-82893947D01*
X162686074Y-82890797D01*
X162665250Y-82885581D01*
X162645038Y-82878349D01*
X162625632Y-82869170D01*
X162607219Y-82858134D01*
X162589976Y-82845346D01*
X162574070Y-82830930D01*
X162559654Y-82815024D01*
X162546866Y-82797781D01*
X162535830Y-82779368D01*
X162526651Y-82759962D01*
X162519419Y-82739750D01*
X162514203Y-82718926D01*
X162511053Y-82697691D01*
X162510000Y-82676250D01*
X162510000Y-82163750D01*
X162511053Y-82142309D01*
X162514203Y-82121074D01*
X162519419Y-82100250D01*
X162526651Y-82080038D01*
X162535830Y-82060632D01*
X162546866Y-82042219D01*
X162559654Y-82024976D01*
X162574070Y-82009070D01*
X162589976Y-81994654D01*
X162607219Y-81981866D01*
X162625632Y-81970830D01*
X162645038Y-81961651D01*
X162665250Y-81954419D01*
X162686074Y-81949203D01*
X162707309Y-81946053D01*
X162728750Y-81945000D01*
X163166250Y-81945000D01*
X163187691Y-81946053D01*
G37*
G36*
X145957691Y-69651053D02*
G01*
X145978926Y-69654203D01*
X145999750Y-69659419D01*
X146019962Y-69666651D01*
X146039368Y-69675830D01*
X146057781Y-69686866D01*
X146075024Y-69699654D01*
X146090930Y-69714070D01*
X146105346Y-69729976D01*
X146118134Y-69747219D01*
X146129170Y-69765632D01*
X146138349Y-69785038D01*
X146145581Y-69805250D01*
X146150797Y-69826074D01*
X146153947Y-69847309D01*
X146155000Y-69868750D01*
X146155000Y-70306250D01*
X146153947Y-70327691D01*
X146150797Y-70348926D01*
X146145581Y-70369750D01*
X146138349Y-70389962D01*
X146129170Y-70409368D01*
X146118134Y-70427781D01*
X146105346Y-70445024D01*
X146090930Y-70460930D01*
X146075024Y-70475346D01*
X146057781Y-70488134D01*
X146039368Y-70499170D01*
X146019962Y-70508349D01*
X145999750Y-70515581D01*
X145978926Y-70520797D01*
X145957691Y-70523947D01*
X145936250Y-70525000D01*
X145423750Y-70525000D01*
X145402309Y-70523947D01*
X145381074Y-70520797D01*
X145360250Y-70515581D01*
X145340038Y-70508349D01*
X145320632Y-70499170D01*
X145302219Y-70488134D01*
X145284976Y-70475346D01*
X145269070Y-70460930D01*
X145254654Y-70445024D01*
X145241866Y-70427781D01*
X145230830Y-70409368D01*
X145221651Y-70389962D01*
X145214419Y-70369750D01*
X145209203Y-70348926D01*
X145206053Y-70327691D01*
X145205000Y-70306250D01*
X145205000Y-69868750D01*
X145206053Y-69847309D01*
X145209203Y-69826074D01*
X145214419Y-69805250D01*
X145221651Y-69785038D01*
X145230830Y-69765632D01*
X145241866Y-69747219D01*
X145254654Y-69729976D01*
X145269070Y-69714070D01*
X145284976Y-69699654D01*
X145302219Y-69686866D01*
X145320632Y-69675830D01*
X145340038Y-69666651D01*
X145360250Y-69659419D01*
X145381074Y-69654203D01*
X145402309Y-69651053D01*
X145423750Y-69650000D01*
X145936250Y-69650000D01*
X145957691Y-69651053D01*
G37*
G36*
X145957691Y-68076053D02*
G01*
X145978926Y-68079203D01*
X145999750Y-68084419D01*
X146019962Y-68091651D01*
X146039368Y-68100830D01*
X146057781Y-68111866D01*
X146075024Y-68124654D01*
X146090930Y-68139070D01*
X146105346Y-68154976D01*
X146118134Y-68172219D01*
X146129170Y-68190632D01*
X146138349Y-68210038D01*
X146145581Y-68230250D01*
X146150797Y-68251074D01*
X146153947Y-68272309D01*
X146155000Y-68293750D01*
X146155000Y-68731250D01*
X146153947Y-68752691D01*
X146150797Y-68773926D01*
X146145581Y-68794750D01*
X146138349Y-68814962D01*
X146129170Y-68834368D01*
X146118134Y-68852781D01*
X146105346Y-68870024D01*
X146090930Y-68885930D01*
X146075024Y-68900346D01*
X146057781Y-68913134D01*
X146039368Y-68924170D01*
X146019962Y-68933349D01*
X145999750Y-68940581D01*
X145978926Y-68945797D01*
X145957691Y-68948947D01*
X145936250Y-68950000D01*
X145423750Y-68950000D01*
X145402309Y-68948947D01*
X145381074Y-68945797D01*
X145360250Y-68940581D01*
X145340038Y-68933349D01*
X145320632Y-68924170D01*
X145302219Y-68913134D01*
X145284976Y-68900346D01*
X145269070Y-68885930D01*
X145254654Y-68870024D01*
X145241866Y-68852781D01*
X145230830Y-68834368D01*
X145221651Y-68814962D01*
X145214419Y-68794750D01*
X145209203Y-68773926D01*
X145206053Y-68752691D01*
X145205000Y-68731250D01*
X145205000Y-68293750D01*
X145206053Y-68272309D01*
X145209203Y-68251074D01*
X145214419Y-68230250D01*
X145221651Y-68210038D01*
X145230830Y-68190632D01*
X145241866Y-68172219D01*
X145254654Y-68154976D01*
X145269070Y-68139070D01*
X145284976Y-68124654D01*
X145302219Y-68111866D01*
X145320632Y-68100830D01*
X145340038Y-68091651D01*
X145360250Y-68084419D01*
X145381074Y-68079203D01*
X145402309Y-68076053D01*
X145423750Y-68075000D01*
X145936250Y-68075000D01*
X145957691Y-68076053D01*
G37*
G36*
X157207691Y-83876053D02*
G01*
X157228926Y-83879203D01*
X157249750Y-83884419D01*
X157269962Y-83891651D01*
X157289368Y-83900830D01*
X157307781Y-83911866D01*
X157325024Y-83924654D01*
X157340930Y-83939070D01*
X157355346Y-83954976D01*
X157368134Y-83972219D01*
X157379170Y-83990632D01*
X157388349Y-84010038D01*
X157395581Y-84030250D01*
X157400797Y-84051074D01*
X157403947Y-84072309D01*
X157405000Y-84093750D01*
X157405000Y-84606250D01*
X157403947Y-84627691D01*
X157400797Y-84648926D01*
X157395581Y-84669750D01*
X157388349Y-84689962D01*
X157379170Y-84709368D01*
X157368134Y-84727781D01*
X157355346Y-84745024D01*
X157340930Y-84760930D01*
X157325024Y-84775346D01*
X157307781Y-84788134D01*
X157289368Y-84799170D01*
X157269962Y-84808349D01*
X157249750Y-84815581D01*
X157228926Y-84820797D01*
X157207691Y-84823947D01*
X157186250Y-84825000D01*
X156748750Y-84825000D01*
X156727309Y-84823947D01*
X156706074Y-84820797D01*
X156685250Y-84815581D01*
X156665038Y-84808349D01*
X156645632Y-84799170D01*
X156627219Y-84788134D01*
X156609976Y-84775346D01*
X156594070Y-84760930D01*
X156579654Y-84745024D01*
X156566866Y-84727781D01*
X156555830Y-84709368D01*
X156546651Y-84689962D01*
X156539419Y-84669750D01*
X156534203Y-84648926D01*
X156531053Y-84627691D01*
X156530000Y-84606250D01*
X156530000Y-84093750D01*
X156531053Y-84072309D01*
X156534203Y-84051074D01*
X156539419Y-84030250D01*
X156546651Y-84010038D01*
X156555830Y-83990632D01*
X156566866Y-83972219D01*
X156579654Y-83954976D01*
X156594070Y-83939070D01*
X156609976Y-83924654D01*
X156627219Y-83911866D01*
X156645632Y-83900830D01*
X156665038Y-83891651D01*
X156685250Y-83884419D01*
X156706074Y-83879203D01*
X156727309Y-83876053D01*
X156748750Y-83875000D01*
X157186250Y-83875000D01*
X157207691Y-83876053D01*
G37*
G36*
X155632691Y-83876053D02*
G01*
X155653926Y-83879203D01*
X155674750Y-83884419D01*
X155694962Y-83891651D01*
X155714368Y-83900830D01*
X155732781Y-83911866D01*
X155750024Y-83924654D01*
X155765930Y-83939070D01*
X155780346Y-83954976D01*
X155793134Y-83972219D01*
X155804170Y-83990632D01*
X155813349Y-84010038D01*
X155820581Y-84030250D01*
X155825797Y-84051074D01*
X155828947Y-84072309D01*
X155830000Y-84093750D01*
X155830000Y-84606250D01*
X155828947Y-84627691D01*
X155825797Y-84648926D01*
X155820581Y-84669750D01*
X155813349Y-84689962D01*
X155804170Y-84709368D01*
X155793134Y-84727781D01*
X155780346Y-84745024D01*
X155765930Y-84760930D01*
X155750024Y-84775346D01*
X155732781Y-84788134D01*
X155714368Y-84799170D01*
X155694962Y-84808349D01*
X155674750Y-84815581D01*
X155653926Y-84820797D01*
X155632691Y-84823947D01*
X155611250Y-84825000D01*
X155173750Y-84825000D01*
X155152309Y-84823947D01*
X155131074Y-84820797D01*
X155110250Y-84815581D01*
X155090038Y-84808349D01*
X155070632Y-84799170D01*
X155052219Y-84788134D01*
X155034976Y-84775346D01*
X155019070Y-84760930D01*
X155004654Y-84745024D01*
X154991866Y-84727781D01*
X154980830Y-84709368D01*
X154971651Y-84689962D01*
X154964419Y-84669750D01*
X154959203Y-84648926D01*
X154956053Y-84627691D01*
X154955000Y-84606250D01*
X154955000Y-84093750D01*
X154956053Y-84072309D01*
X154959203Y-84051074D01*
X154964419Y-84030250D01*
X154971651Y-84010038D01*
X154980830Y-83990632D01*
X154991866Y-83972219D01*
X155004654Y-83954976D01*
X155019070Y-83939070D01*
X155034976Y-83924654D01*
X155052219Y-83911866D01*
X155070632Y-83900830D01*
X155090038Y-83891651D01*
X155110250Y-83884419D01*
X155131074Y-83879203D01*
X155152309Y-83876053D01*
X155173750Y-83875000D01*
X155611250Y-83875000D01*
X155632691Y-83876053D01*
G37*
G36*
X160397691Y-83826053D02*
G01*
X160418926Y-83829203D01*
X160439750Y-83834419D01*
X160459962Y-83841651D01*
X160479368Y-83850830D01*
X160497781Y-83861866D01*
X160515024Y-83874654D01*
X160530930Y-83889070D01*
X160545346Y-83904976D01*
X160558134Y-83922219D01*
X160569170Y-83940632D01*
X160578349Y-83960038D01*
X160585581Y-83980250D01*
X160590797Y-84001074D01*
X160593947Y-84022309D01*
X160595000Y-84043750D01*
X160595000Y-84556250D01*
X160593947Y-84577691D01*
X160590797Y-84598926D01*
X160585581Y-84619750D01*
X160578349Y-84639962D01*
X160569170Y-84659368D01*
X160558134Y-84677781D01*
X160545346Y-84695024D01*
X160530930Y-84710930D01*
X160515024Y-84725346D01*
X160497781Y-84738134D01*
X160479368Y-84749170D01*
X160459962Y-84758349D01*
X160439750Y-84765581D01*
X160418926Y-84770797D01*
X160397691Y-84773947D01*
X160376250Y-84775000D01*
X159938750Y-84775000D01*
X159917309Y-84773947D01*
X159896074Y-84770797D01*
X159875250Y-84765581D01*
X159855038Y-84758349D01*
X159835632Y-84749170D01*
X159817219Y-84738134D01*
X159799976Y-84725346D01*
X159784070Y-84710930D01*
X159769654Y-84695024D01*
X159756866Y-84677781D01*
X159745830Y-84659368D01*
X159736651Y-84639962D01*
X159729419Y-84619750D01*
X159724203Y-84598926D01*
X159721053Y-84577691D01*
X159720000Y-84556250D01*
X159720000Y-84043750D01*
X159721053Y-84022309D01*
X159724203Y-84001074D01*
X159729419Y-83980250D01*
X159736651Y-83960038D01*
X159745830Y-83940632D01*
X159756866Y-83922219D01*
X159769654Y-83904976D01*
X159784070Y-83889070D01*
X159799976Y-83874654D01*
X159817219Y-83861866D01*
X159835632Y-83850830D01*
X159855038Y-83841651D01*
X159875250Y-83834419D01*
X159896074Y-83829203D01*
X159917309Y-83826053D01*
X159938750Y-83825000D01*
X160376250Y-83825000D01*
X160397691Y-83826053D01*
G37*
G36*
X158822691Y-83826053D02*
G01*
X158843926Y-83829203D01*
X158864750Y-83834419D01*
X158884962Y-83841651D01*
X158904368Y-83850830D01*
X158922781Y-83861866D01*
X158940024Y-83874654D01*
X158955930Y-83889070D01*
X158970346Y-83904976D01*
X158983134Y-83922219D01*
X158994170Y-83940632D01*
X159003349Y-83960038D01*
X159010581Y-83980250D01*
X159015797Y-84001074D01*
X159018947Y-84022309D01*
X159020000Y-84043750D01*
X159020000Y-84556250D01*
X159018947Y-84577691D01*
X159015797Y-84598926D01*
X159010581Y-84619750D01*
X159003349Y-84639962D01*
X158994170Y-84659368D01*
X158983134Y-84677781D01*
X158970346Y-84695024D01*
X158955930Y-84710930D01*
X158940024Y-84725346D01*
X158922781Y-84738134D01*
X158904368Y-84749170D01*
X158884962Y-84758349D01*
X158864750Y-84765581D01*
X158843926Y-84770797D01*
X158822691Y-84773947D01*
X158801250Y-84775000D01*
X158363750Y-84775000D01*
X158342309Y-84773947D01*
X158321074Y-84770797D01*
X158300250Y-84765581D01*
X158280038Y-84758349D01*
X158260632Y-84749170D01*
X158242219Y-84738134D01*
X158224976Y-84725346D01*
X158209070Y-84710930D01*
X158194654Y-84695024D01*
X158181866Y-84677781D01*
X158170830Y-84659368D01*
X158161651Y-84639962D01*
X158154419Y-84619750D01*
X158149203Y-84598926D01*
X158146053Y-84577691D01*
X158145000Y-84556250D01*
X158145000Y-84043750D01*
X158146053Y-84022309D01*
X158149203Y-84001074D01*
X158154419Y-83980250D01*
X158161651Y-83960038D01*
X158170830Y-83940632D01*
X158181866Y-83922219D01*
X158194654Y-83904976D01*
X158209070Y-83889070D01*
X158224976Y-83874654D01*
X158242219Y-83861866D01*
X158260632Y-83850830D01*
X158280038Y-83841651D01*
X158300250Y-83834419D01*
X158321074Y-83829203D01*
X158342309Y-83826053D01*
X158363750Y-83825000D01*
X158801250Y-83825000D01*
X158822691Y-83826053D01*
G37*
D15*
X110340000Y-90320000D03*
X110340000Y-91270000D03*
X110340000Y-92220000D03*
X112880000Y-92220000D03*
X112880000Y-90320000D03*
D16*
X126332000Y-77690000D03*
X127602000Y-77690000D03*
X128872000Y-77690000D03*
X130142000Y-77690000D03*
X131412000Y-77690000D03*
X132682000Y-77690000D03*
X133952000Y-77690000D03*
X135222000Y-77690000D03*
X136492000Y-77690000D03*
X137762000Y-77690000D03*
X139032000Y-77690000D03*
X140302000Y-77690000D03*
X141572000Y-77690000D03*
X143850000Y-76547000D03*
X143850000Y-75277000D03*
X143850000Y-74007000D03*
X143850000Y-72737000D03*
X143850000Y-71467000D03*
X143850000Y-70197000D03*
D17*
X160380000Y-77150000D03*
X160380000Y-76450000D03*
X160380000Y-75750000D03*
X160380000Y-75050000D03*
X160380000Y-74350000D03*
X160380000Y-73650000D03*
X160380000Y-72950000D03*
X160380000Y-72250000D03*
X160380000Y-71550000D03*
X160380000Y-67350000D03*
X160380000Y-66650000D03*
D18*
X161180000Y-79650000D03*
X161880000Y-79650000D03*
X162580000Y-79650000D03*
X163280000Y-79650000D03*
X163980000Y-79650000D03*
X164680000Y-79650000D03*
X165380000Y-79650000D03*
X166080000Y-79650000D03*
X166780000Y-79650000D03*
X167480000Y-79650000D03*
X168180000Y-79650000D03*
X168880000Y-79650000D03*
X169580000Y-79650000D03*
X170280000Y-79650000D03*
X170980000Y-79650000D03*
D17*
X171780000Y-77150000D03*
X171780000Y-76450000D03*
X171780000Y-75750000D03*
X171780000Y-75050000D03*
X171780000Y-72250000D03*
X171780000Y-74350000D03*
X171780000Y-73650000D03*
X171780000Y-72950000D03*
X171780000Y-69450000D03*
X171780000Y-71550000D03*
X171780000Y-70850000D03*
X171780000Y-70150000D03*
X171780000Y-66650000D03*
X171780000Y-68750000D03*
X171780000Y-68050000D03*
X171780000Y-67350000D03*
D10*
G36*
X144027691Y-87736053D02*
G01*
X144048926Y-87739203D01*
X144069750Y-87744419D01*
X144089962Y-87751651D01*
X144109368Y-87760830D01*
X144127781Y-87771866D01*
X144145024Y-87784654D01*
X144160930Y-87799070D01*
X144175346Y-87814976D01*
X144188134Y-87832219D01*
X144199170Y-87850632D01*
X144208349Y-87870038D01*
X144215581Y-87890250D01*
X144220797Y-87911074D01*
X144223947Y-87932309D01*
X144225000Y-87953750D01*
X144225000Y-88466250D01*
X144223947Y-88487691D01*
X144220797Y-88508926D01*
X144215581Y-88529750D01*
X144208349Y-88549962D01*
X144199170Y-88569368D01*
X144188134Y-88587781D01*
X144175346Y-88605024D01*
X144160930Y-88620930D01*
X144145024Y-88635346D01*
X144127781Y-88648134D01*
X144109368Y-88659170D01*
X144089962Y-88668349D01*
X144069750Y-88675581D01*
X144048926Y-88680797D01*
X144027691Y-88683947D01*
X144006250Y-88685000D01*
X143568750Y-88685000D01*
X143547309Y-88683947D01*
X143526074Y-88680797D01*
X143505250Y-88675581D01*
X143485038Y-88668349D01*
X143465632Y-88659170D01*
X143447219Y-88648134D01*
X143429976Y-88635346D01*
X143414070Y-88620930D01*
X143399654Y-88605024D01*
X143386866Y-88587781D01*
X143375830Y-88569368D01*
X143366651Y-88549962D01*
X143359419Y-88529750D01*
X143354203Y-88508926D01*
X143351053Y-88487691D01*
X143350000Y-88466250D01*
X143350000Y-87953750D01*
X143351053Y-87932309D01*
X143354203Y-87911074D01*
X143359419Y-87890250D01*
X143366651Y-87870038D01*
X143375830Y-87850632D01*
X143386866Y-87832219D01*
X143399654Y-87814976D01*
X143414070Y-87799070D01*
X143429976Y-87784654D01*
X143447219Y-87771866D01*
X143465632Y-87760830D01*
X143485038Y-87751651D01*
X143505250Y-87744419D01*
X143526074Y-87739203D01*
X143547309Y-87736053D01*
X143568750Y-87735000D01*
X144006250Y-87735000D01*
X144027691Y-87736053D01*
G37*
G36*
X142452691Y-87736053D02*
G01*
X142473926Y-87739203D01*
X142494750Y-87744419D01*
X142514962Y-87751651D01*
X142534368Y-87760830D01*
X142552781Y-87771866D01*
X142570024Y-87784654D01*
X142585930Y-87799070D01*
X142600346Y-87814976D01*
X142613134Y-87832219D01*
X142624170Y-87850632D01*
X142633349Y-87870038D01*
X142640581Y-87890250D01*
X142645797Y-87911074D01*
X142648947Y-87932309D01*
X142650000Y-87953750D01*
X142650000Y-88466250D01*
X142648947Y-88487691D01*
X142645797Y-88508926D01*
X142640581Y-88529750D01*
X142633349Y-88549962D01*
X142624170Y-88569368D01*
X142613134Y-88587781D01*
X142600346Y-88605024D01*
X142585930Y-88620930D01*
X142570024Y-88635346D01*
X142552781Y-88648134D01*
X142534368Y-88659170D01*
X142514962Y-88668349D01*
X142494750Y-88675581D01*
X142473926Y-88680797D01*
X142452691Y-88683947D01*
X142431250Y-88685000D01*
X141993750Y-88685000D01*
X141972309Y-88683947D01*
X141951074Y-88680797D01*
X141930250Y-88675581D01*
X141910038Y-88668349D01*
X141890632Y-88659170D01*
X141872219Y-88648134D01*
X141854976Y-88635346D01*
X141839070Y-88620930D01*
X141824654Y-88605024D01*
X141811866Y-88587781D01*
X141800830Y-88569368D01*
X141791651Y-88549962D01*
X141784419Y-88529750D01*
X141779203Y-88508926D01*
X141776053Y-88487691D01*
X141775000Y-88466250D01*
X141775000Y-87953750D01*
X141776053Y-87932309D01*
X141779203Y-87911074D01*
X141784419Y-87890250D01*
X141791651Y-87870038D01*
X141800830Y-87850632D01*
X141811866Y-87832219D01*
X141824654Y-87814976D01*
X141839070Y-87799070D01*
X141854976Y-87784654D01*
X141872219Y-87771866D01*
X141890632Y-87760830D01*
X141910038Y-87751651D01*
X141930250Y-87744419D01*
X141951074Y-87739203D01*
X141972309Y-87736053D01*
X141993750Y-87735000D01*
X142431250Y-87735000D01*
X142452691Y-87736053D01*
G37*
G36*
X140667691Y-87756053D02*
G01*
X140688926Y-87759203D01*
X140709750Y-87764419D01*
X140729962Y-87771651D01*
X140749368Y-87780830D01*
X140767781Y-87791866D01*
X140785024Y-87804654D01*
X140800930Y-87819070D01*
X140815346Y-87834976D01*
X140828134Y-87852219D01*
X140839170Y-87870632D01*
X140848349Y-87890038D01*
X140855581Y-87910250D01*
X140860797Y-87931074D01*
X140863947Y-87952309D01*
X140865000Y-87973750D01*
X140865000Y-88486250D01*
X140863947Y-88507691D01*
X140860797Y-88528926D01*
X140855581Y-88549750D01*
X140848349Y-88569962D01*
X140839170Y-88589368D01*
X140828134Y-88607781D01*
X140815346Y-88625024D01*
X140800930Y-88640930D01*
X140785024Y-88655346D01*
X140767781Y-88668134D01*
X140749368Y-88679170D01*
X140729962Y-88688349D01*
X140709750Y-88695581D01*
X140688926Y-88700797D01*
X140667691Y-88703947D01*
X140646250Y-88705000D01*
X140208750Y-88705000D01*
X140187309Y-88703947D01*
X140166074Y-88700797D01*
X140145250Y-88695581D01*
X140125038Y-88688349D01*
X140105632Y-88679170D01*
X140087219Y-88668134D01*
X140069976Y-88655346D01*
X140054070Y-88640930D01*
X140039654Y-88625024D01*
X140026866Y-88607781D01*
X140015830Y-88589368D01*
X140006651Y-88569962D01*
X139999419Y-88549750D01*
X139994203Y-88528926D01*
X139991053Y-88507691D01*
X139990000Y-88486250D01*
X139990000Y-87973750D01*
X139991053Y-87952309D01*
X139994203Y-87931074D01*
X139999419Y-87910250D01*
X140006651Y-87890038D01*
X140015830Y-87870632D01*
X140026866Y-87852219D01*
X140039654Y-87834976D01*
X140054070Y-87819070D01*
X140069976Y-87804654D01*
X140087219Y-87791866D01*
X140105632Y-87780830D01*
X140125038Y-87771651D01*
X140145250Y-87764419D01*
X140166074Y-87759203D01*
X140187309Y-87756053D01*
X140208750Y-87755000D01*
X140646250Y-87755000D01*
X140667691Y-87756053D01*
G37*
G36*
X139092691Y-87756053D02*
G01*
X139113926Y-87759203D01*
X139134750Y-87764419D01*
X139154962Y-87771651D01*
X139174368Y-87780830D01*
X139192781Y-87791866D01*
X139210024Y-87804654D01*
X139225930Y-87819070D01*
X139240346Y-87834976D01*
X139253134Y-87852219D01*
X139264170Y-87870632D01*
X139273349Y-87890038D01*
X139280581Y-87910250D01*
X139285797Y-87931074D01*
X139288947Y-87952309D01*
X139290000Y-87973750D01*
X139290000Y-88486250D01*
X139288947Y-88507691D01*
X139285797Y-88528926D01*
X139280581Y-88549750D01*
X139273349Y-88569962D01*
X139264170Y-88589368D01*
X139253134Y-88607781D01*
X139240346Y-88625024D01*
X139225930Y-88640930D01*
X139210024Y-88655346D01*
X139192781Y-88668134D01*
X139174368Y-88679170D01*
X139154962Y-88688349D01*
X139134750Y-88695581D01*
X139113926Y-88700797D01*
X139092691Y-88703947D01*
X139071250Y-88705000D01*
X138633750Y-88705000D01*
X138612309Y-88703947D01*
X138591074Y-88700797D01*
X138570250Y-88695581D01*
X138550038Y-88688349D01*
X138530632Y-88679170D01*
X138512219Y-88668134D01*
X138494976Y-88655346D01*
X138479070Y-88640930D01*
X138464654Y-88625024D01*
X138451866Y-88607781D01*
X138440830Y-88589368D01*
X138431651Y-88569962D01*
X138424419Y-88549750D01*
X138419203Y-88528926D01*
X138416053Y-88507691D01*
X138415000Y-88486250D01*
X138415000Y-87973750D01*
X138416053Y-87952309D01*
X138419203Y-87931074D01*
X138424419Y-87910250D01*
X138431651Y-87890038D01*
X138440830Y-87870632D01*
X138451866Y-87852219D01*
X138464654Y-87834976D01*
X138479070Y-87819070D01*
X138494976Y-87804654D01*
X138512219Y-87791866D01*
X138530632Y-87780830D01*
X138550038Y-87771651D01*
X138570250Y-87764419D01*
X138591074Y-87759203D01*
X138612309Y-87756053D01*
X138633750Y-87755000D01*
X139071250Y-87755000D01*
X139092691Y-87756053D01*
G37*
G36*
X144047691Y-89466053D02*
G01*
X144068926Y-89469203D01*
X144089750Y-89474419D01*
X144109962Y-89481651D01*
X144129368Y-89490830D01*
X144147781Y-89501866D01*
X144165024Y-89514654D01*
X144180930Y-89529070D01*
X144195346Y-89544976D01*
X144208134Y-89562219D01*
X144219170Y-89580632D01*
X144228349Y-89600038D01*
X144235581Y-89620250D01*
X144240797Y-89641074D01*
X144243947Y-89662309D01*
X144245000Y-89683750D01*
X144245000Y-90196250D01*
X144243947Y-90217691D01*
X144240797Y-90238926D01*
X144235581Y-90259750D01*
X144228349Y-90279962D01*
X144219170Y-90299368D01*
X144208134Y-90317781D01*
X144195346Y-90335024D01*
X144180930Y-90350930D01*
X144165024Y-90365346D01*
X144147781Y-90378134D01*
X144129368Y-90389170D01*
X144109962Y-90398349D01*
X144089750Y-90405581D01*
X144068926Y-90410797D01*
X144047691Y-90413947D01*
X144026250Y-90415000D01*
X143588750Y-90415000D01*
X143567309Y-90413947D01*
X143546074Y-90410797D01*
X143525250Y-90405581D01*
X143505038Y-90398349D01*
X143485632Y-90389170D01*
X143467219Y-90378134D01*
X143449976Y-90365346D01*
X143434070Y-90350930D01*
X143419654Y-90335024D01*
X143406866Y-90317781D01*
X143395830Y-90299368D01*
X143386651Y-90279962D01*
X143379419Y-90259750D01*
X143374203Y-90238926D01*
X143371053Y-90217691D01*
X143370000Y-90196250D01*
X143370000Y-89683750D01*
X143371053Y-89662309D01*
X143374203Y-89641074D01*
X143379419Y-89620250D01*
X143386651Y-89600038D01*
X143395830Y-89580632D01*
X143406866Y-89562219D01*
X143419654Y-89544976D01*
X143434070Y-89529070D01*
X143449976Y-89514654D01*
X143467219Y-89501866D01*
X143485632Y-89490830D01*
X143505038Y-89481651D01*
X143525250Y-89474419D01*
X143546074Y-89469203D01*
X143567309Y-89466053D01*
X143588750Y-89465000D01*
X144026250Y-89465000D01*
X144047691Y-89466053D01*
G37*
G36*
X142472691Y-89466053D02*
G01*
X142493926Y-89469203D01*
X142514750Y-89474419D01*
X142534962Y-89481651D01*
X142554368Y-89490830D01*
X142572781Y-89501866D01*
X142590024Y-89514654D01*
X142605930Y-89529070D01*
X142620346Y-89544976D01*
X142633134Y-89562219D01*
X142644170Y-89580632D01*
X142653349Y-89600038D01*
X142660581Y-89620250D01*
X142665797Y-89641074D01*
X142668947Y-89662309D01*
X142670000Y-89683750D01*
X142670000Y-90196250D01*
X142668947Y-90217691D01*
X142665797Y-90238926D01*
X142660581Y-90259750D01*
X142653349Y-90279962D01*
X142644170Y-90299368D01*
X142633134Y-90317781D01*
X142620346Y-90335024D01*
X142605930Y-90350930D01*
X142590024Y-90365346D01*
X142572781Y-90378134D01*
X142554368Y-90389170D01*
X142534962Y-90398349D01*
X142514750Y-90405581D01*
X142493926Y-90410797D01*
X142472691Y-90413947D01*
X142451250Y-90415000D01*
X142013750Y-90415000D01*
X141992309Y-90413947D01*
X141971074Y-90410797D01*
X141950250Y-90405581D01*
X141930038Y-90398349D01*
X141910632Y-90389170D01*
X141892219Y-90378134D01*
X141874976Y-90365346D01*
X141859070Y-90350930D01*
X141844654Y-90335024D01*
X141831866Y-90317781D01*
X141820830Y-90299368D01*
X141811651Y-90279962D01*
X141804419Y-90259750D01*
X141799203Y-90238926D01*
X141796053Y-90217691D01*
X141795000Y-90196250D01*
X141795000Y-89683750D01*
X141796053Y-89662309D01*
X141799203Y-89641074D01*
X141804419Y-89620250D01*
X141811651Y-89600038D01*
X141820830Y-89580632D01*
X141831866Y-89562219D01*
X141844654Y-89544976D01*
X141859070Y-89529070D01*
X141874976Y-89514654D01*
X141892219Y-89501866D01*
X141910632Y-89490830D01*
X141930038Y-89481651D01*
X141950250Y-89474419D01*
X141971074Y-89469203D01*
X141992309Y-89466053D01*
X142013750Y-89465000D01*
X142451250Y-89465000D01*
X142472691Y-89466053D01*
G37*
G36*
X127587691Y-79666053D02*
G01*
X127608926Y-79669203D01*
X127629750Y-79674419D01*
X127649962Y-79681651D01*
X127669368Y-79690830D01*
X127687781Y-79701866D01*
X127705024Y-79714654D01*
X127720930Y-79729070D01*
X127735346Y-79744976D01*
X127748134Y-79762219D01*
X127759170Y-79780632D01*
X127768349Y-79800038D01*
X127775581Y-79820250D01*
X127780797Y-79841074D01*
X127783947Y-79862309D01*
X127785000Y-79883750D01*
X127785000Y-80396250D01*
X127783947Y-80417691D01*
X127780797Y-80438926D01*
X127775581Y-80459750D01*
X127768349Y-80479962D01*
X127759170Y-80499368D01*
X127748134Y-80517781D01*
X127735346Y-80535024D01*
X127720930Y-80550930D01*
X127705024Y-80565346D01*
X127687781Y-80578134D01*
X127669368Y-80589170D01*
X127649962Y-80598349D01*
X127629750Y-80605581D01*
X127608926Y-80610797D01*
X127587691Y-80613947D01*
X127566250Y-80615000D01*
X127128750Y-80615000D01*
X127107309Y-80613947D01*
X127086074Y-80610797D01*
X127065250Y-80605581D01*
X127045038Y-80598349D01*
X127025632Y-80589170D01*
X127007219Y-80578134D01*
X126989976Y-80565346D01*
X126974070Y-80550930D01*
X126959654Y-80535024D01*
X126946866Y-80517781D01*
X126935830Y-80499368D01*
X126926651Y-80479962D01*
X126919419Y-80459750D01*
X126914203Y-80438926D01*
X126911053Y-80417691D01*
X126910000Y-80396250D01*
X126910000Y-79883750D01*
X126911053Y-79862309D01*
X126914203Y-79841074D01*
X126919419Y-79820250D01*
X126926651Y-79800038D01*
X126935830Y-79780632D01*
X126946866Y-79762219D01*
X126959654Y-79744976D01*
X126974070Y-79729070D01*
X126989976Y-79714654D01*
X127007219Y-79701866D01*
X127025632Y-79690830D01*
X127045038Y-79681651D01*
X127065250Y-79674419D01*
X127086074Y-79669203D01*
X127107309Y-79666053D01*
X127128750Y-79665000D01*
X127566250Y-79665000D01*
X127587691Y-79666053D01*
G37*
G36*
X126012691Y-79666053D02*
G01*
X126033926Y-79669203D01*
X126054750Y-79674419D01*
X126074962Y-79681651D01*
X126094368Y-79690830D01*
X126112781Y-79701866D01*
X126130024Y-79714654D01*
X126145930Y-79729070D01*
X126160346Y-79744976D01*
X126173134Y-79762219D01*
X126184170Y-79780632D01*
X126193349Y-79800038D01*
X126200581Y-79820250D01*
X126205797Y-79841074D01*
X126208947Y-79862309D01*
X126210000Y-79883750D01*
X126210000Y-80396250D01*
X126208947Y-80417691D01*
X126205797Y-80438926D01*
X126200581Y-80459750D01*
X126193349Y-80479962D01*
X126184170Y-80499368D01*
X126173134Y-80517781D01*
X126160346Y-80535024D01*
X126145930Y-80550930D01*
X126130024Y-80565346D01*
X126112781Y-80578134D01*
X126094368Y-80589170D01*
X126074962Y-80598349D01*
X126054750Y-80605581D01*
X126033926Y-80610797D01*
X126012691Y-80613947D01*
X125991250Y-80615000D01*
X125553750Y-80615000D01*
X125532309Y-80613947D01*
X125511074Y-80610797D01*
X125490250Y-80605581D01*
X125470038Y-80598349D01*
X125450632Y-80589170D01*
X125432219Y-80578134D01*
X125414976Y-80565346D01*
X125399070Y-80550930D01*
X125384654Y-80535024D01*
X125371866Y-80517781D01*
X125360830Y-80499368D01*
X125351651Y-80479962D01*
X125344419Y-80459750D01*
X125339203Y-80438926D01*
X125336053Y-80417691D01*
X125335000Y-80396250D01*
X125335000Y-79883750D01*
X125336053Y-79862309D01*
X125339203Y-79841074D01*
X125344419Y-79820250D01*
X125351651Y-79800038D01*
X125360830Y-79780632D01*
X125371866Y-79762219D01*
X125384654Y-79744976D01*
X125399070Y-79729070D01*
X125414976Y-79714654D01*
X125432219Y-79701866D01*
X125450632Y-79690830D01*
X125470038Y-79681651D01*
X125490250Y-79674419D01*
X125511074Y-79669203D01*
X125532309Y-79666053D01*
X125553750Y-79665000D01*
X125991250Y-79665000D01*
X126012691Y-79666053D01*
G37*
G36*
X99577691Y-71501053D02*
G01*
X99598926Y-71504203D01*
X99619750Y-71509419D01*
X99639962Y-71516651D01*
X99659368Y-71525830D01*
X99677781Y-71536866D01*
X99695024Y-71549654D01*
X99710930Y-71564070D01*
X99725346Y-71579976D01*
X99738134Y-71597219D01*
X99749170Y-71615632D01*
X99758349Y-71635038D01*
X99765581Y-71655250D01*
X99770797Y-71676074D01*
X99773947Y-71697309D01*
X99775000Y-71718750D01*
X99775000Y-72156250D01*
X99773947Y-72177691D01*
X99770797Y-72198926D01*
X99765581Y-72219750D01*
X99758349Y-72239962D01*
X99749170Y-72259368D01*
X99738134Y-72277781D01*
X99725346Y-72295024D01*
X99710930Y-72310930D01*
X99695024Y-72325346D01*
X99677781Y-72338134D01*
X99659368Y-72349170D01*
X99639962Y-72358349D01*
X99619750Y-72365581D01*
X99598926Y-72370797D01*
X99577691Y-72373947D01*
X99556250Y-72375000D01*
X99043750Y-72375000D01*
X99022309Y-72373947D01*
X99001074Y-72370797D01*
X98980250Y-72365581D01*
X98960038Y-72358349D01*
X98940632Y-72349170D01*
X98922219Y-72338134D01*
X98904976Y-72325346D01*
X98889070Y-72310930D01*
X98874654Y-72295024D01*
X98861866Y-72277781D01*
X98850830Y-72259368D01*
X98841651Y-72239962D01*
X98834419Y-72219750D01*
X98829203Y-72198926D01*
X98826053Y-72177691D01*
X98825000Y-72156250D01*
X98825000Y-71718750D01*
X98826053Y-71697309D01*
X98829203Y-71676074D01*
X98834419Y-71655250D01*
X98841651Y-71635038D01*
X98850830Y-71615632D01*
X98861866Y-71597219D01*
X98874654Y-71579976D01*
X98889070Y-71564070D01*
X98904976Y-71549654D01*
X98922219Y-71536866D01*
X98940632Y-71525830D01*
X98960038Y-71516651D01*
X98980250Y-71509419D01*
X99001074Y-71504203D01*
X99022309Y-71501053D01*
X99043750Y-71500000D01*
X99556250Y-71500000D01*
X99577691Y-71501053D01*
G37*
G36*
X99577691Y-69926053D02*
G01*
X99598926Y-69929203D01*
X99619750Y-69934419D01*
X99639962Y-69941651D01*
X99659368Y-69950830D01*
X99677781Y-69961866D01*
X99695024Y-69974654D01*
X99710930Y-69989070D01*
X99725346Y-70004976D01*
X99738134Y-70022219D01*
X99749170Y-70040632D01*
X99758349Y-70060038D01*
X99765581Y-70080250D01*
X99770797Y-70101074D01*
X99773947Y-70122309D01*
X99775000Y-70143750D01*
X99775000Y-70581250D01*
X99773947Y-70602691D01*
X99770797Y-70623926D01*
X99765581Y-70644750D01*
X99758349Y-70664962D01*
X99749170Y-70684368D01*
X99738134Y-70702781D01*
X99725346Y-70720024D01*
X99710930Y-70735930D01*
X99695024Y-70750346D01*
X99677781Y-70763134D01*
X99659368Y-70774170D01*
X99639962Y-70783349D01*
X99619750Y-70790581D01*
X99598926Y-70795797D01*
X99577691Y-70798947D01*
X99556250Y-70800000D01*
X99043750Y-70800000D01*
X99022309Y-70798947D01*
X99001074Y-70795797D01*
X98980250Y-70790581D01*
X98960038Y-70783349D01*
X98940632Y-70774170D01*
X98922219Y-70763134D01*
X98904976Y-70750346D01*
X98889070Y-70735930D01*
X98874654Y-70720024D01*
X98861866Y-70702781D01*
X98850830Y-70684368D01*
X98841651Y-70664962D01*
X98834419Y-70644750D01*
X98829203Y-70623926D01*
X98826053Y-70602691D01*
X98825000Y-70581250D01*
X98825000Y-70143750D01*
X98826053Y-70122309D01*
X98829203Y-70101074D01*
X98834419Y-70080250D01*
X98841651Y-70060038D01*
X98850830Y-70040632D01*
X98861866Y-70022219D01*
X98874654Y-70004976D01*
X98889070Y-69989070D01*
X98904976Y-69974654D01*
X98922219Y-69961866D01*
X98940632Y-69950830D01*
X98960038Y-69941651D01*
X98980250Y-69934419D01*
X99001074Y-69929203D01*
X99022309Y-69926053D01*
X99043750Y-69925000D01*
X99556250Y-69925000D01*
X99577691Y-69926053D01*
G37*
M02*
