%FSLAX45Y45*%
G04 Gerber Fmt 4.5, Leading zero omitted, Abs format (unit mm)*
G04 Created by KiCad (PCBNEW (5.1.5)-3) date 2021-02-19 06:09:15*
%MOMM*%
%LPD*%
G04 APERTURE LIST*
%TA.AperFunction,Profile*%
%ADD10C,0.050000*%
%TD*%
%ADD11C,0.200000*%
%ADD12C,0.300000*%
G04 APERTURE END LIST*
D10*
X14069000Y-9358000D02*
G75*
G03X14069000Y-9358000I-60000J0D01*
G01*
X14070000Y-9177000D02*
G75*
G03X14070000Y-9177000I-60000J0D01*
G01*
X9800000Y-6050000D02*
X9800000Y-10150000D01*
X19500000Y-10150000D02*
X9800000Y-10150000D01*
X19500000Y-6050000D02*
X19500000Y-10150000D01*
X9800000Y-6050000D02*
X19500000Y-6050000D01*
D11*
X10877000Y-9105000D02*
X10917000Y-9145000D01*
X10917000Y-9105000D02*
X10877000Y-9145000D01*
X10997000Y-8328000D02*
X11037000Y-8368000D01*
X11037000Y-8328000D02*
X10997000Y-8368000D01*
X11072000Y-9335000D02*
X11112000Y-9375000D01*
X11112000Y-9335000D02*
X11072000Y-9375000D01*
X11555000Y-9188000D02*
X11595000Y-9228000D01*
X11595000Y-9188000D02*
X11555000Y-9228000D01*
X11723000Y-7784000D02*
X11763000Y-7824000D01*
X11763000Y-7784000D02*
X11723000Y-7824000D01*
X12411000Y-7993000D02*
X12451000Y-8033000D01*
X12451000Y-7993000D02*
X12411000Y-8033000D01*
X13419000Y-8803000D02*
X13459000Y-8843000D01*
X13459000Y-8803000D02*
X13419000Y-8843000D01*
X13796000Y-9002000D02*
X13836000Y-9042000D01*
X13836000Y-9002000D02*
X13796000Y-9042000D01*
X14798000Y-8735000D02*
X14838000Y-8775000D01*
X14838000Y-8735000D02*
X14798000Y-8775000D01*
X15673500Y-7932000D02*
X15713500Y-7972000D01*
X15713500Y-7932000D02*
X15673500Y-7972000D01*
X16216000Y-6644000D02*
X16256000Y-6684000D01*
X16256000Y-6644000D02*
X16216000Y-6684000D01*
X17002000Y-6925000D02*
X17042000Y-6965000D01*
X17042000Y-6925000D02*
X17002000Y-6965000D01*
X17017000Y-6644000D02*
X17057000Y-6684000D01*
X17057000Y-6644000D02*
X17017000Y-6684000D01*
X15649000Y-8666000D02*
G75*
G03X15649000Y-8666000I-25000J0D01*
G01*
X15903000Y-8666000D02*
G75*
G03X15903000Y-8666000I-25000J0D01*
G01*
X14011000Y-9136000D02*
X14011000Y-9216000D01*
X13971000Y-9176000D02*
X14051000Y-9176000D01*
X14011000Y-9318400D02*
X14011000Y-9398400D01*
X13971000Y-9358400D02*
X14051000Y-9358400D01*
X10479356Y-8921356D02*
X10479356Y-8850644D01*
X10408644Y-8850644D01*
X10408644Y-8921356D01*
X10479356Y-8921356D01*
X10479356Y-9175356D02*
X10479356Y-9104644D01*
X10408644Y-9104644D01*
X10408644Y-9175356D01*
X10479356Y-9175356D01*
X10479356Y-9429356D02*
X10479356Y-9358644D01*
X10408644Y-9358644D01*
X10408644Y-9429356D01*
X10479356Y-9429356D01*
X10479356Y-9683356D02*
X10479356Y-9612644D01*
X10408644Y-9612644D01*
X10408644Y-9683356D01*
X10479356Y-9683356D01*
X10237356Y-6602356D02*
X10237356Y-6531644D01*
X10166644Y-6531644D01*
X10166644Y-6602356D01*
X10237356Y-6602356D01*
X10237356Y-6856356D02*
X10237356Y-6785644D01*
X10166644Y-6785644D01*
X10166644Y-6856356D01*
X10237356Y-6856356D01*
X10237356Y-7110356D02*
X10237356Y-7039644D01*
X10166644Y-7039644D01*
X10166644Y-7110356D01*
X10237356Y-7110356D01*
X10237356Y-7364356D02*
X10237356Y-7293644D01*
X10166644Y-7293644D01*
X10166644Y-7364356D01*
X10237356Y-7364356D01*
X10237356Y-7618356D02*
X10237356Y-7547644D01*
X10166644Y-7547644D01*
X10166644Y-7618356D01*
X10237356Y-7618356D01*
X10237356Y-7872356D02*
X10237356Y-7801644D01*
X10166644Y-7801644D01*
X10166644Y-7872356D01*
X10237356Y-7872356D01*
X10237356Y-8126356D02*
X10237356Y-8055644D01*
X10166644Y-8055644D01*
X10166644Y-8126356D01*
X10237356Y-8126356D01*
X10237356Y-8380356D02*
X10237356Y-8309644D01*
X10166644Y-8309644D01*
X10166644Y-8380356D01*
X10237356Y-8380356D01*
X10491356Y-6602356D02*
X10491356Y-6531644D01*
X10420644Y-6531644D01*
X10420644Y-6602356D01*
X10491356Y-6602356D01*
X10491356Y-6856356D02*
X10491356Y-6785644D01*
X10420644Y-6785644D01*
X10420644Y-6856356D01*
X10491356Y-6856356D01*
X10491356Y-7110356D02*
X10491356Y-7039644D01*
X10420644Y-7039644D01*
X10420644Y-7110356D01*
X10491356Y-7110356D01*
X10491356Y-7364356D02*
X10491356Y-7293644D01*
X10420644Y-7293644D01*
X10420644Y-7364356D01*
X10491356Y-7364356D01*
X10491356Y-7618356D02*
X10491356Y-7547644D01*
X10420644Y-7547644D01*
X10420644Y-7618356D01*
X10491356Y-7618356D01*
X10491356Y-7872356D02*
X10491356Y-7801644D01*
X10420644Y-7801644D01*
X10420644Y-7872356D01*
X10491356Y-7872356D01*
X10491356Y-8126356D02*
X10491356Y-8055644D01*
X10420644Y-8055644D01*
X10420644Y-8126356D01*
X10491356Y-8126356D01*
X10491356Y-8380356D02*
X10491356Y-8309644D01*
X10420644Y-8309644D01*
X10420644Y-8380356D01*
X10491356Y-8380356D01*
X14928356Y-6728356D02*
X14928356Y-6657644D01*
X14857644Y-6657644D01*
X14857644Y-6728356D01*
X14928356Y-6728356D01*
X14928356Y-6982356D02*
X14928356Y-6911644D01*
X14857644Y-6911644D01*
X14857644Y-6982356D01*
X14928356Y-6982356D01*
X14928356Y-7236356D02*
X14928356Y-7165644D01*
X14857644Y-7165644D01*
X14857644Y-7236356D01*
X14928356Y-7236356D01*
X14928356Y-7490356D02*
X14928356Y-7419644D01*
X14857644Y-7419644D01*
X14857644Y-7490356D01*
X14928356Y-7490356D01*
X14928356Y-7744356D02*
X14928356Y-7673644D01*
X14857644Y-7673644D01*
X14857644Y-7744356D01*
X14928356Y-7744356D01*
X14928356Y-7998356D02*
X14928356Y-7927644D01*
X14857644Y-7927644D01*
X14857644Y-7998356D01*
X14928356Y-7998356D01*
X14928356Y-8252356D02*
X14928356Y-8181644D01*
X14857644Y-8181644D01*
X14857644Y-8252356D01*
X14928356Y-8252356D01*
X14928356Y-8506356D02*
X14928356Y-8435644D01*
X14857644Y-8435644D01*
X14857644Y-8506356D01*
X14928356Y-8506356D01*
X15182356Y-6728356D02*
X15182356Y-6657644D01*
X15111644Y-6657644D01*
X15111644Y-6728356D01*
X15182356Y-6728356D01*
X15182356Y-6982356D02*
X15182356Y-6911644D01*
X15111644Y-6911644D01*
X15111644Y-6982356D01*
X15182356Y-6982356D01*
X15182356Y-7236356D02*
X15182356Y-7165644D01*
X15111644Y-7165644D01*
X15111644Y-7236356D01*
X15182356Y-7236356D01*
X15182356Y-7490356D02*
X15182356Y-7419644D01*
X15111644Y-7419644D01*
X15111644Y-7490356D01*
X15182356Y-7490356D01*
X15182356Y-7744356D02*
X15182356Y-7673644D01*
X15111644Y-7673644D01*
X15111644Y-7744356D01*
X15182356Y-7744356D01*
X15182356Y-7998356D02*
X15182356Y-7927644D01*
X15111644Y-7927644D01*
X15111644Y-7998356D01*
X15182356Y-7998356D01*
X15182356Y-8252356D02*
X15182356Y-8181644D01*
X15111644Y-8181644D01*
X15111644Y-8252356D01*
X15182356Y-8252356D01*
X15182356Y-8506356D02*
X15182356Y-8435644D01*
X15111644Y-8435644D01*
X15111644Y-8506356D01*
X15182356Y-8506356D01*
X11163356Y-9690356D02*
X11163356Y-9619644D01*
X11092644Y-9619644D01*
X11092644Y-9690356D01*
X11163356Y-9690356D01*
X11417356Y-9690356D02*
X11417356Y-9619644D01*
X11346644Y-9619644D01*
X11346644Y-9690356D01*
X11417356Y-9690356D01*
X11671356Y-9690356D02*
X11671356Y-9619644D01*
X11600644Y-9619644D01*
X11600644Y-9690356D01*
X11671356Y-9690356D01*
X11925356Y-9690356D02*
X11925356Y-9619644D01*
X11854644Y-9619644D01*
X11854644Y-9690356D01*
X11925356Y-9690356D01*
X18926356Y-6811356D02*
X18926356Y-6740644D01*
X18855644Y-6740644D01*
X18855644Y-6811356D01*
X18926356Y-6811356D01*
X18926356Y-7065356D02*
X18926356Y-6994644D01*
X18855644Y-6994644D01*
X18855644Y-7065356D01*
X18926356Y-7065356D01*
X18926356Y-7319356D02*
X18926356Y-7248644D01*
X18855644Y-7248644D01*
X18855644Y-7319356D01*
X18926356Y-7319356D01*
X18926356Y-7573356D02*
X18926356Y-7502644D01*
X18855644Y-7502644D01*
X18855644Y-7573356D01*
X18926356Y-7573356D01*
X18926356Y-7827356D02*
X18926356Y-7756644D01*
X18855644Y-7756644D01*
X18855644Y-7827356D01*
X18926356Y-7827356D01*
X18926356Y-8081356D02*
X18926356Y-8010644D01*
X18855644Y-8010644D01*
X18855644Y-8081356D01*
X18926356Y-8081356D01*
X18926356Y-8335356D02*
X18926356Y-8264644D01*
X18855644Y-8264644D01*
X18855644Y-8335356D01*
X18926356Y-8335356D01*
X18926356Y-8589356D02*
X18926356Y-8518644D01*
X18855644Y-8518644D01*
X18855644Y-8589356D01*
X18926356Y-8589356D01*
X19180356Y-6811356D02*
X19180356Y-6740644D01*
X19109644Y-6740644D01*
X19109644Y-6811356D01*
X19180356Y-6811356D01*
X19180356Y-7065356D02*
X19180356Y-6994644D01*
X19109644Y-6994644D01*
X19109644Y-7065356D01*
X19180356Y-7065356D01*
X19180356Y-7319356D02*
X19180356Y-7248644D01*
X19109644Y-7248644D01*
X19109644Y-7319356D01*
X19180356Y-7319356D01*
X19180356Y-7573356D02*
X19180356Y-7502644D01*
X19109644Y-7502644D01*
X19109644Y-7573356D01*
X19180356Y-7573356D01*
X19180356Y-7827356D02*
X19180356Y-7756644D01*
X19109644Y-7756644D01*
X19109644Y-7827356D01*
X19180356Y-7827356D01*
X19180356Y-8081356D02*
X19180356Y-8010644D01*
X19109644Y-8010644D01*
X19109644Y-8081356D01*
X19180356Y-8081356D01*
X19180356Y-8335356D02*
X19180356Y-8264644D01*
X19109644Y-8264644D01*
X19109644Y-8335356D01*
X19180356Y-8335356D01*
X19180356Y-8589356D02*
X19180356Y-8518644D01*
X19109644Y-8518644D01*
X19109644Y-8589356D01*
X19180356Y-8589356D01*
X16323356Y-9510356D02*
X16323356Y-9439644D01*
X16252644Y-9439644D01*
X16252644Y-9510356D01*
X16323356Y-9510356D01*
X16323356Y-9764356D02*
X16323356Y-9693644D01*
X16252644Y-9693644D01*
X16252644Y-9764356D01*
X16323356Y-9764356D01*
X16577356Y-9510356D02*
X16577356Y-9439644D01*
X16506644Y-9439644D01*
X16506644Y-9510356D01*
X16577356Y-9510356D01*
X16577356Y-9764356D02*
X16577356Y-9693644D01*
X16506644Y-9693644D01*
X16506644Y-9764356D01*
X16577356Y-9764356D01*
X16831356Y-9510356D02*
X16831356Y-9439644D01*
X16760644Y-9439644D01*
X16760644Y-9510356D01*
X16831356Y-9510356D01*
X16831356Y-9764356D02*
X16831356Y-9693644D01*
X16760644Y-9693644D01*
X16760644Y-9764356D01*
X16831356Y-9764356D01*
X17085356Y-9510356D02*
X17085356Y-9439644D01*
X17014644Y-9439644D01*
X17014644Y-9510356D01*
X17085356Y-9510356D01*
X17085356Y-9764356D02*
X17085356Y-9693644D01*
X17014644Y-9693644D01*
X17014644Y-9764356D01*
X17085356Y-9764356D01*
X17339356Y-9510356D02*
X17339356Y-9439644D01*
X17268644Y-9439644D01*
X17268644Y-9510356D01*
X17339356Y-9510356D01*
X17339356Y-9764356D02*
X17339356Y-9693644D01*
X17268644Y-9693644D01*
X17268644Y-9764356D01*
X17339356Y-9764356D01*
X17593356Y-9510356D02*
X17593356Y-9439644D01*
X17522644Y-9439644D01*
X17522644Y-9510356D01*
X17593356Y-9510356D01*
X17593356Y-9764356D02*
X17593356Y-9693644D01*
X17522644Y-9693644D01*
X17522644Y-9764356D01*
X17593356Y-9764356D01*
X17847356Y-9510356D02*
X17847356Y-9439644D01*
X17776644Y-9439644D01*
X17776644Y-9510356D01*
X17847356Y-9510356D01*
X17847356Y-9764356D02*
X17847356Y-9693644D01*
X17776644Y-9693644D01*
X17776644Y-9764356D01*
X17847356Y-9764356D01*
X18101356Y-9510356D02*
X18101356Y-9439644D01*
X18030644Y-9439644D01*
X18030644Y-9510356D01*
X18101356Y-9510356D01*
X18101356Y-9764356D02*
X18101356Y-9693644D01*
X18030644Y-9693644D01*
X18030644Y-9764356D01*
X18101356Y-9764356D01*
X11295356Y-8540356D02*
X11295356Y-8469644D01*
X11224644Y-8469644D01*
X11224644Y-8540356D01*
X11295356Y-8540356D01*
X11549356Y-8540356D02*
X11549356Y-8469644D01*
X11478644Y-8469644D01*
X11478644Y-8540356D01*
X11549356Y-8540356D01*
X11803356Y-8540356D02*
X11803356Y-8469644D01*
X11732644Y-8469644D01*
X11732644Y-8540356D01*
X11803356Y-8540356D01*
X12057356Y-8540356D02*
X12057356Y-8469644D01*
X11986644Y-8469644D01*
X11986644Y-8540356D01*
X12057356Y-8540356D01*
X12679356Y-8329356D02*
X12679356Y-8258644D01*
X12608644Y-8258644D01*
X12608644Y-8329356D01*
X12679356Y-8329356D01*
X12679356Y-8583356D02*
X12679356Y-8512644D01*
X12608644Y-8512644D01*
X12608644Y-8583356D01*
X12679356Y-8583356D01*
X12933356Y-8329356D02*
X12933356Y-8258644D01*
X12862644Y-8258644D01*
X12862644Y-8329356D01*
X12933356Y-8329356D01*
X12933356Y-8583356D02*
X12933356Y-8512644D01*
X12862644Y-8512644D01*
X12862644Y-8583356D01*
X12933356Y-8583356D01*
X13187356Y-8329356D02*
X13187356Y-8258644D01*
X13116644Y-8258644D01*
X13116644Y-8329356D01*
X13187356Y-8329356D01*
X13187356Y-8583356D02*
X13187356Y-8512644D01*
X13116644Y-8512644D01*
X13116644Y-8583356D01*
X13187356Y-8583356D01*
X13441356Y-8329356D02*
X13441356Y-8258644D01*
X13370644Y-8258644D01*
X13370644Y-8329356D01*
X13441356Y-8329356D01*
X13441356Y-8583356D02*
X13441356Y-8512644D01*
X13370644Y-8512644D01*
X13370644Y-8583356D01*
X13441356Y-8583356D01*
X13695356Y-8329356D02*
X13695356Y-8258644D01*
X13624644Y-8258644D01*
X13624644Y-8329356D01*
X13695356Y-8329356D01*
X13695356Y-8583356D02*
X13695356Y-8512644D01*
X13624644Y-8512644D01*
X13624644Y-8583356D01*
X13695356Y-8583356D01*
X13949356Y-8329356D02*
X13949356Y-8258644D01*
X13878644Y-8258644D01*
X13878644Y-8329356D01*
X13949356Y-8329356D01*
X13949356Y-8583356D02*
X13949356Y-8512644D01*
X13878644Y-8512644D01*
X13878644Y-8583356D01*
X13949356Y-8583356D01*
X14203356Y-8329356D02*
X14203356Y-8258644D01*
X14132644Y-8258644D01*
X14132644Y-8329356D01*
X14203356Y-8329356D01*
X14203356Y-8583356D02*
X14203356Y-8512644D01*
X14132644Y-8512644D01*
X14132644Y-8583356D01*
X14203356Y-8583356D01*
X14457356Y-8329356D02*
X14457356Y-8258644D01*
X14386644Y-8258644D01*
X14386644Y-8329356D01*
X14457356Y-8329356D01*
X14457356Y-8583356D02*
X14457356Y-8512644D01*
X14386644Y-8512644D01*
X14386644Y-8583356D01*
X14457356Y-8583356D01*
X18026356Y-6842356D02*
X18026356Y-6771644D01*
X17955644Y-6771644D01*
X17955644Y-6842356D01*
X18026356Y-6842356D01*
X18026356Y-7096356D02*
X18026356Y-7025644D01*
X17955644Y-7025644D01*
X17955644Y-7096356D01*
X18026356Y-7096356D01*
X18026356Y-7350356D02*
X18026356Y-7279644D01*
X17955644Y-7279644D01*
X17955644Y-7350356D01*
X18026356Y-7350356D01*
X18026356Y-7604356D02*
X18026356Y-7533644D01*
X17955644Y-7533644D01*
X17955644Y-7604356D01*
X18026356Y-7604356D01*
X18026356Y-7858356D02*
X18026356Y-7787644D01*
X17955644Y-7787644D01*
X17955644Y-7858356D01*
X18026356Y-7858356D01*
X18026356Y-8112356D02*
X18026356Y-8041644D01*
X17955644Y-8041644D01*
X17955644Y-8112356D01*
X18026356Y-8112356D01*
X18026356Y-8366356D02*
X18026356Y-8295644D01*
X17955644Y-8295644D01*
X17955644Y-8366356D01*
X18026356Y-8366356D01*
X18026356Y-8620356D02*
X18026356Y-8549644D01*
X17955644Y-8549644D01*
X17955644Y-8620356D01*
X18026356Y-8620356D01*
X18280356Y-6842356D02*
X18280356Y-6771644D01*
X18209644Y-6771644D01*
X18209644Y-6842356D01*
X18280356Y-6842356D01*
X18280356Y-7096356D02*
X18280356Y-7025644D01*
X18209644Y-7025644D01*
X18209644Y-7096356D01*
X18280356Y-7096356D01*
X18280356Y-7350356D02*
X18280356Y-7279644D01*
X18209644Y-7279644D01*
X18209644Y-7350356D01*
X18280356Y-7350356D01*
X18280356Y-7604356D02*
X18280356Y-7533644D01*
X18209644Y-7533644D01*
X18209644Y-7604356D01*
X18280356Y-7604356D01*
X18280356Y-7858356D02*
X18280356Y-7787644D01*
X18209644Y-7787644D01*
X18209644Y-7858356D01*
X18280356Y-7858356D01*
X18280356Y-8112356D02*
X18280356Y-8041644D01*
X18209644Y-8041644D01*
X18209644Y-8112356D01*
X18280356Y-8112356D01*
X18280356Y-8366356D02*
X18280356Y-8295644D01*
X18209644Y-8295644D01*
X18209644Y-8366356D01*
X18280356Y-8366356D01*
X18280356Y-8620356D02*
X18280356Y-8549644D01*
X18209644Y-8549644D01*
X18209644Y-8620356D01*
X18280356Y-8620356D01*
D12*
X10083928Y-10618214D02*
X10083928Y-10318214D01*
X10155357Y-10318214D01*
X10198214Y-10332500D01*
X10226786Y-10361072D01*
X10241071Y-10389643D01*
X10255357Y-10446786D01*
X10255357Y-10489643D01*
X10241071Y-10546786D01*
X10226786Y-10575357D01*
X10198214Y-10603929D01*
X10155357Y-10618214D01*
X10083928Y-10618214D01*
X10383928Y-10618214D02*
X10383928Y-10418214D01*
X10383928Y-10475357D02*
X10398214Y-10446786D01*
X10412500Y-10432500D01*
X10441071Y-10418214D01*
X10469643Y-10418214D01*
X10569643Y-10618214D02*
X10569643Y-10418214D01*
X10569643Y-10318214D02*
X10555357Y-10332500D01*
X10569643Y-10346786D01*
X10583928Y-10332500D01*
X10569643Y-10318214D01*
X10569643Y-10346786D01*
X10755357Y-10618214D02*
X10726786Y-10603929D01*
X10712500Y-10575357D01*
X10712500Y-10318214D01*
X10912500Y-10618214D02*
X10883928Y-10603929D01*
X10869643Y-10575357D01*
X10869643Y-10318214D01*
X11255357Y-10618214D02*
X11255357Y-10318214D01*
X11355357Y-10532500D01*
X11455357Y-10318214D01*
X11455357Y-10618214D01*
X11726786Y-10618214D02*
X11726786Y-10461072D01*
X11712500Y-10432500D01*
X11683928Y-10418214D01*
X11626786Y-10418214D01*
X11598214Y-10432500D01*
X11726786Y-10603929D02*
X11698214Y-10618214D01*
X11626786Y-10618214D01*
X11598214Y-10603929D01*
X11583928Y-10575357D01*
X11583928Y-10546786D01*
X11598214Y-10518214D01*
X11626786Y-10503929D01*
X11698214Y-10503929D01*
X11726786Y-10489643D01*
X11869643Y-10418214D02*
X11869643Y-10718214D01*
X11869643Y-10432500D02*
X11898214Y-10418214D01*
X11955357Y-10418214D01*
X11983928Y-10432500D01*
X11998214Y-10446786D01*
X12012500Y-10475357D01*
X12012500Y-10561072D01*
X11998214Y-10589643D01*
X11983928Y-10603929D01*
X11955357Y-10618214D01*
X11898214Y-10618214D01*
X11869643Y-10603929D01*
X12141071Y-10589643D02*
X12155357Y-10603929D01*
X12141071Y-10618214D01*
X12126786Y-10603929D01*
X12141071Y-10589643D01*
X12141071Y-10618214D01*
X12141071Y-10432500D02*
X12155357Y-10446786D01*
X12141071Y-10461072D01*
X12126786Y-10446786D01*
X12141071Y-10432500D01*
X12141071Y-10461072D01*
X9757500Y-11092500D02*
X9797500Y-11132500D01*
X9797500Y-11092500D02*
X9757500Y-11132500D01*
X10141071Y-10948214D02*
X10169643Y-10948214D01*
X10198214Y-10962500D01*
X10212500Y-10976786D01*
X10226786Y-11005357D01*
X10241071Y-11062500D01*
X10241071Y-11133929D01*
X10226786Y-11191071D01*
X10212500Y-11219643D01*
X10198214Y-11233929D01*
X10169643Y-11248214D01*
X10141071Y-11248214D01*
X10112500Y-11233929D01*
X10098214Y-11219643D01*
X10083928Y-11191071D01*
X10069643Y-11133929D01*
X10069643Y-11062500D01*
X10083928Y-11005357D01*
X10098214Y-10976786D01*
X10112500Y-10962500D01*
X10141071Y-10948214D01*
X10369643Y-11219643D02*
X10383928Y-11233929D01*
X10369643Y-11248214D01*
X10355357Y-11233929D01*
X10369643Y-11219643D01*
X10369643Y-11248214D01*
X10641071Y-11048214D02*
X10641071Y-11248214D01*
X10569643Y-10933929D02*
X10498214Y-11148214D01*
X10683928Y-11148214D01*
X10855357Y-10948214D02*
X10883928Y-10948214D01*
X10912500Y-10962500D01*
X10926786Y-10976786D01*
X10941071Y-11005357D01*
X10955357Y-11062500D01*
X10955357Y-11133929D01*
X10941071Y-11191071D01*
X10926786Y-11219643D01*
X10912500Y-11233929D01*
X10883928Y-11248214D01*
X10855357Y-11248214D01*
X10826786Y-11233929D01*
X10812500Y-11219643D01*
X10798214Y-11191071D01*
X10783928Y-11133929D01*
X10783928Y-11062500D01*
X10798214Y-11005357D01*
X10812500Y-10976786D01*
X10826786Y-10962500D01*
X10855357Y-10948214D01*
X11083928Y-11248214D02*
X11083928Y-11048214D01*
X11083928Y-11076786D02*
X11098214Y-11062500D01*
X11126786Y-11048214D01*
X11169643Y-11048214D01*
X11198214Y-11062500D01*
X11212500Y-11091072D01*
X11212500Y-11248214D01*
X11212500Y-11091072D02*
X11226786Y-11062500D01*
X11255357Y-11048214D01*
X11298214Y-11048214D01*
X11326786Y-11062500D01*
X11341071Y-11091072D01*
X11341071Y-11248214D01*
X11483928Y-11248214D02*
X11483928Y-11048214D01*
X11483928Y-11076786D02*
X11498214Y-11062500D01*
X11526786Y-11048214D01*
X11569643Y-11048214D01*
X11598214Y-11062500D01*
X11612500Y-11091072D01*
X11612500Y-11248214D01*
X11612500Y-11091072D02*
X11626786Y-11062500D01*
X11655357Y-11048214D01*
X11698214Y-11048214D01*
X11726786Y-11062500D01*
X11741071Y-11091072D01*
X11741071Y-11248214D01*
X12326786Y-10933929D02*
X12069643Y-11319643D01*
X12712500Y-10948214D02*
X12741071Y-10948214D01*
X12769643Y-10962500D01*
X12783928Y-10976786D01*
X12798214Y-11005357D01*
X12812500Y-11062500D01*
X12812500Y-11133929D01*
X12798214Y-11191071D01*
X12783928Y-11219643D01*
X12769643Y-11233929D01*
X12741071Y-11248214D01*
X12712500Y-11248214D01*
X12683928Y-11233929D01*
X12669643Y-11219643D01*
X12655357Y-11191071D01*
X12641071Y-11133929D01*
X12641071Y-11062500D01*
X12655357Y-11005357D01*
X12669643Y-10976786D01*
X12683928Y-10962500D01*
X12712500Y-10948214D01*
X12941071Y-11219643D02*
X12955357Y-11233929D01*
X12941071Y-11248214D01*
X12926786Y-11233929D01*
X12941071Y-11219643D01*
X12941071Y-11248214D01*
X13141071Y-10948214D02*
X13169643Y-10948214D01*
X13198214Y-10962500D01*
X13212500Y-10976786D01*
X13226786Y-11005357D01*
X13241071Y-11062500D01*
X13241071Y-11133929D01*
X13226786Y-11191071D01*
X13212500Y-11219643D01*
X13198214Y-11233929D01*
X13169643Y-11248214D01*
X13141071Y-11248214D01*
X13112500Y-11233929D01*
X13098214Y-11219643D01*
X13083928Y-11191071D01*
X13069643Y-11133929D01*
X13069643Y-11062500D01*
X13083928Y-11005357D01*
X13098214Y-10976786D01*
X13112500Y-10962500D01*
X13141071Y-10948214D01*
X13526786Y-11248214D02*
X13355357Y-11248214D01*
X13441071Y-11248214D02*
X13441071Y-10948214D01*
X13412500Y-10991072D01*
X13383928Y-11019643D01*
X13355357Y-11033929D01*
X13783928Y-10948214D02*
X13726786Y-10948214D01*
X13698214Y-10962500D01*
X13683928Y-10976786D01*
X13655357Y-11019643D01*
X13641071Y-11076786D01*
X13641071Y-11191071D01*
X13655357Y-11219643D01*
X13669643Y-11233929D01*
X13698214Y-11248214D01*
X13755357Y-11248214D01*
X13783928Y-11233929D01*
X13798214Y-11219643D01*
X13812500Y-11191071D01*
X13812500Y-11119643D01*
X13798214Y-11091072D01*
X13783928Y-11076786D01*
X13755357Y-11062500D01*
X13698214Y-11062500D01*
X13669643Y-11076786D01*
X13655357Y-11091072D01*
X13641071Y-11119643D01*
X13926786Y-10948214D02*
X13926786Y-11005357D01*
X14041071Y-10948214D02*
X14041071Y-11005357D01*
X14483928Y-11362500D02*
X14469643Y-11348214D01*
X14441071Y-11305357D01*
X14426786Y-11276786D01*
X14412500Y-11233929D01*
X14398214Y-11162500D01*
X14398214Y-11105357D01*
X14412500Y-11033929D01*
X14426786Y-10991072D01*
X14441071Y-10962500D01*
X14469643Y-10919643D01*
X14483928Y-10905357D01*
X14755357Y-11248214D02*
X14583928Y-11248214D01*
X14669643Y-11248214D02*
X14669643Y-10948214D01*
X14641071Y-10991072D01*
X14612500Y-11019643D01*
X14583928Y-11033929D01*
X14855357Y-10948214D02*
X15041071Y-10948214D01*
X14941071Y-11062500D01*
X14983928Y-11062500D01*
X15012500Y-11076786D01*
X15026786Y-11091072D01*
X15041071Y-11119643D01*
X15041071Y-11191071D01*
X15026786Y-11219643D01*
X15012500Y-11233929D01*
X14983928Y-11248214D01*
X14898214Y-11248214D01*
X14869643Y-11233929D01*
X14855357Y-11219643D01*
X15398214Y-11248214D02*
X15398214Y-10948214D01*
X15526786Y-11248214D02*
X15526786Y-11091072D01*
X15512500Y-11062500D01*
X15483928Y-11048214D01*
X15441071Y-11048214D01*
X15412500Y-11062500D01*
X15398214Y-11076786D01*
X15712500Y-11248214D02*
X15683928Y-11233929D01*
X15669643Y-11219643D01*
X15655357Y-11191071D01*
X15655357Y-11105357D01*
X15669643Y-11076786D01*
X15683928Y-11062500D01*
X15712500Y-11048214D01*
X15755357Y-11048214D01*
X15783928Y-11062500D01*
X15798214Y-11076786D01*
X15812500Y-11105357D01*
X15812500Y-11191071D01*
X15798214Y-11219643D01*
X15783928Y-11233929D01*
X15755357Y-11248214D01*
X15712500Y-11248214D01*
X15983928Y-11248214D02*
X15955357Y-11233929D01*
X15941071Y-11205357D01*
X15941071Y-10948214D01*
X16212500Y-11233929D02*
X16183928Y-11248214D01*
X16126786Y-11248214D01*
X16098214Y-11233929D01*
X16083928Y-11205357D01*
X16083928Y-11091072D01*
X16098214Y-11062500D01*
X16126786Y-11048214D01*
X16183928Y-11048214D01*
X16212500Y-11062500D01*
X16226786Y-11091072D01*
X16226786Y-11119643D01*
X16083928Y-11148214D01*
X16341071Y-11233929D02*
X16369643Y-11248214D01*
X16426786Y-11248214D01*
X16455357Y-11233929D01*
X16469643Y-11205357D01*
X16469643Y-11191071D01*
X16455357Y-11162500D01*
X16426786Y-11148214D01*
X16383928Y-11148214D01*
X16355357Y-11133929D01*
X16341071Y-11105357D01*
X16341071Y-11091072D01*
X16355357Y-11062500D01*
X16383928Y-11048214D01*
X16426786Y-11048214D01*
X16455357Y-11062500D01*
X16569643Y-11362500D02*
X16583928Y-11348214D01*
X16612500Y-11305357D01*
X16626786Y-11276786D01*
X16641071Y-11233929D01*
X16655357Y-11162500D01*
X16655357Y-11105357D01*
X16641071Y-11033929D01*
X16626786Y-10991072D01*
X16612500Y-10962500D01*
X16583928Y-10919643D01*
X16569643Y-10905357D01*
X9797500Y-11508500D02*
G75*
G03X9797500Y-11508500I-25000J0D01*
G01*
X10141071Y-11344214D02*
X10169643Y-11344214D01*
X10198214Y-11358500D01*
X10212500Y-11372786D01*
X10226786Y-11401357D01*
X10241071Y-11458500D01*
X10241071Y-11529929D01*
X10226786Y-11587071D01*
X10212500Y-11615643D01*
X10198214Y-11629929D01*
X10169643Y-11644214D01*
X10141071Y-11644214D01*
X10112500Y-11629929D01*
X10098214Y-11615643D01*
X10083928Y-11587071D01*
X10069643Y-11529929D01*
X10069643Y-11458500D01*
X10083928Y-11401357D01*
X10098214Y-11372786D01*
X10112500Y-11358500D01*
X10141071Y-11344214D01*
X10369643Y-11615643D02*
X10383928Y-11629929D01*
X10369643Y-11644214D01*
X10355357Y-11629929D01*
X10369643Y-11615643D01*
X10369643Y-11644214D01*
X10655357Y-11344214D02*
X10512500Y-11344214D01*
X10498214Y-11487071D01*
X10512500Y-11472786D01*
X10541071Y-11458500D01*
X10612500Y-11458500D01*
X10641071Y-11472786D01*
X10655357Y-11487071D01*
X10669643Y-11515643D01*
X10669643Y-11587071D01*
X10655357Y-11615643D01*
X10641071Y-11629929D01*
X10612500Y-11644214D01*
X10541071Y-11644214D01*
X10512500Y-11629929D01*
X10498214Y-11615643D01*
X10855357Y-11344214D02*
X10883928Y-11344214D01*
X10912500Y-11358500D01*
X10926786Y-11372786D01*
X10941071Y-11401357D01*
X10955357Y-11458500D01*
X10955357Y-11529929D01*
X10941071Y-11587071D01*
X10926786Y-11615643D01*
X10912500Y-11629929D01*
X10883928Y-11644214D01*
X10855357Y-11644214D01*
X10826786Y-11629929D01*
X10812500Y-11615643D01*
X10798214Y-11587071D01*
X10783928Y-11529929D01*
X10783928Y-11458500D01*
X10798214Y-11401357D01*
X10812500Y-11372786D01*
X10826786Y-11358500D01*
X10855357Y-11344214D01*
X11083928Y-11644214D02*
X11083928Y-11444214D01*
X11083928Y-11472786D02*
X11098214Y-11458500D01*
X11126786Y-11444214D01*
X11169643Y-11444214D01*
X11198214Y-11458500D01*
X11212500Y-11487071D01*
X11212500Y-11644214D01*
X11212500Y-11487071D02*
X11226786Y-11458500D01*
X11255357Y-11444214D01*
X11298214Y-11444214D01*
X11326786Y-11458500D01*
X11341071Y-11487071D01*
X11341071Y-11644214D01*
X11483928Y-11644214D02*
X11483928Y-11444214D01*
X11483928Y-11472786D02*
X11498214Y-11458500D01*
X11526786Y-11444214D01*
X11569643Y-11444214D01*
X11598214Y-11458500D01*
X11612500Y-11487071D01*
X11612500Y-11644214D01*
X11612500Y-11487071D02*
X11626786Y-11458500D01*
X11655357Y-11444214D01*
X11698214Y-11444214D01*
X11726786Y-11458500D01*
X11741071Y-11487071D01*
X11741071Y-11644214D01*
X12326786Y-11329929D02*
X12069643Y-11715643D01*
X12712500Y-11344214D02*
X12741071Y-11344214D01*
X12769643Y-11358500D01*
X12783928Y-11372786D01*
X12798214Y-11401357D01*
X12812500Y-11458500D01*
X12812500Y-11529929D01*
X12798214Y-11587071D01*
X12783928Y-11615643D01*
X12769643Y-11629929D01*
X12741071Y-11644214D01*
X12712500Y-11644214D01*
X12683928Y-11629929D01*
X12669643Y-11615643D01*
X12655357Y-11587071D01*
X12641071Y-11529929D01*
X12641071Y-11458500D01*
X12655357Y-11401357D01*
X12669643Y-11372786D01*
X12683928Y-11358500D01*
X12712500Y-11344214D01*
X12941071Y-11615643D02*
X12955357Y-11629929D01*
X12941071Y-11644214D01*
X12926786Y-11629929D01*
X12941071Y-11615643D01*
X12941071Y-11644214D01*
X13141071Y-11344214D02*
X13169643Y-11344214D01*
X13198214Y-11358500D01*
X13212500Y-11372786D01*
X13226786Y-11401357D01*
X13241071Y-11458500D01*
X13241071Y-11529929D01*
X13226786Y-11587071D01*
X13212500Y-11615643D01*
X13198214Y-11629929D01*
X13169643Y-11644214D01*
X13141071Y-11644214D01*
X13112500Y-11629929D01*
X13098214Y-11615643D01*
X13083928Y-11587071D01*
X13069643Y-11529929D01*
X13069643Y-11458500D01*
X13083928Y-11401357D01*
X13098214Y-11372786D01*
X13112500Y-11358500D01*
X13141071Y-11344214D01*
X13355357Y-11372786D02*
X13369643Y-11358500D01*
X13398214Y-11344214D01*
X13469643Y-11344214D01*
X13498214Y-11358500D01*
X13512500Y-11372786D01*
X13526786Y-11401357D01*
X13526786Y-11429929D01*
X13512500Y-11472786D01*
X13341071Y-11644214D01*
X13526786Y-11644214D01*
X13712500Y-11344214D02*
X13741071Y-11344214D01*
X13769643Y-11358500D01*
X13783928Y-11372786D01*
X13798214Y-11401357D01*
X13812500Y-11458500D01*
X13812500Y-11529929D01*
X13798214Y-11587071D01*
X13783928Y-11615643D01*
X13769643Y-11629929D01*
X13741071Y-11644214D01*
X13712500Y-11644214D01*
X13683928Y-11629929D01*
X13669643Y-11615643D01*
X13655357Y-11587071D01*
X13641071Y-11529929D01*
X13641071Y-11458500D01*
X13655357Y-11401357D01*
X13669643Y-11372786D01*
X13683928Y-11358500D01*
X13712500Y-11344214D01*
X13926786Y-11344214D02*
X13926786Y-11401357D01*
X14041071Y-11344214D02*
X14041071Y-11401357D01*
X14483928Y-11758500D02*
X14469643Y-11744214D01*
X14441071Y-11701357D01*
X14426786Y-11672786D01*
X14412500Y-11629929D01*
X14398214Y-11558500D01*
X14398214Y-11501357D01*
X14412500Y-11429929D01*
X14426786Y-11387071D01*
X14441071Y-11358500D01*
X14469643Y-11315643D01*
X14483928Y-11301357D01*
X14583928Y-11372786D02*
X14598214Y-11358500D01*
X14626786Y-11344214D01*
X14698214Y-11344214D01*
X14726786Y-11358500D01*
X14741071Y-11372786D01*
X14755357Y-11401357D01*
X14755357Y-11429929D01*
X14741071Y-11472786D01*
X14569643Y-11644214D01*
X14755357Y-11644214D01*
X15112500Y-11644214D02*
X15112500Y-11344214D01*
X15241071Y-11644214D02*
X15241071Y-11487071D01*
X15226786Y-11458500D01*
X15198214Y-11444214D01*
X15155357Y-11444214D01*
X15126786Y-11458500D01*
X15112500Y-11472786D01*
X15426786Y-11644214D02*
X15398214Y-11629929D01*
X15383928Y-11615643D01*
X15369643Y-11587071D01*
X15369643Y-11501357D01*
X15383928Y-11472786D01*
X15398214Y-11458500D01*
X15426786Y-11444214D01*
X15469643Y-11444214D01*
X15498214Y-11458500D01*
X15512500Y-11472786D01*
X15526786Y-11501357D01*
X15526786Y-11587071D01*
X15512500Y-11615643D01*
X15498214Y-11629929D01*
X15469643Y-11644214D01*
X15426786Y-11644214D01*
X15698214Y-11644214D02*
X15669643Y-11629929D01*
X15655357Y-11601357D01*
X15655357Y-11344214D01*
X15926786Y-11629929D02*
X15898214Y-11644214D01*
X15841071Y-11644214D01*
X15812500Y-11629929D01*
X15798214Y-11601357D01*
X15798214Y-11487071D01*
X15812500Y-11458500D01*
X15841071Y-11444214D01*
X15898214Y-11444214D01*
X15926786Y-11458500D01*
X15941071Y-11487071D01*
X15941071Y-11515643D01*
X15798214Y-11544214D01*
X16055357Y-11629929D02*
X16083928Y-11644214D01*
X16141071Y-11644214D01*
X16169643Y-11629929D01*
X16183928Y-11601357D01*
X16183928Y-11587071D01*
X16169643Y-11558500D01*
X16141071Y-11544214D01*
X16098214Y-11544214D01*
X16069643Y-11529929D01*
X16055357Y-11501357D01*
X16055357Y-11487071D01*
X16069643Y-11458500D01*
X16098214Y-11444214D01*
X16141071Y-11444214D01*
X16169643Y-11458500D01*
X16283928Y-11758500D02*
X16298214Y-11744214D01*
X16326786Y-11701357D01*
X16341071Y-11672786D01*
X16355357Y-11629929D01*
X16369643Y-11558500D01*
X16369643Y-11501357D01*
X16355357Y-11429929D01*
X16341071Y-11387071D01*
X16326786Y-11358500D01*
X16298214Y-11315643D01*
X16283928Y-11301357D01*
X9757500Y-11864500D02*
X9757500Y-11944500D01*
X9717500Y-11904500D02*
X9797500Y-11904500D01*
X10141071Y-11740214D02*
X10169643Y-11740214D01*
X10198214Y-11754500D01*
X10212500Y-11768786D01*
X10226786Y-11797357D01*
X10241071Y-11854500D01*
X10241071Y-11925929D01*
X10226786Y-11983071D01*
X10212500Y-12011643D01*
X10198214Y-12025929D01*
X10169643Y-12040214D01*
X10141071Y-12040214D01*
X10112500Y-12025929D01*
X10098214Y-12011643D01*
X10083928Y-11983071D01*
X10069643Y-11925929D01*
X10069643Y-11854500D01*
X10083928Y-11797357D01*
X10098214Y-11768786D01*
X10112500Y-11754500D01*
X10141071Y-11740214D01*
X10369643Y-12011643D02*
X10383928Y-12025929D01*
X10369643Y-12040214D01*
X10355357Y-12025929D01*
X10369643Y-12011643D01*
X10369643Y-12040214D01*
X10555357Y-11868786D02*
X10526786Y-11854500D01*
X10512500Y-11840214D01*
X10498214Y-11811643D01*
X10498214Y-11797357D01*
X10512500Y-11768786D01*
X10526786Y-11754500D01*
X10555357Y-11740214D01*
X10612500Y-11740214D01*
X10641071Y-11754500D01*
X10655357Y-11768786D01*
X10669643Y-11797357D01*
X10669643Y-11811643D01*
X10655357Y-11840214D01*
X10641071Y-11854500D01*
X10612500Y-11868786D01*
X10555357Y-11868786D01*
X10526786Y-11883071D01*
X10512500Y-11897357D01*
X10498214Y-11925929D01*
X10498214Y-11983071D01*
X10512500Y-12011643D01*
X10526786Y-12025929D01*
X10555357Y-12040214D01*
X10612500Y-12040214D01*
X10641071Y-12025929D01*
X10655357Y-12011643D01*
X10669643Y-11983071D01*
X10669643Y-11925929D01*
X10655357Y-11897357D01*
X10641071Y-11883071D01*
X10612500Y-11868786D01*
X10855357Y-11740214D02*
X10883928Y-11740214D01*
X10912500Y-11754500D01*
X10926786Y-11768786D01*
X10941071Y-11797357D01*
X10955357Y-11854500D01*
X10955357Y-11925929D01*
X10941071Y-11983071D01*
X10926786Y-12011643D01*
X10912500Y-12025929D01*
X10883928Y-12040214D01*
X10855357Y-12040214D01*
X10826786Y-12025929D01*
X10812500Y-12011643D01*
X10798214Y-11983071D01*
X10783928Y-11925929D01*
X10783928Y-11854500D01*
X10798214Y-11797357D01*
X10812500Y-11768786D01*
X10826786Y-11754500D01*
X10855357Y-11740214D01*
X11083928Y-12040214D02*
X11083928Y-11840214D01*
X11083928Y-11868786D02*
X11098214Y-11854500D01*
X11126786Y-11840214D01*
X11169643Y-11840214D01*
X11198214Y-11854500D01*
X11212500Y-11883071D01*
X11212500Y-12040214D01*
X11212500Y-11883071D02*
X11226786Y-11854500D01*
X11255357Y-11840214D01*
X11298214Y-11840214D01*
X11326786Y-11854500D01*
X11341071Y-11883071D01*
X11341071Y-12040214D01*
X11483928Y-12040214D02*
X11483928Y-11840214D01*
X11483928Y-11868786D02*
X11498214Y-11854500D01*
X11526786Y-11840214D01*
X11569643Y-11840214D01*
X11598214Y-11854500D01*
X11612500Y-11883071D01*
X11612500Y-12040214D01*
X11612500Y-11883071D02*
X11626786Y-11854500D01*
X11655357Y-11840214D01*
X11698214Y-11840214D01*
X11726786Y-11854500D01*
X11741071Y-11883071D01*
X11741071Y-12040214D01*
X12326786Y-11725929D02*
X12069643Y-12111643D01*
X12712500Y-11740214D02*
X12741071Y-11740214D01*
X12769643Y-11754500D01*
X12783928Y-11768786D01*
X12798214Y-11797357D01*
X12812500Y-11854500D01*
X12812500Y-11925929D01*
X12798214Y-11983071D01*
X12783928Y-12011643D01*
X12769643Y-12025929D01*
X12741071Y-12040214D01*
X12712500Y-12040214D01*
X12683928Y-12025929D01*
X12669643Y-12011643D01*
X12655357Y-11983071D01*
X12641071Y-11925929D01*
X12641071Y-11854500D01*
X12655357Y-11797357D01*
X12669643Y-11768786D01*
X12683928Y-11754500D01*
X12712500Y-11740214D01*
X12941071Y-12011643D02*
X12955357Y-12025929D01*
X12941071Y-12040214D01*
X12926786Y-12025929D01*
X12941071Y-12011643D01*
X12941071Y-12040214D01*
X13141071Y-11740214D02*
X13169643Y-11740214D01*
X13198214Y-11754500D01*
X13212500Y-11768786D01*
X13226786Y-11797357D01*
X13241071Y-11854500D01*
X13241071Y-11925929D01*
X13226786Y-11983071D01*
X13212500Y-12011643D01*
X13198214Y-12025929D01*
X13169643Y-12040214D01*
X13141071Y-12040214D01*
X13112500Y-12025929D01*
X13098214Y-12011643D01*
X13083928Y-11983071D01*
X13069643Y-11925929D01*
X13069643Y-11854500D01*
X13083928Y-11797357D01*
X13098214Y-11768786D01*
X13112500Y-11754500D01*
X13141071Y-11740214D01*
X13341071Y-11740214D02*
X13526786Y-11740214D01*
X13426786Y-11854500D01*
X13469643Y-11854500D01*
X13498214Y-11868786D01*
X13512500Y-11883071D01*
X13526786Y-11911643D01*
X13526786Y-11983071D01*
X13512500Y-12011643D01*
X13498214Y-12025929D01*
X13469643Y-12040214D01*
X13383928Y-12040214D01*
X13355357Y-12025929D01*
X13341071Y-12011643D01*
X13812500Y-12040214D02*
X13641071Y-12040214D01*
X13726786Y-12040214D02*
X13726786Y-11740214D01*
X13698214Y-11783071D01*
X13669643Y-11811643D01*
X13641071Y-11825929D01*
X13926786Y-11740214D02*
X13926786Y-11797357D01*
X14041071Y-11740214D02*
X14041071Y-11797357D01*
X14483928Y-12154500D02*
X14469643Y-12140214D01*
X14441071Y-12097357D01*
X14426786Y-12068786D01*
X14412500Y-12025929D01*
X14398214Y-11954500D01*
X14398214Y-11897357D01*
X14412500Y-11825929D01*
X14426786Y-11783071D01*
X14441071Y-11754500D01*
X14469643Y-11711643D01*
X14483928Y-11697357D01*
X14583928Y-11768786D02*
X14598214Y-11754500D01*
X14626786Y-11740214D01*
X14698214Y-11740214D01*
X14726786Y-11754500D01*
X14741071Y-11768786D01*
X14755357Y-11797357D01*
X14755357Y-11825929D01*
X14741071Y-11868786D01*
X14569643Y-12040214D01*
X14755357Y-12040214D01*
X15112500Y-12040214D02*
X15112500Y-11740214D01*
X15241071Y-12040214D02*
X15241071Y-11883071D01*
X15226786Y-11854500D01*
X15198214Y-11840214D01*
X15155357Y-11840214D01*
X15126786Y-11854500D01*
X15112500Y-11868786D01*
X15426786Y-12040214D02*
X15398214Y-12025929D01*
X15383928Y-12011643D01*
X15369643Y-11983071D01*
X15369643Y-11897357D01*
X15383928Y-11868786D01*
X15398214Y-11854500D01*
X15426786Y-11840214D01*
X15469643Y-11840214D01*
X15498214Y-11854500D01*
X15512500Y-11868786D01*
X15526786Y-11897357D01*
X15526786Y-11983071D01*
X15512500Y-12011643D01*
X15498214Y-12025929D01*
X15469643Y-12040214D01*
X15426786Y-12040214D01*
X15698214Y-12040214D02*
X15669643Y-12025929D01*
X15655357Y-11997357D01*
X15655357Y-11740214D01*
X15926786Y-12025929D02*
X15898214Y-12040214D01*
X15841071Y-12040214D01*
X15812500Y-12025929D01*
X15798214Y-11997357D01*
X15798214Y-11883071D01*
X15812500Y-11854500D01*
X15841071Y-11840214D01*
X15898214Y-11840214D01*
X15926786Y-11854500D01*
X15941071Y-11883071D01*
X15941071Y-11911643D01*
X15798214Y-11940214D01*
X16055357Y-12025929D02*
X16083928Y-12040214D01*
X16141071Y-12040214D01*
X16169643Y-12025929D01*
X16183928Y-11997357D01*
X16183928Y-11983071D01*
X16169643Y-11954500D01*
X16141071Y-11940214D01*
X16098214Y-11940214D01*
X16069643Y-11925929D01*
X16055357Y-11897357D01*
X16055357Y-11883071D01*
X16069643Y-11854500D01*
X16098214Y-11840214D01*
X16141071Y-11840214D01*
X16169643Y-11854500D01*
X16283928Y-12154500D02*
X16298214Y-12140214D01*
X16326786Y-12097357D01*
X16341071Y-12068786D01*
X16355357Y-12025929D01*
X16369643Y-11954500D01*
X16369643Y-11897357D01*
X16355357Y-11825929D01*
X16341071Y-11783071D01*
X16326786Y-11754500D01*
X16298214Y-11711643D01*
X16283928Y-11697357D01*
X9782856Y-12335856D02*
X9782856Y-12265144D01*
X9712144Y-12265144D01*
X9712144Y-12335856D01*
X9782856Y-12335856D01*
X10241071Y-12436214D02*
X10069643Y-12436214D01*
X10155357Y-12436214D02*
X10155357Y-12136214D01*
X10126786Y-12179071D01*
X10098214Y-12207643D01*
X10069643Y-12221929D01*
X10369643Y-12407643D02*
X10383928Y-12421929D01*
X10369643Y-12436214D01*
X10355357Y-12421929D01*
X10369643Y-12407643D01*
X10369643Y-12436214D01*
X10569643Y-12136214D02*
X10598214Y-12136214D01*
X10626786Y-12150500D01*
X10641071Y-12164786D01*
X10655357Y-12193357D01*
X10669643Y-12250500D01*
X10669643Y-12321929D01*
X10655357Y-12379071D01*
X10641071Y-12407643D01*
X10626786Y-12421929D01*
X10598214Y-12436214D01*
X10569643Y-12436214D01*
X10541071Y-12421929D01*
X10526786Y-12407643D01*
X10512500Y-12379071D01*
X10498214Y-12321929D01*
X10498214Y-12250500D01*
X10512500Y-12193357D01*
X10526786Y-12164786D01*
X10541071Y-12150500D01*
X10569643Y-12136214D01*
X10855357Y-12136214D02*
X10883928Y-12136214D01*
X10912500Y-12150500D01*
X10926786Y-12164786D01*
X10941071Y-12193357D01*
X10955357Y-12250500D01*
X10955357Y-12321929D01*
X10941071Y-12379071D01*
X10926786Y-12407643D01*
X10912500Y-12421929D01*
X10883928Y-12436214D01*
X10855357Y-12436214D01*
X10826786Y-12421929D01*
X10812500Y-12407643D01*
X10798214Y-12379071D01*
X10783928Y-12321929D01*
X10783928Y-12250500D01*
X10798214Y-12193357D01*
X10812500Y-12164786D01*
X10826786Y-12150500D01*
X10855357Y-12136214D01*
X11083928Y-12436214D02*
X11083928Y-12236214D01*
X11083928Y-12264786D02*
X11098214Y-12250500D01*
X11126786Y-12236214D01*
X11169643Y-12236214D01*
X11198214Y-12250500D01*
X11212500Y-12279071D01*
X11212500Y-12436214D01*
X11212500Y-12279071D02*
X11226786Y-12250500D01*
X11255357Y-12236214D01*
X11298214Y-12236214D01*
X11326786Y-12250500D01*
X11341071Y-12279071D01*
X11341071Y-12436214D01*
X11483928Y-12436214D02*
X11483928Y-12236214D01*
X11483928Y-12264786D02*
X11498214Y-12250500D01*
X11526786Y-12236214D01*
X11569643Y-12236214D01*
X11598214Y-12250500D01*
X11612500Y-12279071D01*
X11612500Y-12436214D01*
X11612500Y-12279071D02*
X11626786Y-12250500D01*
X11655357Y-12236214D01*
X11698214Y-12236214D01*
X11726786Y-12250500D01*
X11741071Y-12279071D01*
X11741071Y-12436214D01*
X12326786Y-12121929D02*
X12069643Y-12507643D01*
X12712500Y-12136214D02*
X12741071Y-12136214D01*
X12769643Y-12150500D01*
X12783928Y-12164786D01*
X12798214Y-12193357D01*
X12812500Y-12250500D01*
X12812500Y-12321929D01*
X12798214Y-12379071D01*
X12783928Y-12407643D01*
X12769643Y-12421929D01*
X12741071Y-12436214D01*
X12712500Y-12436214D01*
X12683928Y-12421929D01*
X12669643Y-12407643D01*
X12655357Y-12379071D01*
X12641071Y-12321929D01*
X12641071Y-12250500D01*
X12655357Y-12193357D01*
X12669643Y-12164786D01*
X12683928Y-12150500D01*
X12712500Y-12136214D01*
X12941071Y-12407643D02*
X12955357Y-12421929D01*
X12941071Y-12436214D01*
X12926786Y-12421929D01*
X12941071Y-12407643D01*
X12941071Y-12436214D01*
X13141071Y-12136214D02*
X13169643Y-12136214D01*
X13198214Y-12150500D01*
X13212500Y-12164786D01*
X13226786Y-12193357D01*
X13241071Y-12250500D01*
X13241071Y-12321929D01*
X13226786Y-12379071D01*
X13212500Y-12407643D01*
X13198214Y-12421929D01*
X13169643Y-12436214D01*
X13141071Y-12436214D01*
X13112500Y-12421929D01*
X13098214Y-12407643D01*
X13083928Y-12379071D01*
X13069643Y-12321929D01*
X13069643Y-12250500D01*
X13083928Y-12193357D01*
X13098214Y-12164786D01*
X13112500Y-12150500D01*
X13141071Y-12136214D01*
X13341071Y-12136214D02*
X13526786Y-12136214D01*
X13426786Y-12250500D01*
X13469643Y-12250500D01*
X13498214Y-12264786D01*
X13512500Y-12279071D01*
X13526786Y-12307643D01*
X13526786Y-12379071D01*
X13512500Y-12407643D01*
X13498214Y-12421929D01*
X13469643Y-12436214D01*
X13383928Y-12436214D01*
X13355357Y-12421929D01*
X13341071Y-12407643D01*
X13669643Y-12436214D02*
X13726786Y-12436214D01*
X13755357Y-12421929D01*
X13769643Y-12407643D01*
X13798214Y-12364786D01*
X13812500Y-12307643D01*
X13812500Y-12193357D01*
X13798214Y-12164786D01*
X13783928Y-12150500D01*
X13755357Y-12136214D01*
X13698214Y-12136214D01*
X13669643Y-12150500D01*
X13655357Y-12164786D01*
X13641071Y-12193357D01*
X13641071Y-12264786D01*
X13655357Y-12293357D01*
X13669643Y-12307643D01*
X13698214Y-12321929D01*
X13755357Y-12321929D01*
X13783928Y-12307643D01*
X13798214Y-12293357D01*
X13812500Y-12264786D01*
X13926786Y-12136214D02*
X13926786Y-12193357D01*
X14041071Y-12136214D02*
X14041071Y-12193357D01*
X14483928Y-12550500D02*
X14469643Y-12536214D01*
X14441071Y-12493357D01*
X14426786Y-12464786D01*
X14412500Y-12421929D01*
X14398214Y-12350500D01*
X14398214Y-12293357D01*
X14412500Y-12221929D01*
X14426786Y-12179071D01*
X14441071Y-12150500D01*
X14469643Y-12107643D01*
X14483928Y-12093357D01*
X14755357Y-12436214D02*
X14583928Y-12436214D01*
X14669643Y-12436214D02*
X14669643Y-12136214D01*
X14641071Y-12179071D01*
X14612500Y-12207643D01*
X14583928Y-12221929D01*
X14941071Y-12136214D02*
X14969643Y-12136214D01*
X14998214Y-12150500D01*
X15012500Y-12164786D01*
X15026786Y-12193357D01*
X15041071Y-12250500D01*
X15041071Y-12321929D01*
X15026786Y-12379071D01*
X15012500Y-12407643D01*
X14998214Y-12421929D01*
X14969643Y-12436214D01*
X14941071Y-12436214D01*
X14912500Y-12421929D01*
X14898214Y-12407643D01*
X14883928Y-12379071D01*
X14869643Y-12321929D01*
X14869643Y-12250500D01*
X14883928Y-12193357D01*
X14898214Y-12164786D01*
X14912500Y-12150500D01*
X14941071Y-12136214D01*
X15212500Y-12264786D02*
X15183928Y-12250500D01*
X15169643Y-12236214D01*
X15155357Y-12207643D01*
X15155357Y-12193357D01*
X15169643Y-12164786D01*
X15183928Y-12150500D01*
X15212500Y-12136214D01*
X15269643Y-12136214D01*
X15298214Y-12150500D01*
X15312500Y-12164786D01*
X15326786Y-12193357D01*
X15326786Y-12207643D01*
X15312500Y-12236214D01*
X15298214Y-12250500D01*
X15269643Y-12264786D01*
X15212500Y-12264786D01*
X15183928Y-12279071D01*
X15169643Y-12293357D01*
X15155357Y-12321929D01*
X15155357Y-12379071D01*
X15169643Y-12407643D01*
X15183928Y-12421929D01*
X15212500Y-12436214D01*
X15269643Y-12436214D01*
X15298214Y-12421929D01*
X15312500Y-12407643D01*
X15326786Y-12379071D01*
X15326786Y-12321929D01*
X15312500Y-12293357D01*
X15298214Y-12279071D01*
X15269643Y-12264786D01*
X15683928Y-12436214D02*
X15683928Y-12136214D01*
X15812500Y-12436214D02*
X15812500Y-12279071D01*
X15798214Y-12250500D01*
X15769643Y-12236214D01*
X15726786Y-12236214D01*
X15698214Y-12250500D01*
X15683928Y-12264786D01*
X15998214Y-12436214D02*
X15969643Y-12421929D01*
X15955357Y-12407643D01*
X15941071Y-12379071D01*
X15941071Y-12293357D01*
X15955357Y-12264786D01*
X15969643Y-12250500D01*
X15998214Y-12236214D01*
X16041071Y-12236214D01*
X16069643Y-12250500D01*
X16083928Y-12264786D01*
X16098214Y-12293357D01*
X16098214Y-12379071D01*
X16083928Y-12407643D01*
X16069643Y-12421929D01*
X16041071Y-12436214D01*
X15998214Y-12436214D01*
X16269643Y-12436214D02*
X16241071Y-12421929D01*
X16226786Y-12393357D01*
X16226786Y-12136214D01*
X16498214Y-12421929D02*
X16469643Y-12436214D01*
X16412500Y-12436214D01*
X16383928Y-12421929D01*
X16369643Y-12393357D01*
X16369643Y-12279071D01*
X16383928Y-12250500D01*
X16412500Y-12236214D01*
X16469643Y-12236214D01*
X16498214Y-12250500D01*
X16512500Y-12279071D01*
X16512500Y-12307643D01*
X16369643Y-12336214D01*
X16626786Y-12421929D02*
X16655357Y-12436214D01*
X16712500Y-12436214D01*
X16741071Y-12421929D01*
X16755357Y-12393357D01*
X16755357Y-12379071D01*
X16741071Y-12350500D01*
X16712500Y-12336214D01*
X16669643Y-12336214D01*
X16641071Y-12321929D01*
X16626786Y-12293357D01*
X16626786Y-12279071D01*
X16641071Y-12250500D01*
X16669643Y-12236214D01*
X16712500Y-12236214D01*
X16741071Y-12250500D01*
X16855357Y-12550500D02*
X16869643Y-12536214D01*
X16898214Y-12493357D01*
X16912500Y-12464786D01*
X16926786Y-12421929D01*
X16941071Y-12350500D01*
X16941071Y-12293357D01*
X16926786Y-12221929D01*
X16912500Y-12179071D01*
X16898214Y-12150500D01*
X16869643Y-12107643D01*
X16855357Y-12093357D01*
M02*
