G04 #@! TF.GenerationSoftware,KiCad,Pcbnew,(5.1.5)-3*
G04 #@! TF.CreationDate,2021-02-19T06:08:39+08:00*
G04 #@! TF.ProjectId,SMD810x_breakout,534d4438-3130-4785-9f62-7265616b6f75,rev?*
G04 #@! TF.SameCoordinates,Original*
G04 #@! TF.FileFunction,Legend,Top*
G04 #@! TF.FilePolarity,Positive*
%FSLAX46Y46*%
G04 Gerber Fmt 4.6, Leading zero omitted, Abs format (unit mm)*
G04 Created by KiCad (PCBNEW (5.1.5)-3) date 2021-02-19 06:08:39*
%MOMM*%
%LPD*%
G04 APERTURE LIST*
%ADD10C,0.120000*%
%ADD11C,0.150000*%
G04 APERTURE END LIST*
D10*
X108011179Y-94693200D02*
X107685621Y-94693200D01*
X108011179Y-93673200D02*
X107685621Y-93673200D01*
X108352779Y-87310000D02*
X108027221Y-87310000D01*
X108352779Y-88330000D02*
X108027221Y-88330000D01*
X107590000Y-66602779D02*
X107590000Y-66277221D01*
X108610000Y-66602779D02*
X108610000Y-66277221D01*
X109950000Y-95220000D02*
X109950000Y-97880000D01*
X117630000Y-95220000D02*
X109950000Y-95220000D01*
X117630000Y-97880000D02*
X109950000Y-97880000D01*
X117630000Y-95220000D02*
X117630000Y-97880000D01*
X118900000Y-95220000D02*
X120230000Y-95220000D01*
X120230000Y-95220000D02*
X120230000Y-96550000D01*
X111270000Y-86380000D02*
X111270000Y-85050000D01*
X112600000Y-86380000D02*
X111270000Y-86380000D01*
X113870000Y-86380000D02*
X113870000Y-83720000D01*
X113870000Y-83720000D02*
X121550000Y-83720000D01*
X113870000Y-86380000D02*
X121550000Y-86380000D01*
X121550000Y-86380000D02*
X121550000Y-83720000D01*
X105770000Y-87530000D02*
X103110000Y-87530000D01*
X105770000Y-95210000D02*
X105770000Y-87530000D01*
X103110000Y-95210000D02*
X103110000Y-87530000D01*
X105770000Y-95210000D02*
X103110000Y-95210000D01*
X105770000Y-96480000D02*
X105770000Y-97810000D01*
X105770000Y-97810000D02*
X104440000Y-97810000D01*
X105890000Y-64340000D02*
X100690000Y-64340000D01*
X105890000Y-82180000D02*
X105890000Y-64340000D01*
X100690000Y-84780000D02*
X100690000Y-64340000D01*
X105890000Y-82180000D02*
X103290000Y-82180000D01*
X103290000Y-82180000D02*
X103290000Y-84780000D01*
X103290000Y-84780000D02*
X100690000Y-84780000D01*
X105890000Y-83450000D02*
X105890000Y-84780000D01*
X105890000Y-84780000D02*
X104560000Y-84780000D01*
X145550000Y-81610000D02*
X145550000Y-82940000D01*
X144220000Y-81610000D02*
X145550000Y-81610000D01*
X145550000Y-84210000D02*
X145550000Y-86810000D01*
X142950000Y-84210000D02*
X145550000Y-84210000D01*
X142950000Y-81610000D02*
X142950000Y-84210000D01*
X145550000Y-86810000D02*
X125110000Y-86810000D01*
X142950000Y-81610000D02*
X125110000Y-81610000D01*
X125110000Y-81610000D02*
X125110000Y-86810000D01*
X138200000Y-91490000D02*
X138200000Y-91250000D01*
X138200000Y-91250000D02*
X142150000Y-91250000D01*
X138210000Y-94050000D02*
X138210000Y-93770000D01*
X142160000Y-94050000D02*
X138210000Y-94050000D01*
X142280000Y-91500000D02*
X142280000Y-91250000D01*
X142280000Y-91250000D02*
X142160000Y-91250000D01*
X142300000Y-93800000D02*
X142300000Y-94050000D01*
X142300000Y-94050000D02*
X142170000Y-94050000D01*
X110500000Y-64791000D02*
X121295000Y-64791000D01*
X110500000Y-61990000D02*
X121295000Y-61997000D01*
X121295000Y-76221000D02*
X121295000Y-79777000D01*
X121295000Y-61997000D02*
X121295000Y-76221000D01*
X121295000Y-79777000D02*
X110500000Y-79777000D01*
X110500000Y-61997000D02*
X110500000Y-79777000D01*
X119690000Y-90340000D02*
X118760000Y-90340000D01*
X116530000Y-90340000D02*
X117460000Y-90340000D01*
X116530000Y-90340000D02*
X116530000Y-92500000D01*
X119690000Y-90340000D02*
X119690000Y-91800000D01*
X158430000Y-77537221D02*
X158430000Y-77862779D01*
X157410000Y-77537221D02*
X157410000Y-77862779D01*
X162322779Y-81910000D02*
X161997221Y-81910000D01*
X162322779Y-82930000D02*
X161997221Y-82930000D01*
X145170000Y-69462779D02*
X145170000Y-69137221D01*
X146190000Y-69462779D02*
X146190000Y-69137221D01*
X156342779Y-84860000D02*
X156017221Y-84860000D01*
X156342779Y-83840000D02*
X156017221Y-83840000D01*
X159207221Y-84810000D02*
X159532779Y-84810000D01*
X159207221Y-83790000D02*
X159532779Y-83790000D01*
X178580000Y-66740000D02*
X179910000Y-66740000D01*
X178580000Y-68070000D02*
X178580000Y-66740000D01*
X181180000Y-66740000D02*
X183780000Y-66740000D01*
X181180000Y-69340000D02*
X181180000Y-66740000D01*
X178580000Y-69340000D02*
X181180000Y-69340000D01*
X183780000Y-66740000D02*
X183780000Y-87180000D01*
X178580000Y-69340000D02*
X178580000Y-87180000D01*
X178580000Y-87180000D02*
X183780000Y-87180000D01*
X187580000Y-66430000D02*
X188910000Y-66430000D01*
X187580000Y-67760000D02*
X187580000Y-66430000D01*
X190180000Y-66430000D02*
X192780000Y-66430000D01*
X190180000Y-69030000D02*
X190180000Y-66430000D01*
X187580000Y-69030000D02*
X190180000Y-69030000D01*
X192780000Y-66430000D02*
X192780000Y-86870000D01*
X187580000Y-69030000D02*
X187580000Y-86870000D01*
X187580000Y-86870000D02*
X192780000Y-86870000D01*
X181990000Y-98620000D02*
X181990000Y-93420000D01*
X164150000Y-98620000D02*
X181990000Y-98620000D01*
X161550000Y-93420000D02*
X181990000Y-93420000D01*
X164150000Y-98620000D02*
X164150000Y-96020000D01*
X164150000Y-96020000D02*
X161550000Y-96020000D01*
X161550000Y-96020000D02*
X161550000Y-93420000D01*
X162880000Y-98620000D02*
X161550000Y-98620000D01*
X161550000Y-98620000D02*
X161550000Y-97290000D01*
X147600000Y-86040000D02*
X152800000Y-86040000D01*
X147600000Y-68200000D02*
X147600000Y-86040000D01*
X152800000Y-65600000D02*
X152800000Y-86040000D01*
X147600000Y-68200000D02*
X150200000Y-68200000D01*
X150200000Y-68200000D02*
X150200000Y-65600000D01*
X150200000Y-65600000D02*
X152800000Y-65600000D01*
X147600000Y-66930000D02*
X147600000Y-65600000D01*
X147600000Y-65600000D02*
X148930000Y-65600000D01*
X113160000Y-89670000D02*
X113160000Y-92870000D01*
X113160000Y-89670000D02*
X110060600Y-89669800D01*
X110060600Y-89669800D02*
X110060600Y-92870200D01*
X110060600Y-92870200D02*
X113160000Y-92870000D01*
X109847641Y-89492000D02*
G75*
G03X109847641Y-89492000I-193441J0D01*
G01*
X125570000Y-77740800D02*
X143908800Y-77740800D01*
X143908800Y-77740800D02*
X143908800Y-61738800D01*
X143908800Y-61738800D02*
X125519200Y-61738800D01*
X125519200Y-61738800D02*
X125519200Y-77740800D01*
X125519200Y-77740800D02*
X125570000Y-77740800D01*
X126758879Y-78756800D02*
G75*
G03X126758879Y-78756800I-325279J0D01*
G01*
X143908800Y-66996600D02*
X125519200Y-66996600D01*
X160380000Y-77150000D02*
X160380000Y-79650000D01*
X160380000Y-79650000D02*
X171780000Y-79650000D01*
X171780000Y-79650000D02*
X171780000Y-77050000D01*
X171780000Y-77050000D02*
X171780000Y-61150000D01*
X160380000Y-77150000D02*
X160380000Y-61150000D01*
X160380000Y-61150000D02*
X171780000Y-61150000D01*
X160380000Y-65476800D02*
X171780000Y-65476800D01*
X168859000Y-67839000D02*
G75*
G03X168859000Y-67839000I-1168400J0D01*
G01*
X155810000Y-89460000D02*
X155810000Y-100360000D01*
X155810000Y-100360000D02*
X159210000Y-100360000D01*
X159210000Y-100360000D02*
X159210000Y-89460000D01*
X159210000Y-89460000D02*
X155810000Y-89460000D01*
X156910000Y-89460000D02*
X156240000Y-88060000D01*
X156240000Y-88060000D02*
X156240000Y-87360000D01*
X158110000Y-89460000D02*
X158780000Y-88060000D01*
X158780000Y-88060000D02*
X158780000Y-87360000D01*
X143162779Y-88720000D02*
X142837221Y-88720000D01*
X143162779Y-87700000D02*
X142837221Y-87700000D01*
X139477221Y-88740000D02*
X139802779Y-88740000D01*
X139477221Y-87720000D02*
X139802779Y-87720000D01*
X143182779Y-90450000D02*
X142857221Y-90450000D01*
X143182779Y-89430000D02*
X142857221Y-89430000D01*
X126722779Y-80650000D02*
X126397221Y-80650000D01*
X126722779Y-79630000D02*
X126397221Y-79630000D01*
X98790000Y-71312779D02*
X98790000Y-70987221D01*
X99810000Y-71312779D02*
X99810000Y-70987221D01*
D11*
X107834133Y-93117942D02*
X107786514Y-93165561D01*
X107643657Y-93213180D01*
X107548419Y-93213180D01*
X107405561Y-93165561D01*
X107310323Y-93070323D01*
X107262704Y-92975085D01*
X107215085Y-92784609D01*
X107215085Y-92641752D01*
X107262704Y-92451276D01*
X107310323Y-92356038D01*
X107405561Y-92260800D01*
X107548419Y-92213180D01*
X107643657Y-92213180D01*
X107786514Y-92260800D01*
X107834133Y-92308419D01*
X108786514Y-93213180D02*
X108215085Y-93213180D01*
X108500800Y-93213180D02*
X108500800Y-92213180D01*
X108405561Y-92356038D01*
X108310323Y-92451276D01*
X108215085Y-92498895D01*
X107203333Y-86687142D02*
X107155714Y-86734761D01*
X107012857Y-86782380D01*
X106917619Y-86782380D01*
X106774761Y-86734761D01*
X106679523Y-86639523D01*
X106631904Y-86544285D01*
X106584285Y-86353809D01*
X106584285Y-86210952D01*
X106631904Y-86020476D01*
X106679523Y-85925238D01*
X106774761Y-85830000D01*
X106917619Y-85782380D01*
X107012857Y-85782380D01*
X107155714Y-85830000D01*
X107203333Y-85877619D01*
X107584285Y-85877619D02*
X107631904Y-85830000D01*
X107727142Y-85782380D01*
X107965238Y-85782380D01*
X108060476Y-85830000D01*
X108108095Y-85877619D01*
X108155714Y-85972857D01*
X108155714Y-86068095D01*
X108108095Y-86210952D01*
X107536666Y-86782380D01*
X108155714Y-86782380D01*
X107933333Y-64197142D02*
X107885714Y-64244761D01*
X107742857Y-64292380D01*
X107647619Y-64292380D01*
X107504761Y-64244761D01*
X107409523Y-64149523D01*
X107361904Y-64054285D01*
X107314285Y-63863809D01*
X107314285Y-63720952D01*
X107361904Y-63530476D01*
X107409523Y-63435238D01*
X107504761Y-63340000D01*
X107647619Y-63292380D01*
X107742857Y-63292380D01*
X107885714Y-63340000D01*
X107933333Y-63387619D01*
X108266666Y-63292380D02*
X108885714Y-63292380D01*
X108552380Y-63673333D01*
X108695238Y-63673333D01*
X108790476Y-63720952D01*
X108838095Y-63768571D01*
X108885714Y-63863809D01*
X108885714Y-64101904D01*
X108838095Y-64197142D01*
X108790476Y-64244761D01*
X108695238Y-64292380D01*
X108409523Y-64292380D01*
X108314285Y-64244761D01*
X108266666Y-64197142D01*
X108246666Y-96082380D02*
X108246666Y-96796666D01*
X108199047Y-96939523D01*
X108103809Y-97034761D01*
X107960952Y-97082380D01*
X107865714Y-97082380D01*
X109246666Y-97082380D02*
X108675238Y-97082380D01*
X108960952Y-97082380D02*
X108960952Y-96082380D01*
X108865714Y-96225238D01*
X108770476Y-96320476D01*
X108675238Y-96368095D01*
X111226666Y-81842380D02*
X111226666Y-82556666D01*
X111179047Y-82699523D01*
X111083809Y-82794761D01*
X110940952Y-82842380D01*
X110845714Y-82842380D01*
X111655238Y-81937619D02*
X111702857Y-81890000D01*
X111798095Y-81842380D01*
X112036190Y-81842380D01*
X112131428Y-81890000D01*
X112179047Y-81937619D01*
X112226666Y-82032857D01*
X112226666Y-82128095D01*
X112179047Y-82270952D01*
X111607619Y-82842380D01*
X112226666Y-82842380D01*
X101076666Y-86972380D02*
X101076666Y-87686666D01*
X101029047Y-87829523D01*
X100933809Y-87924761D01*
X100790952Y-87972380D01*
X100695714Y-87972380D01*
X101457619Y-86972380D02*
X102076666Y-86972380D01*
X101743333Y-87353333D01*
X101886190Y-87353333D01*
X101981428Y-87400952D01*
X102029047Y-87448571D01*
X102076666Y-87543809D01*
X102076666Y-87781904D01*
X102029047Y-87877142D01*
X101981428Y-87924761D01*
X101886190Y-87972380D01*
X101600476Y-87972380D01*
X101505238Y-87924761D01*
X101457619Y-87877142D01*
X102946666Y-62452380D02*
X102946666Y-63166666D01*
X102899047Y-63309523D01*
X102803809Y-63404761D01*
X102660952Y-63452380D01*
X102565714Y-63452380D01*
X103851428Y-62785714D02*
X103851428Y-63452380D01*
X103613333Y-62404761D02*
X103375238Y-63119047D01*
X103994285Y-63119047D01*
X125526666Y-87742380D02*
X125526666Y-88456666D01*
X125479047Y-88599523D01*
X125383809Y-88694761D01*
X125240952Y-88742380D01*
X125145714Y-88742380D01*
X126479047Y-87742380D02*
X126002857Y-87742380D01*
X125955238Y-88218571D01*
X126002857Y-88170952D01*
X126098095Y-88123333D01*
X126336190Y-88123333D01*
X126431428Y-88170952D01*
X126479047Y-88218571D01*
X126526666Y-88313809D01*
X126526666Y-88551904D01*
X126479047Y-88647142D01*
X126431428Y-88694761D01*
X126336190Y-88742380D01*
X126098095Y-88742380D01*
X126002857Y-88694761D01*
X125955238Y-88647142D01*
X134526666Y-93314761D02*
X134669523Y-93362380D01*
X134907619Y-93362380D01*
X135002857Y-93314761D01*
X135050476Y-93267142D01*
X135098095Y-93171904D01*
X135098095Y-93076666D01*
X135050476Y-92981428D01*
X135002857Y-92933809D01*
X134907619Y-92886190D01*
X134717142Y-92838571D01*
X134621904Y-92790952D01*
X134574285Y-92743333D01*
X134526666Y-92648095D01*
X134526666Y-92552857D01*
X134574285Y-92457619D01*
X134621904Y-92410000D01*
X134717142Y-92362380D01*
X134955238Y-92362380D01*
X135098095Y-92410000D01*
X135431428Y-92362380D02*
X135669523Y-93362380D01*
X135860000Y-92648095D01*
X136050476Y-93362380D01*
X136288571Y-92362380D01*
X137193333Y-93362380D02*
X136621904Y-93362380D01*
X136907619Y-93362380D02*
X136907619Y-92362380D01*
X136812380Y-92505238D01*
X136717142Y-92600476D01*
X136621904Y-92648095D01*
X122098095Y-62372380D02*
X122098095Y-63181904D01*
X122145714Y-63277142D01*
X122193333Y-63324761D01*
X122288571Y-63372380D01*
X122479047Y-63372380D01*
X122574285Y-63324761D01*
X122621904Y-63277142D01*
X122669523Y-63181904D01*
X122669523Y-62372380D01*
X123669523Y-63372380D02*
X123098095Y-63372380D01*
X123383809Y-63372380D02*
X123383809Y-62372380D01*
X123288571Y-62515238D01*
X123193333Y-62610476D01*
X123098095Y-62658095D01*
X111187142Y-63126666D02*
X111663333Y-63126666D01*
X111091904Y-63412380D02*
X111425238Y-62412380D01*
X111758571Y-63412380D01*
X112091904Y-63412380D02*
X112091904Y-62412380D01*
X112663333Y-63412380D01*
X112663333Y-62412380D01*
X112996666Y-62412380D02*
X113568095Y-62412380D01*
X113282380Y-63412380D02*
X113282380Y-62412380D01*
X116058095Y-88012380D02*
X116058095Y-88821904D01*
X116105714Y-88917142D01*
X116153333Y-88964761D01*
X116248571Y-89012380D01*
X116439047Y-89012380D01*
X116534285Y-88964761D01*
X116581904Y-88917142D01*
X116629523Y-88821904D01*
X116629523Y-88012380D01*
X117058095Y-88107619D02*
X117105714Y-88060000D01*
X117200952Y-88012380D01*
X117439047Y-88012380D01*
X117534285Y-88060000D01*
X117581904Y-88107619D01*
X117629523Y-88202857D01*
X117629523Y-88298095D01*
X117581904Y-88440952D01*
X117010476Y-89012380D01*
X117629523Y-89012380D01*
X157803333Y-75447142D02*
X157755714Y-75494761D01*
X157612857Y-75542380D01*
X157517619Y-75542380D01*
X157374761Y-75494761D01*
X157279523Y-75399523D01*
X157231904Y-75304285D01*
X157184285Y-75113809D01*
X157184285Y-74970952D01*
X157231904Y-74780476D01*
X157279523Y-74685238D01*
X157374761Y-74590000D01*
X157517619Y-74542380D01*
X157612857Y-74542380D01*
X157755714Y-74590000D01*
X157803333Y-74637619D01*
X158660476Y-74875714D02*
X158660476Y-75542380D01*
X158422380Y-74494761D02*
X158184285Y-75209047D01*
X158803333Y-75209047D01*
X161993333Y-84207142D02*
X161945714Y-84254761D01*
X161802857Y-84302380D01*
X161707619Y-84302380D01*
X161564761Y-84254761D01*
X161469523Y-84159523D01*
X161421904Y-84064285D01*
X161374285Y-83873809D01*
X161374285Y-83730952D01*
X161421904Y-83540476D01*
X161469523Y-83445238D01*
X161564761Y-83350000D01*
X161707619Y-83302380D01*
X161802857Y-83302380D01*
X161945714Y-83350000D01*
X161993333Y-83397619D01*
X162898095Y-83302380D02*
X162421904Y-83302380D01*
X162374285Y-83778571D01*
X162421904Y-83730952D01*
X162517142Y-83683333D01*
X162755238Y-83683333D01*
X162850476Y-83730952D01*
X162898095Y-83778571D01*
X162945714Y-83873809D01*
X162945714Y-84111904D01*
X162898095Y-84207142D01*
X162850476Y-84254761D01*
X162755238Y-84302380D01*
X162517142Y-84302380D01*
X162421904Y-84254761D01*
X162374285Y-84207142D01*
X145613333Y-67187142D02*
X145565714Y-67234761D01*
X145422857Y-67282380D01*
X145327619Y-67282380D01*
X145184761Y-67234761D01*
X145089523Y-67139523D01*
X145041904Y-67044285D01*
X144994285Y-66853809D01*
X144994285Y-66710952D01*
X145041904Y-66520476D01*
X145089523Y-66425238D01*
X145184761Y-66330000D01*
X145327619Y-66282380D01*
X145422857Y-66282380D01*
X145565714Y-66330000D01*
X145613333Y-66377619D01*
X146470476Y-66282380D02*
X146280000Y-66282380D01*
X146184761Y-66330000D01*
X146137142Y-66377619D01*
X146041904Y-66520476D01*
X145994285Y-66710952D01*
X145994285Y-67091904D01*
X146041904Y-67187142D01*
X146089523Y-67234761D01*
X146184761Y-67282380D01*
X146375238Y-67282380D01*
X146470476Y-67234761D01*
X146518095Y-67187142D01*
X146565714Y-67091904D01*
X146565714Y-66853809D01*
X146518095Y-66758571D01*
X146470476Y-66710952D01*
X146375238Y-66663333D01*
X146184761Y-66663333D01*
X146089523Y-66710952D01*
X146041904Y-66758571D01*
X145994285Y-66853809D01*
X156153333Y-83137142D02*
X156105714Y-83184761D01*
X155962857Y-83232380D01*
X155867619Y-83232380D01*
X155724761Y-83184761D01*
X155629523Y-83089523D01*
X155581904Y-82994285D01*
X155534285Y-82803809D01*
X155534285Y-82660952D01*
X155581904Y-82470476D01*
X155629523Y-82375238D01*
X155724761Y-82280000D01*
X155867619Y-82232380D01*
X155962857Y-82232380D01*
X156105714Y-82280000D01*
X156153333Y-82327619D01*
X156486666Y-82232380D02*
X157153333Y-82232380D01*
X156724761Y-83232380D01*
X159223333Y-83047142D02*
X159175714Y-83094761D01*
X159032857Y-83142380D01*
X158937619Y-83142380D01*
X158794761Y-83094761D01*
X158699523Y-82999523D01*
X158651904Y-82904285D01*
X158604285Y-82713809D01*
X158604285Y-82570952D01*
X158651904Y-82380476D01*
X158699523Y-82285238D01*
X158794761Y-82190000D01*
X158937619Y-82142380D01*
X159032857Y-82142380D01*
X159175714Y-82190000D01*
X159223333Y-82237619D01*
X159794761Y-82570952D02*
X159699523Y-82523333D01*
X159651904Y-82475714D01*
X159604285Y-82380476D01*
X159604285Y-82332857D01*
X159651904Y-82237619D01*
X159699523Y-82190000D01*
X159794761Y-82142380D01*
X159985238Y-82142380D01*
X160080476Y-82190000D01*
X160128095Y-82237619D01*
X160175714Y-82332857D01*
X160175714Y-82380476D01*
X160128095Y-82475714D01*
X160080476Y-82523333D01*
X159985238Y-82570952D01*
X159794761Y-82570952D01*
X159699523Y-82618571D01*
X159651904Y-82666190D01*
X159604285Y-82761428D01*
X159604285Y-82951904D01*
X159651904Y-83047142D01*
X159699523Y-83094761D01*
X159794761Y-83142380D01*
X159985238Y-83142380D01*
X160080476Y-83094761D01*
X160128095Y-83047142D01*
X160175714Y-82951904D01*
X160175714Y-82761428D01*
X160128095Y-82666190D01*
X160080476Y-82618571D01*
X159985238Y-82570952D01*
X180846666Y-65192380D02*
X180846666Y-65906666D01*
X180799047Y-66049523D01*
X180703809Y-66144761D01*
X180560952Y-66192380D01*
X180465714Y-66192380D01*
X181751428Y-65192380D02*
X181560952Y-65192380D01*
X181465714Y-65240000D01*
X181418095Y-65287619D01*
X181322857Y-65430476D01*
X181275238Y-65620952D01*
X181275238Y-66001904D01*
X181322857Y-66097142D01*
X181370476Y-66144761D01*
X181465714Y-66192380D01*
X181656190Y-66192380D01*
X181751428Y-66144761D01*
X181799047Y-66097142D01*
X181846666Y-66001904D01*
X181846666Y-65763809D01*
X181799047Y-65668571D01*
X181751428Y-65620952D01*
X181656190Y-65573333D01*
X181465714Y-65573333D01*
X181370476Y-65620952D01*
X181322857Y-65668571D01*
X181275238Y-65763809D01*
X189846666Y-64882380D02*
X189846666Y-65596666D01*
X189799047Y-65739523D01*
X189703809Y-65834761D01*
X189560952Y-65882380D01*
X189465714Y-65882380D01*
X190227619Y-64882380D02*
X190894285Y-64882380D01*
X190465714Y-65882380D01*
X161866666Y-91392380D02*
X161866666Y-92106666D01*
X161819047Y-92249523D01*
X161723809Y-92344761D01*
X161580952Y-92392380D01*
X161485714Y-92392380D01*
X162485714Y-91820952D02*
X162390476Y-91773333D01*
X162342857Y-91725714D01*
X162295238Y-91630476D01*
X162295238Y-91582857D01*
X162342857Y-91487619D01*
X162390476Y-91440000D01*
X162485714Y-91392380D01*
X162676190Y-91392380D01*
X162771428Y-91440000D01*
X162819047Y-91487619D01*
X162866666Y-91582857D01*
X162866666Y-91630476D01*
X162819047Y-91725714D01*
X162771428Y-91773333D01*
X162676190Y-91820952D01*
X162485714Y-91820952D01*
X162390476Y-91868571D01*
X162342857Y-91916190D01*
X162295238Y-92011428D01*
X162295238Y-92201904D01*
X162342857Y-92297142D01*
X162390476Y-92344761D01*
X162485714Y-92392380D01*
X162676190Y-92392380D01*
X162771428Y-92344761D01*
X162819047Y-92297142D01*
X162866666Y-92201904D01*
X162866666Y-92011428D01*
X162819047Y-91916190D01*
X162771428Y-91868571D01*
X162676190Y-91820952D01*
X149976666Y-63542380D02*
X149976666Y-64256666D01*
X149929047Y-64399523D01*
X149833809Y-64494761D01*
X149690952Y-64542380D01*
X149595714Y-64542380D01*
X150500476Y-64542380D02*
X150690952Y-64542380D01*
X150786190Y-64494761D01*
X150833809Y-64447142D01*
X150929047Y-64304285D01*
X150976666Y-64113809D01*
X150976666Y-63732857D01*
X150929047Y-63637619D01*
X150881428Y-63590000D01*
X150786190Y-63542380D01*
X150595714Y-63542380D01*
X150500476Y-63590000D01*
X150452857Y-63637619D01*
X150405238Y-63732857D01*
X150405238Y-63970952D01*
X150452857Y-64066190D01*
X150500476Y-64113809D01*
X150595714Y-64161428D01*
X150786190Y-64161428D01*
X150881428Y-64113809D01*
X150929047Y-64066190D01*
X150976666Y-63970952D01*
X110148095Y-88342380D02*
X110148095Y-89151904D01*
X110195714Y-89247142D01*
X110243333Y-89294761D01*
X110338571Y-89342380D01*
X110529047Y-89342380D01*
X110624285Y-89294761D01*
X110671904Y-89247142D01*
X110719523Y-89151904D01*
X110719523Y-88342380D01*
X111100476Y-88342380D02*
X111719523Y-88342380D01*
X111386190Y-88723333D01*
X111529047Y-88723333D01*
X111624285Y-88770952D01*
X111671904Y-88818571D01*
X111719523Y-88913809D01*
X111719523Y-89151904D01*
X111671904Y-89247142D01*
X111624285Y-89294761D01*
X111529047Y-89342380D01*
X111243333Y-89342380D01*
X111148095Y-89294761D01*
X111100476Y-89247142D01*
X145048095Y-62092380D02*
X145048095Y-62901904D01*
X145095714Y-62997142D01*
X145143333Y-63044761D01*
X145238571Y-63092380D01*
X145429047Y-63092380D01*
X145524285Y-63044761D01*
X145571904Y-62997142D01*
X145619523Y-62901904D01*
X145619523Y-62092380D01*
X146524285Y-62425714D02*
X146524285Y-63092380D01*
X146286190Y-62044761D02*
X146048095Y-62759047D01*
X146667142Y-62759047D01*
X131087142Y-63380000D02*
X131801428Y-63380000D01*
X130944285Y-63808571D02*
X131444285Y-62308571D01*
X131944285Y-63808571D01*
X132444285Y-62808571D02*
X132444285Y-63808571D01*
X132444285Y-62951428D02*
X132515714Y-62880000D01*
X132658571Y-62808571D01*
X132872857Y-62808571D01*
X133015714Y-62880000D01*
X133087142Y-63022857D01*
X133087142Y-63808571D01*
X133587142Y-62808571D02*
X134158571Y-62808571D01*
X133801428Y-62308571D02*
X133801428Y-63594285D01*
X133872857Y-63737142D01*
X134015714Y-63808571D01*
X134158571Y-63808571D01*
X135230000Y-63737142D02*
X135087142Y-63808571D01*
X134801428Y-63808571D01*
X134658571Y-63737142D01*
X134587142Y-63594285D01*
X134587142Y-63022857D01*
X134658571Y-62880000D01*
X134801428Y-62808571D01*
X135087142Y-62808571D01*
X135230000Y-62880000D01*
X135301428Y-63022857D01*
X135301428Y-63165714D01*
X134587142Y-63308571D01*
X135944285Y-62808571D02*
X135944285Y-63808571D01*
X135944285Y-62951428D02*
X136015714Y-62880000D01*
X136158571Y-62808571D01*
X136372857Y-62808571D01*
X136515714Y-62880000D01*
X136587142Y-63022857D01*
X136587142Y-63808571D01*
X137301428Y-62808571D02*
X137301428Y-63808571D01*
X137301428Y-62951428D02*
X137372857Y-62880000D01*
X137515714Y-62808571D01*
X137730000Y-62808571D01*
X137872857Y-62880000D01*
X137944285Y-63022857D01*
X137944285Y-63808571D01*
X139301428Y-63808571D02*
X139301428Y-63022857D01*
X139230000Y-62880000D01*
X139087142Y-62808571D01*
X138801428Y-62808571D01*
X138658571Y-62880000D01*
X139301428Y-63737142D02*
X139158571Y-63808571D01*
X138801428Y-63808571D01*
X138658571Y-63737142D01*
X138587142Y-63594285D01*
X138587142Y-63451428D01*
X138658571Y-63308571D01*
X138801428Y-63237142D01*
X139158571Y-63237142D01*
X139301428Y-63165714D01*
X173258095Y-61432380D02*
X173258095Y-62241904D01*
X173305714Y-62337142D01*
X173353333Y-62384761D01*
X173448571Y-62432380D01*
X173639047Y-62432380D01*
X173734285Y-62384761D01*
X173781904Y-62337142D01*
X173829523Y-62241904D01*
X173829523Y-61432380D01*
X174781904Y-61432380D02*
X174305714Y-61432380D01*
X174258095Y-61908571D01*
X174305714Y-61860952D01*
X174400952Y-61813333D01*
X174639047Y-61813333D01*
X174734285Y-61860952D01*
X174781904Y-61908571D01*
X174829523Y-62003809D01*
X174829523Y-62241904D01*
X174781904Y-62337142D01*
X174734285Y-62384761D01*
X174639047Y-62432380D01*
X174400952Y-62432380D01*
X174305714Y-62384761D01*
X174258095Y-62337142D01*
X163798095Y-62466666D02*
X164274285Y-62466666D01*
X163702857Y-62752380D02*
X164036190Y-61752380D01*
X164369523Y-62752380D01*
X164702857Y-62085714D02*
X164702857Y-62752380D01*
X164702857Y-62180952D02*
X164750476Y-62133333D01*
X164845714Y-62085714D01*
X164988571Y-62085714D01*
X165083809Y-62133333D01*
X165131428Y-62228571D01*
X165131428Y-62752380D01*
X165464761Y-62085714D02*
X165845714Y-62085714D01*
X165607619Y-61752380D02*
X165607619Y-62609523D01*
X165655238Y-62704761D01*
X165750476Y-62752380D01*
X165845714Y-62752380D01*
X166560000Y-62704761D02*
X166464761Y-62752380D01*
X166274285Y-62752380D01*
X166179047Y-62704761D01*
X166131428Y-62609523D01*
X166131428Y-62228571D01*
X166179047Y-62133333D01*
X166274285Y-62085714D01*
X166464761Y-62085714D01*
X166560000Y-62133333D01*
X166607619Y-62228571D01*
X166607619Y-62323809D01*
X166131428Y-62419047D01*
X167036190Y-62085714D02*
X167036190Y-62752380D01*
X167036190Y-62180952D02*
X167083809Y-62133333D01*
X167179047Y-62085714D01*
X167321904Y-62085714D01*
X167417142Y-62133333D01*
X167464761Y-62228571D01*
X167464761Y-62752380D01*
X167940952Y-62085714D02*
X167940952Y-62752380D01*
X167940952Y-62180952D02*
X167988571Y-62133333D01*
X168083809Y-62085714D01*
X168226666Y-62085714D01*
X168321904Y-62133333D01*
X168369523Y-62228571D01*
X168369523Y-62752380D01*
X169274285Y-62752380D02*
X169274285Y-62228571D01*
X169226666Y-62133333D01*
X169131428Y-62085714D01*
X168940952Y-62085714D01*
X168845714Y-62133333D01*
X169274285Y-62704761D02*
X169179047Y-62752380D01*
X168940952Y-62752380D01*
X168845714Y-62704761D01*
X168798095Y-62609523D01*
X168798095Y-62514285D01*
X168845714Y-62419047D01*
X168940952Y-62371428D01*
X169179047Y-62371428D01*
X169274285Y-62323809D01*
X134605714Y-66092380D02*
X134605714Y-65092380D01*
X135177142Y-66092380D02*
X134748571Y-65520952D01*
X135177142Y-65092380D02*
X134605714Y-65663809D01*
X135986666Y-66044761D02*
X135891428Y-66092380D01*
X135700952Y-66092380D01*
X135605714Y-66044761D01*
X135558095Y-65949523D01*
X135558095Y-65568571D01*
X135605714Y-65473333D01*
X135700952Y-65425714D01*
X135891428Y-65425714D01*
X135986666Y-65473333D01*
X136034285Y-65568571D01*
X136034285Y-65663809D01*
X135558095Y-65759047D01*
X136843809Y-66044761D02*
X136748571Y-66092380D01*
X136558095Y-66092380D01*
X136462857Y-66044761D01*
X136415238Y-65949523D01*
X136415238Y-65568571D01*
X136462857Y-65473333D01*
X136558095Y-65425714D01*
X136748571Y-65425714D01*
X136843809Y-65473333D01*
X136891428Y-65568571D01*
X136891428Y-65663809D01*
X136415238Y-65759047D01*
X137320000Y-65425714D02*
X137320000Y-66425714D01*
X137320000Y-65473333D02*
X137415238Y-65425714D01*
X137605714Y-65425714D01*
X137700952Y-65473333D01*
X137748571Y-65520952D01*
X137796190Y-65616190D01*
X137796190Y-65901904D01*
X137748571Y-65997142D01*
X137700952Y-66044761D01*
X137605714Y-66092380D01*
X137415238Y-66092380D01*
X137320000Y-66044761D01*
X139177142Y-65092380D02*
X139367619Y-65092380D01*
X139462857Y-65140000D01*
X139558095Y-65235238D01*
X139605714Y-65425714D01*
X139605714Y-65759047D01*
X139558095Y-65949523D01*
X139462857Y-66044761D01*
X139367619Y-66092380D01*
X139177142Y-66092380D01*
X139081904Y-66044761D01*
X138986666Y-65949523D01*
X138939047Y-65759047D01*
X138939047Y-65425714D01*
X138986666Y-65235238D01*
X139081904Y-65140000D01*
X139177142Y-65092380D01*
X140462857Y-65425714D02*
X140462857Y-66092380D01*
X140034285Y-65425714D02*
X140034285Y-65949523D01*
X140081904Y-66044761D01*
X140177142Y-66092380D01*
X140320000Y-66092380D01*
X140415238Y-66044761D01*
X140462857Y-65997142D01*
X140796190Y-65425714D02*
X141177142Y-65425714D01*
X140939047Y-65092380D02*
X140939047Y-65949523D01*
X140986666Y-66044761D01*
X141081904Y-66092380D01*
X141177142Y-66092380D01*
X163315714Y-64542380D02*
X163315714Y-63542380D01*
X163887142Y-64542380D02*
X163458571Y-63970952D01*
X163887142Y-63542380D02*
X163315714Y-64113809D01*
X164696666Y-64494761D02*
X164601428Y-64542380D01*
X164410952Y-64542380D01*
X164315714Y-64494761D01*
X164268095Y-64399523D01*
X164268095Y-64018571D01*
X164315714Y-63923333D01*
X164410952Y-63875714D01*
X164601428Y-63875714D01*
X164696666Y-63923333D01*
X164744285Y-64018571D01*
X164744285Y-64113809D01*
X164268095Y-64209047D01*
X165553809Y-64494761D02*
X165458571Y-64542380D01*
X165268095Y-64542380D01*
X165172857Y-64494761D01*
X165125238Y-64399523D01*
X165125238Y-64018571D01*
X165172857Y-63923333D01*
X165268095Y-63875714D01*
X165458571Y-63875714D01*
X165553809Y-63923333D01*
X165601428Y-64018571D01*
X165601428Y-64113809D01*
X165125238Y-64209047D01*
X166030000Y-63875714D02*
X166030000Y-64875714D01*
X166030000Y-63923333D02*
X166125238Y-63875714D01*
X166315714Y-63875714D01*
X166410952Y-63923333D01*
X166458571Y-63970952D01*
X166506190Y-64066190D01*
X166506190Y-64351904D01*
X166458571Y-64447142D01*
X166410952Y-64494761D01*
X166315714Y-64542380D01*
X166125238Y-64542380D01*
X166030000Y-64494761D01*
X167887142Y-63542380D02*
X168077619Y-63542380D01*
X168172857Y-63590000D01*
X168268095Y-63685238D01*
X168315714Y-63875714D01*
X168315714Y-64209047D01*
X168268095Y-64399523D01*
X168172857Y-64494761D01*
X168077619Y-64542380D01*
X167887142Y-64542380D01*
X167791904Y-64494761D01*
X167696666Y-64399523D01*
X167649047Y-64209047D01*
X167649047Y-63875714D01*
X167696666Y-63685238D01*
X167791904Y-63590000D01*
X167887142Y-63542380D01*
X169172857Y-63875714D02*
X169172857Y-64542380D01*
X168744285Y-63875714D02*
X168744285Y-64399523D01*
X168791904Y-64494761D01*
X168887142Y-64542380D01*
X169030000Y-64542380D01*
X169125238Y-64494761D01*
X169172857Y-64447142D01*
X169506190Y-63875714D02*
X169887142Y-63875714D01*
X169649047Y-63542380D02*
X169649047Y-64399523D01*
X169696666Y-64494761D01*
X169791904Y-64542380D01*
X169887142Y-64542380D01*
X153903809Y-89406190D02*
X153903809Y-89882380D01*
X153570476Y-88882380D02*
X153903809Y-89406190D01*
X154237142Y-88882380D01*
X155094285Y-89882380D02*
X154522857Y-89882380D01*
X154808571Y-89882380D02*
X154808571Y-88882380D01*
X154713333Y-89025238D01*
X154618095Y-89120476D01*
X154522857Y-89168095D01*
X145423333Y-88842380D02*
X145090000Y-88366190D01*
X144851904Y-88842380D02*
X144851904Y-87842380D01*
X145232857Y-87842380D01*
X145328095Y-87890000D01*
X145375714Y-87937619D01*
X145423333Y-88032857D01*
X145423333Y-88175714D01*
X145375714Y-88270952D01*
X145328095Y-88318571D01*
X145232857Y-88366190D01*
X144851904Y-88366190D01*
X146375714Y-88842380D02*
X145804285Y-88842380D01*
X146090000Y-88842380D02*
X146090000Y-87842380D01*
X145994761Y-87985238D01*
X145899523Y-88080476D01*
X145804285Y-88128095D01*
X136933333Y-88842380D02*
X136600000Y-88366190D01*
X136361904Y-88842380D02*
X136361904Y-87842380D01*
X136742857Y-87842380D01*
X136838095Y-87890000D01*
X136885714Y-87937619D01*
X136933333Y-88032857D01*
X136933333Y-88175714D01*
X136885714Y-88270952D01*
X136838095Y-88318571D01*
X136742857Y-88366190D01*
X136361904Y-88366190D01*
X137314285Y-87937619D02*
X137361904Y-87890000D01*
X137457142Y-87842380D01*
X137695238Y-87842380D01*
X137790476Y-87890000D01*
X137838095Y-87937619D01*
X137885714Y-88032857D01*
X137885714Y-88128095D01*
X137838095Y-88270952D01*
X137266666Y-88842380D01*
X137885714Y-88842380D01*
X145423333Y-90512380D02*
X145090000Y-90036190D01*
X144851904Y-90512380D02*
X144851904Y-89512380D01*
X145232857Y-89512380D01*
X145328095Y-89560000D01*
X145375714Y-89607619D01*
X145423333Y-89702857D01*
X145423333Y-89845714D01*
X145375714Y-89940952D01*
X145328095Y-89988571D01*
X145232857Y-90036190D01*
X144851904Y-90036190D01*
X145756666Y-89512380D02*
X146375714Y-89512380D01*
X146042380Y-89893333D01*
X146185238Y-89893333D01*
X146280476Y-89940952D01*
X146328095Y-89988571D01*
X146375714Y-90083809D01*
X146375714Y-90321904D01*
X146328095Y-90417142D01*
X146280476Y-90464761D01*
X146185238Y-90512380D01*
X145899523Y-90512380D01*
X145804285Y-90464761D01*
X145756666Y-90417142D01*
X128973333Y-80627142D02*
X128925714Y-80674761D01*
X128782857Y-80722380D01*
X128687619Y-80722380D01*
X128544761Y-80674761D01*
X128449523Y-80579523D01*
X128401904Y-80484285D01*
X128354285Y-80293809D01*
X128354285Y-80150952D01*
X128401904Y-79960476D01*
X128449523Y-79865238D01*
X128544761Y-79770000D01*
X128687619Y-79722380D01*
X128782857Y-79722380D01*
X128925714Y-79770000D01*
X128973333Y-79817619D01*
X129449523Y-80722380D02*
X129640000Y-80722380D01*
X129735238Y-80674761D01*
X129782857Y-80627142D01*
X129878095Y-80484285D01*
X129925714Y-80293809D01*
X129925714Y-79912857D01*
X129878095Y-79817619D01*
X129830476Y-79770000D01*
X129735238Y-79722380D01*
X129544761Y-79722380D01*
X129449523Y-79770000D01*
X129401904Y-79817619D01*
X129354285Y-79912857D01*
X129354285Y-80150952D01*
X129401904Y-80246190D01*
X129449523Y-80293809D01*
X129544761Y-80341428D01*
X129735238Y-80341428D01*
X129830476Y-80293809D01*
X129878095Y-80246190D01*
X129925714Y-80150952D01*
X99093333Y-68972380D02*
X98760000Y-68496190D01*
X98521904Y-68972380D02*
X98521904Y-67972380D01*
X98902857Y-67972380D01*
X98998095Y-68020000D01*
X99045714Y-68067619D01*
X99093333Y-68162857D01*
X99093333Y-68305714D01*
X99045714Y-68400952D01*
X98998095Y-68448571D01*
X98902857Y-68496190D01*
X98521904Y-68496190D01*
X99950476Y-68305714D02*
X99950476Y-68972380D01*
X99712380Y-67924761D02*
X99474285Y-68639047D01*
X100093333Y-68639047D01*
M02*
