M48
; DRILL file {KiCad (5.1.5)-3} date 19/02/2021 06:09:12
; FORMAT={-:-/ absolute / inch / decimal}
; #@! TF.CreationDate,2021-02-19T06:09:12+08:00
; #@! TF.GenerationSoftware,Kicad,Pcbnew,(5.1.5)-3
; #@! TF.FileFunction,Plated,1,2,PTH
FMAT,2
INCH
T1C0.0157
T2C0.0197
T3C0.0315
T4C0.0394
%
G90
G05
T1
X4.2902Y-3.5925
X4.3374Y-3.2866
X4.3669Y-3.6831
X4.5571Y-3.6252
X4.6232Y-3.0724
X4.8941Y-3.1547
X5.2909Y-3.4736
X5.4394Y-3.552
X5.8339Y-3.4469
X6.1785Y-3.1307
X6.3921Y-2.6236
X6.7016Y-2.7343
X6.7075Y-2.6236
T2
X6.1512Y-3.4118
X6.2512Y-3.4118
T3
X5.5161Y-3.6126
X5.5161Y-3.6844
T4
X4.1118Y-3.4984
X4.1118Y-3.5984
X4.1118Y-3.6984
X4.1118Y-3.7984
X4.0165Y-2.5854
X4.0165Y-2.6854
X4.0165Y-2.7854
X4.0165Y-2.8854
X4.0165Y-2.9854
X4.0165Y-3.0854
X4.0165Y-3.1854
X4.0165Y-3.2854
X4.1165Y-2.5854
X4.1165Y-2.6854
X4.1165Y-2.7854
X4.1165Y-2.8854
X4.1165Y-2.9854
X4.1165Y-3.0854
X4.1165Y-3.1854
X4.1165Y-3.2854
X5.8634Y-2.635
X5.8634Y-2.735
X5.8634Y-2.835
X5.8634Y-2.935
X5.8634Y-3.035
X5.8634Y-3.135
X5.8634Y-3.235
X5.8634Y-3.335
X5.9634Y-2.635
X5.9634Y-2.735
X5.9634Y-2.835
X5.9634Y-2.935
X5.9634Y-3.035
X5.9634Y-3.135
X5.9634Y-3.235
X5.9634Y-3.335
X4.3811Y-3.8012
X4.4811Y-3.8012
X4.5811Y-3.8012
X4.6811Y-3.8012
X7.4374Y-2.6677
X7.4374Y-2.7677
X7.4374Y-2.8677
X7.4374Y-2.9677
X7.4374Y-3.0677
X7.4374Y-3.1677
X7.4374Y-3.2677
X7.4374Y-3.3677
X7.5374Y-2.6677
X7.5374Y-2.7677
X7.5374Y-2.8677
X7.5374Y-2.9677
X7.5374Y-3.0677
X7.5374Y-3.1677
X7.5374Y-3.2677
X7.5374Y-3.3677
X6.4126Y-3.7303
X6.4126Y-3.8303
X6.5126Y-3.7303
X6.5126Y-3.8303
X6.6126Y-3.7303
X6.6126Y-3.8303
X6.7126Y-3.7303
X6.7126Y-3.8303
X6.8126Y-3.7303
X6.8126Y-3.8303
X6.9126Y-3.7303
X6.9126Y-3.8303
X7.0126Y-3.7303
X7.0126Y-3.8303
X7.1126Y-3.7303
X7.1126Y-3.8303
X4.4331Y-3.3484
X4.5331Y-3.3484
X4.6331Y-3.3484
X4.7331Y-3.3484
X4.978Y-3.2654
X4.978Y-3.3654
X5.078Y-3.2654
X5.078Y-3.3654
X5.178Y-3.2654
X5.178Y-3.3654
X5.278Y-3.2654
X5.278Y-3.3654
X5.378Y-3.2654
X5.378Y-3.3654
X5.478Y-3.2654
X5.478Y-3.3654
X5.578Y-3.2654
X5.578Y-3.3654
X5.678Y-3.2654
X5.678Y-3.3654
X7.0831Y-2.6799
X7.0831Y-2.7799
X7.0831Y-2.8799
X7.0831Y-2.9799
X7.0831Y-3.0799
X7.0831Y-3.1799
X7.0831Y-3.2799
X7.0831Y-3.3799
X7.1831Y-2.6799
X7.1831Y-2.7799
X7.1831Y-2.8799
X7.1831Y-2.9799
X7.1831Y-3.0799
X7.1831Y-3.1799
X7.1831Y-3.2799
X7.1831Y-3.3799
T0
M30
