G04 #@! TF.GenerationSoftware,KiCad,Pcbnew,(5.1.5)-3*
G04 #@! TF.CreationDate,2021-02-19T06:08:39+08:00*
G04 #@! TF.ProjectId,SMD810x_breakout,534d4438-3130-4785-9f62-7265616b6f75,rev?*
G04 #@! TF.SameCoordinates,Original*
G04 #@! TF.FileFunction,Copper,L2,Bot*
G04 #@! TF.FilePolarity,Positive*
%FSLAX46Y46*%
G04 Gerber Fmt 4.6, Leading zero omitted, Abs format (unit mm)*
G04 Created by KiCad (PCBNEW (5.1.5)-3) date 2021-02-19 06:08:39*
%MOMM*%
%LPD*%
G04 APERTURE LIST*
%ADD10R,1.700000X1.700000*%
%ADD11O,1.700000X1.700000*%
%ADD12C,0.800000*%
%ADD13C,1.000000*%
%ADD14C,0.450000*%
%ADD15C,0.254000*%
G04 APERTURE END LIST*
D10*
X118900000Y-96550000D03*
D11*
X116360000Y-96550000D03*
X113820000Y-96550000D03*
X111280000Y-96550000D03*
X120220000Y-85050000D03*
X117680000Y-85050000D03*
X115140000Y-85050000D03*
D10*
X112600000Y-85050000D03*
X104440000Y-96480000D03*
D11*
X104440000Y-93940000D03*
X104440000Y-91400000D03*
X104440000Y-88860000D03*
D10*
X104560000Y-83450000D03*
D11*
X102020000Y-83450000D03*
X104560000Y-80910000D03*
X102020000Y-80910000D03*
X104560000Y-78370000D03*
X102020000Y-78370000D03*
X104560000Y-75830000D03*
X102020000Y-75830000D03*
X104560000Y-73290000D03*
X102020000Y-73290000D03*
X104560000Y-70750000D03*
X102020000Y-70750000D03*
X104560000Y-68210000D03*
X102020000Y-68210000D03*
X104560000Y-65670000D03*
X102020000Y-65670000D03*
X126440000Y-85480000D03*
X126440000Y-82940000D03*
X128980000Y-85480000D03*
X128980000Y-82940000D03*
X131520000Y-85480000D03*
X131520000Y-82940000D03*
X134060000Y-85480000D03*
X134060000Y-82940000D03*
X136600000Y-85480000D03*
X136600000Y-82940000D03*
X139140000Y-85480000D03*
X139140000Y-82940000D03*
X141680000Y-85480000D03*
X141680000Y-82940000D03*
X144220000Y-85480000D03*
D10*
X144220000Y-82940000D03*
D12*
X140110000Y-91760000D03*
X140110000Y-93584000D03*
D11*
X182450000Y-85850000D03*
X179910000Y-85850000D03*
X182450000Y-83310000D03*
X179910000Y-83310000D03*
X182450000Y-80770000D03*
X179910000Y-80770000D03*
X182450000Y-78230000D03*
X179910000Y-78230000D03*
X182450000Y-75690000D03*
X179910000Y-75690000D03*
X182450000Y-73150000D03*
X179910000Y-73150000D03*
X182450000Y-70610000D03*
X179910000Y-70610000D03*
X182450000Y-68070000D03*
D10*
X179910000Y-68070000D03*
D11*
X191450000Y-85540000D03*
X188910000Y-85540000D03*
X191450000Y-83000000D03*
X188910000Y-83000000D03*
X191450000Y-80460000D03*
X188910000Y-80460000D03*
X191450000Y-77920000D03*
X188910000Y-77920000D03*
X191450000Y-75380000D03*
X188910000Y-75380000D03*
X191450000Y-72840000D03*
X188910000Y-72840000D03*
X191450000Y-70300000D03*
X188910000Y-70300000D03*
X191450000Y-67760000D03*
D10*
X188910000Y-67760000D03*
X162880000Y-97290000D03*
D11*
X162880000Y-94750000D03*
X165420000Y-97290000D03*
X165420000Y-94750000D03*
X167960000Y-97290000D03*
X167960000Y-94750000D03*
X170500000Y-97290000D03*
X170500000Y-94750000D03*
X173040000Y-97290000D03*
X173040000Y-94750000D03*
X175580000Y-97290000D03*
X175580000Y-94750000D03*
X178120000Y-97290000D03*
X178120000Y-94750000D03*
X180660000Y-97290000D03*
X180660000Y-94750000D03*
D10*
X148930000Y-66930000D03*
D11*
X151470000Y-66930000D03*
X148930000Y-69470000D03*
X151470000Y-69470000D03*
X148930000Y-72010000D03*
X151470000Y-72010000D03*
X148930000Y-74550000D03*
X151470000Y-74550000D03*
X148930000Y-77090000D03*
X151470000Y-77090000D03*
X148930000Y-79630000D03*
X151470000Y-79630000D03*
X148930000Y-82170000D03*
X151470000Y-82170000D03*
X148930000Y-84710000D03*
X151470000Y-84710000D03*
D13*
X156240000Y-86660000D03*
X158780000Y-86660000D03*
D12*
X115750000Y-92080000D03*
X170370000Y-66640000D03*
X162360000Y-66640000D03*
X156935000Y-79520000D03*
X108970000Y-91250000D03*
X124310000Y-80130000D03*
X138160000Y-90220000D03*
X110170000Y-83480000D03*
X134390000Y-88230000D03*
X117430000Y-78040000D03*
X110920000Y-93550000D03*
X148180000Y-87550000D03*
X170220000Y-69450000D03*
D14*
X170370000Y-66640000D02*
X162360000Y-66640000D01*
X109604315Y-83480000D02*
X106920000Y-80795685D01*
X110170000Y-83480000D02*
X109604315Y-83480000D01*
X106920000Y-70570000D02*
X104560000Y-68210000D01*
X106920000Y-80795685D02*
X106920000Y-70570000D01*
X134390000Y-88230000D02*
X125370000Y-88230000D01*
X125370000Y-88230000D02*
X123480000Y-86340000D01*
X123480000Y-86340000D02*
X123480000Y-82270000D01*
X123480000Y-82270000D02*
X119250000Y-78040000D01*
X119250000Y-78040000D02*
X117430000Y-78040000D01*
X99630000Y-74720000D02*
X99640000Y-74710000D01*
X99640000Y-74710000D02*
X99640000Y-74340000D01*
X100690000Y-73290000D02*
X102020000Y-73290000D01*
X99640000Y-74340000D02*
X100690000Y-73290000D01*
X99640000Y-85920000D02*
X99640000Y-74710000D01*
X110920000Y-93550000D02*
X111319999Y-93150001D01*
X111319999Y-93150001D02*
X111319999Y-91509999D01*
X111319999Y-91509999D02*
X106140000Y-86330000D01*
X106140000Y-86330000D02*
X100050000Y-86330000D01*
X100050000Y-86330000D02*
X99640000Y-85920000D01*
X148180000Y-87550000D02*
X148780000Y-86950000D01*
X148780000Y-86950000D02*
X152740000Y-86950000D01*
X152740000Y-86950000D02*
X170220000Y-69470000D01*
X170220000Y-69470000D02*
X170220000Y-69450000D01*
D15*
G36*
X109903000Y-64810000D02*
G01*
X109905358Y-64834359D01*
X109912505Y-64858208D01*
X109924168Y-64880204D01*
X109939897Y-64899502D01*
X109959090Y-64915360D01*
X109981007Y-64927169D01*
X110004807Y-64934476D01*
X110029575Y-64936999D01*
X124613000Y-64985806D01*
X124613000Y-67180000D01*
X124615522Y-67205183D01*
X124622827Y-67228983D01*
X124634634Y-67250902D01*
X124650491Y-67270095D01*
X124669788Y-67285826D01*
X124691782Y-67297491D01*
X124715630Y-67304640D01*
X124740414Y-67306999D01*
X146190414Y-67236999D01*
X146215137Y-67234487D01*
X146238941Y-67227191D01*
X146260863Y-67215392D01*
X146280062Y-67199542D01*
X146295801Y-67180251D01*
X146307473Y-67158260D01*
X146314631Y-67134415D01*
X146316999Y-67109632D01*
X146311174Y-65100200D01*
X158437021Y-65100200D01*
X158433005Y-65538837D01*
X158435393Y-65564539D01*
X158442575Y-65588378D01*
X158454269Y-65610356D01*
X158470027Y-65629632D01*
X158489242Y-65645462D01*
X158511176Y-65657240D01*
X158534987Y-65664512D01*
X158559758Y-65667000D01*
X173913800Y-65696209D01*
X173913800Y-65836800D01*
X173916240Y-65861576D01*
X173923467Y-65885401D01*
X173935203Y-65907357D01*
X173950997Y-65926603D01*
X173970243Y-65942397D01*
X173992199Y-65954133D01*
X174016024Y-65961360D01*
X174040800Y-65963800D01*
X194340000Y-65963800D01*
X194340001Y-100840000D01*
X98660000Y-100840000D01*
X98660000Y-97330000D01*
X102951928Y-97330000D01*
X102964188Y-97454482D01*
X103000498Y-97574180D01*
X103059463Y-97684494D01*
X103138815Y-97781185D01*
X103235506Y-97860537D01*
X103345820Y-97919502D01*
X103465518Y-97955812D01*
X103590000Y-97968072D01*
X104154250Y-97965000D01*
X104313000Y-97806250D01*
X104313000Y-96607000D01*
X104567000Y-96607000D01*
X104567000Y-97806250D01*
X104725750Y-97965000D01*
X105290000Y-97968072D01*
X105414482Y-97955812D01*
X105534180Y-97919502D01*
X105644494Y-97860537D01*
X105741185Y-97781185D01*
X105820537Y-97684494D01*
X105879502Y-97574180D01*
X105915812Y-97454482D01*
X105928072Y-97330000D01*
X105925000Y-96765750D01*
X105766250Y-96607000D01*
X104567000Y-96607000D01*
X104313000Y-96607000D01*
X103113750Y-96607000D01*
X102955000Y-96765750D01*
X102951928Y-97330000D01*
X98660000Y-97330000D01*
X98660000Y-96403740D01*
X109795000Y-96403740D01*
X109795000Y-96696260D01*
X109852068Y-96983158D01*
X109964010Y-97253411D01*
X110126525Y-97496632D01*
X110333368Y-97703475D01*
X110576589Y-97865990D01*
X110846842Y-97977932D01*
X111133740Y-98035000D01*
X111426260Y-98035000D01*
X111713158Y-97977932D01*
X111983411Y-97865990D01*
X112226632Y-97703475D01*
X112433475Y-97496632D01*
X112550000Y-97322240D01*
X112666525Y-97496632D01*
X112873368Y-97703475D01*
X113116589Y-97865990D01*
X113386842Y-97977932D01*
X113673740Y-98035000D01*
X113966260Y-98035000D01*
X114253158Y-97977932D01*
X114523411Y-97865990D01*
X114766632Y-97703475D01*
X114973475Y-97496632D01*
X115090000Y-97322240D01*
X115206525Y-97496632D01*
X115413368Y-97703475D01*
X115656589Y-97865990D01*
X115926842Y-97977932D01*
X116213740Y-98035000D01*
X116506260Y-98035000D01*
X116793158Y-97977932D01*
X117063411Y-97865990D01*
X117306632Y-97703475D01*
X117438487Y-97571620D01*
X117460498Y-97644180D01*
X117519463Y-97754494D01*
X117598815Y-97851185D01*
X117695506Y-97930537D01*
X117805820Y-97989502D01*
X117925518Y-98025812D01*
X118050000Y-98038072D01*
X119750000Y-98038072D01*
X119874482Y-98025812D01*
X119994180Y-97989502D01*
X120104494Y-97930537D01*
X120201185Y-97851185D01*
X120280537Y-97754494D01*
X120339502Y-97644180D01*
X120375812Y-97524482D01*
X120388072Y-97400000D01*
X120388072Y-96440000D01*
X161391928Y-96440000D01*
X161391928Y-98140000D01*
X161404188Y-98264482D01*
X161440498Y-98384180D01*
X161499463Y-98494494D01*
X161578815Y-98591185D01*
X161675506Y-98670537D01*
X161785820Y-98729502D01*
X161905518Y-98765812D01*
X162030000Y-98778072D01*
X163730000Y-98778072D01*
X163854482Y-98765812D01*
X163974180Y-98729502D01*
X164084494Y-98670537D01*
X164181185Y-98591185D01*
X164260537Y-98494494D01*
X164319502Y-98384180D01*
X164341513Y-98311620D01*
X164473368Y-98443475D01*
X164716589Y-98605990D01*
X164986842Y-98717932D01*
X165273740Y-98775000D01*
X165566260Y-98775000D01*
X165853158Y-98717932D01*
X166123411Y-98605990D01*
X166366632Y-98443475D01*
X166573475Y-98236632D01*
X166690000Y-98062240D01*
X166806525Y-98236632D01*
X167013368Y-98443475D01*
X167256589Y-98605990D01*
X167526842Y-98717932D01*
X167813740Y-98775000D01*
X168106260Y-98775000D01*
X168393158Y-98717932D01*
X168663411Y-98605990D01*
X168906632Y-98443475D01*
X169113475Y-98236632D01*
X169230000Y-98062240D01*
X169346525Y-98236632D01*
X169553368Y-98443475D01*
X169796589Y-98605990D01*
X170066842Y-98717932D01*
X170353740Y-98775000D01*
X170646260Y-98775000D01*
X170933158Y-98717932D01*
X171203411Y-98605990D01*
X171446632Y-98443475D01*
X171653475Y-98236632D01*
X171770000Y-98062240D01*
X171886525Y-98236632D01*
X172093368Y-98443475D01*
X172336589Y-98605990D01*
X172606842Y-98717932D01*
X172893740Y-98775000D01*
X173186260Y-98775000D01*
X173473158Y-98717932D01*
X173743411Y-98605990D01*
X173986632Y-98443475D01*
X174193475Y-98236632D01*
X174310000Y-98062240D01*
X174426525Y-98236632D01*
X174633368Y-98443475D01*
X174876589Y-98605990D01*
X175146842Y-98717932D01*
X175433740Y-98775000D01*
X175726260Y-98775000D01*
X176013158Y-98717932D01*
X176283411Y-98605990D01*
X176526632Y-98443475D01*
X176733475Y-98236632D01*
X176850000Y-98062240D01*
X176966525Y-98236632D01*
X177173368Y-98443475D01*
X177416589Y-98605990D01*
X177686842Y-98717932D01*
X177973740Y-98775000D01*
X178266260Y-98775000D01*
X178553158Y-98717932D01*
X178823411Y-98605990D01*
X179066632Y-98443475D01*
X179273475Y-98236632D01*
X179390000Y-98062240D01*
X179506525Y-98236632D01*
X179713368Y-98443475D01*
X179956589Y-98605990D01*
X180226842Y-98717932D01*
X180513740Y-98775000D01*
X180806260Y-98775000D01*
X181093158Y-98717932D01*
X181363411Y-98605990D01*
X181606632Y-98443475D01*
X181813475Y-98236632D01*
X181975990Y-97993411D01*
X182087932Y-97723158D01*
X182145000Y-97436260D01*
X182145000Y-97143740D01*
X182087932Y-96856842D01*
X181975990Y-96586589D01*
X181813475Y-96343368D01*
X181606632Y-96136525D01*
X181432240Y-96020000D01*
X181606632Y-95903475D01*
X181813475Y-95696632D01*
X181975990Y-95453411D01*
X182087932Y-95183158D01*
X182145000Y-94896260D01*
X182145000Y-94603740D01*
X182087932Y-94316842D01*
X181975990Y-94046589D01*
X181813475Y-93803368D01*
X181606632Y-93596525D01*
X181363411Y-93434010D01*
X181093158Y-93322068D01*
X180806260Y-93265000D01*
X180513740Y-93265000D01*
X180226842Y-93322068D01*
X179956589Y-93434010D01*
X179713368Y-93596525D01*
X179506525Y-93803368D01*
X179390000Y-93977760D01*
X179273475Y-93803368D01*
X179066632Y-93596525D01*
X178823411Y-93434010D01*
X178553158Y-93322068D01*
X178266260Y-93265000D01*
X177973740Y-93265000D01*
X177686842Y-93322068D01*
X177416589Y-93434010D01*
X177173368Y-93596525D01*
X176966525Y-93803368D01*
X176850000Y-93977760D01*
X176733475Y-93803368D01*
X176526632Y-93596525D01*
X176283411Y-93434010D01*
X176013158Y-93322068D01*
X175726260Y-93265000D01*
X175433740Y-93265000D01*
X175146842Y-93322068D01*
X174876589Y-93434010D01*
X174633368Y-93596525D01*
X174426525Y-93803368D01*
X174310000Y-93977760D01*
X174193475Y-93803368D01*
X173986632Y-93596525D01*
X173743411Y-93434010D01*
X173473158Y-93322068D01*
X173186260Y-93265000D01*
X172893740Y-93265000D01*
X172606842Y-93322068D01*
X172336589Y-93434010D01*
X172093368Y-93596525D01*
X171886525Y-93803368D01*
X171770000Y-93977760D01*
X171653475Y-93803368D01*
X171446632Y-93596525D01*
X171203411Y-93434010D01*
X170933158Y-93322068D01*
X170646260Y-93265000D01*
X170353740Y-93265000D01*
X170066842Y-93322068D01*
X169796589Y-93434010D01*
X169553368Y-93596525D01*
X169346525Y-93803368D01*
X169230000Y-93977760D01*
X169113475Y-93803368D01*
X168906632Y-93596525D01*
X168663411Y-93434010D01*
X168393158Y-93322068D01*
X168106260Y-93265000D01*
X167813740Y-93265000D01*
X167526842Y-93322068D01*
X167256589Y-93434010D01*
X167013368Y-93596525D01*
X166806525Y-93803368D01*
X166690000Y-93977760D01*
X166573475Y-93803368D01*
X166366632Y-93596525D01*
X166123411Y-93434010D01*
X165853158Y-93322068D01*
X165566260Y-93265000D01*
X165273740Y-93265000D01*
X164986842Y-93322068D01*
X164716589Y-93434010D01*
X164473368Y-93596525D01*
X164266525Y-93803368D01*
X164150000Y-93977760D01*
X164033475Y-93803368D01*
X163826632Y-93596525D01*
X163583411Y-93434010D01*
X163313158Y-93322068D01*
X163026260Y-93265000D01*
X162733740Y-93265000D01*
X162446842Y-93322068D01*
X162176589Y-93434010D01*
X161933368Y-93596525D01*
X161726525Y-93803368D01*
X161564010Y-94046589D01*
X161452068Y-94316842D01*
X161395000Y-94603740D01*
X161395000Y-94896260D01*
X161452068Y-95183158D01*
X161564010Y-95453411D01*
X161726525Y-95696632D01*
X161858380Y-95828487D01*
X161785820Y-95850498D01*
X161675506Y-95909463D01*
X161578815Y-95988815D01*
X161499463Y-96085506D01*
X161440498Y-96195820D01*
X161404188Y-96315518D01*
X161391928Y-96440000D01*
X120388072Y-96440000D01*
X120388072Y-95700000D01*
X120375812Y-95575518D01*
X120339502Y-95455820D01*
X120280537Y-95345506D01*
X120201185Y-95248815D01*
X120104494Y-95169463D01*
X119994180Y-95110498D01*
X119874482Y-95074188D01*
X119750000Y-95061928D01*
X118050000Y-95061928D01*
X117925518Y-95074188D01*
X117805820Y-95110498D01*
X117695506Y-95169463D01*
X117598815Y-95248815D01*
X117519463Y-95345506D01*
X117460498Y-95455820D01*
X117438487Y-95528380D01*
X117306632Y-95396525D01*
X117063411Y-95234010D01*
X116793158Y-95122068D01*
X116506260Y-95065000D01*
X116213740Y-95065000D01*
X115926842Y-95122068D01*
X115656589Y-95234010D01*
X115413368Y-95396525D01*
X115206525Y-95603368D01*
X115090000Y-95777760D01*
X114973475Y-95603368D01*
X114766632Y-95396525D01*
X114523411Y-95234010D01*
X114253158Y-95122068D01*
X113966260Y-95065000D01*
X113673740Y-95065000D01*
X113386842Y-95122068D01*
X113116589Y-95234010D01*
X112873368Y-95396525D01*
X112666525Y-95603368D01*
X112550000Y-95777760D01*
X112433475Y-95603368D01*
X112226632Y-95396525D01*
X111983411Y-95234010D01*
X111713158Y-95122068D01*
X111426260Y-95065000D01*
X111133740Y-95065000D01*
X110846842Y-95122068D01*
X110576589Y-95234010D01*
X110333368Y-95396525D01*
X110126525Y-95603368D01*
X109964010Y-95846589D01*
X109852068Y-96116842D01*
X109795000Y-96403740D01*
X98660000Y-96403740D01*
X98660000Y-95630000D01*
X102951928Y-95630000D01*
X102955000Y-96194250D01*
X103113750Y-96353000D01*
X104313000Y-96353000D01*
X104313000Y-94067000D01*
X104567000Y-94067000D01*
X104567000Y-96353000D01*
X105766250Y-96353000D01*
X105925000Y-96194250D01*
X105928072Y-95630000D01*
X105915812Y-95505518D01*
X105879502Y-95385820D01*
X105820537Y-95275506D01*
X105741185Y-95178815D01*
X105644494Y-95099463D01*
X105534180Y-95040498D01*
X105453534Y-95016034D01*
X105537588Y-94940269D01*
X105711641Y-94706920D01*
X105836825Y-94444099D01*
X105881476Y-94296890D01*
X105760155Y-94067000D01*
X104567000Y-94067000D01*
X104313000Y-94067000D01*
X103119845Y-94067000D01*
X102998524Y-94296890D01*
X103043175Y-94444099D01*
X103168359Y-94706920D01*
X103342412Y-94940269D01*
X103426466Y-95016034D01*
X103345820Y-95040498D01*
X103235506Y-95099463D01*
X103138815Y-95178815D01*
X103059463Y-95275506D01*
X103000498Y-95385820D01*
X102964188Y-95505518D01*
X102951928Y-95630000D01*
X98660000Y-95630000D01*
X98660000Y-91756890D01*
X102998524Y-91756890D01*
X103043175Y-91904099D01*
X103168359Y-92166920D01*
X103342412Y-92400269D01*
X103558645Y-92595178D01*
X103684255Y-92670000D01*
X103558645Y-92744822D01*
X103342412Y-92939731D01*
X103168359Y-93173080D01*
X103043175Y-93435901D01*
X102998524Y-93583110D01*
X103119845Y-93813000D01*
X104313000Y-93813000D01*
X104313000Y-91527000D01*
X104567000Y-91527000D01*
X104567000Y-93813000D01*
X105760155Y-93813000D01*
X105881476Y-93583110D01*
X105836825Y-93435901D01*
X105711641Y-93173080D01*
X105537588Y-92939731D01*
X105321355Y-92744822D01*
X105195745Y-92670000D01*
X105321355Y-92595178D01*
X105537588Y-92400269D01*
X105711641Y-92166920D01*
X105836825Y-91904099D01*
X105881476Y-91756890D01*
X105760155Y-91527000D01*
X104567000Y-91527000D01*
X104313000Y-91527000D01*
X103119845Y-91527000D01*
X102998524Y-91756890D01*
X98660000Y-91756890D01*
X98660000Y-89216890D01*
X102998524Y-89216890D01*
X103043175Y-89364099D01*
X103168359Y-89626920D01*
X103342412Y-89860269D01*
X103558645Y-90055178D01*
X103684255Y-90130000D01*
X103558645Y-90204822D01*
X103342412Y-90399731D01*
X103168359Y-90633080D01*
X103043175Y-90895901D01*
X102998524Y-91043110D01*
X103119845Y-91273000D01*
X104313000Y-91273000D01*
X104313000Y-88987000D01*
X104567000Y-88987000D01*
X104567000Y-91273000D01*
X105760155Y-91273000D01*
X105881476Y-91043110D01*
X105836825Y-90895901D01*
X105711641Y-90633080D01*
X105537588Y-90399731D01*
X105321355Y-90204822D01*
X105195745Y-90130000D01*
X105321355Y-90055178D01*
X105537588Y-89860269D01*
X105711641Y-89626920D01*
X105836825Y-89364099D01*
X105881476Y-89216890D01*
X105760155Y-88987000D01*
X104567000Y-88987000D01*
X104313000Y-88987000D01*
X103119845Y-88987000D01*
X102998524Y-89216890D01*
X98660000Y-89216890D01*
X98660000Y-88503110D01*
X102998524Y-88503110D01*
X103119845Y-88733000D01*
X104313000Y-88733000D01*
X104313000Y-87539186D01*
X104567000Y-87539186D01*
X104567000Y-88733000D01*
X105760155Y-88733000D01*
X105881476Y-88503110D01*
X105836825Y-88355901D01*
X105711641Y-88093080D01*
X105537588Y-87859731D01*
X105321355Y-87664822D01*
X105071252Y-87515843D01*
X104796891Y-87418519D01*
X104567000Y-87539186D01*
X104313000Y-87539186D01*
X104083109Y-87418519D01*
X103808748Y-87515843D01*
X103558645Y-87664822D01*
X103342412Y-87859731D01*
X103168359Y-88093080D01*
X103043175Y-88355901D01*
X102998524Y-88503110D01*
X98660000Y-88503110D01*
X98660000Y-74720000D01*
X98765840Y-74720000D01*
X98780001Y-74863784D01*
X98780000Y-85877761D01*
X98775840Y-85920000D01*
X98780000Y-85962239D01*
X98780000Y-85962245D01*
X98792444Y-86088588D01*
X98841619Y-86250699D01*
X98921476Y-86400101D01*
X99028946Y-86531054D01*
X99061765Y-86557988D01*
X99412012Y-86908235D01*
X99438946Y-86941054D01*
X99569898Y-87048524D01*
X99680703Y-87107750D01*
X99719299Y-87128381D01*
X99881410Y-87177556D01*
X100050000Y-87194161D01*
X100092246Y-87190000D01*
X105783777Y-87190000D01*
X110460000Y-91866224D01*
X110459999Y-92620263D01*
X110429744Y-92632795D01*
X110260226Y-92746063D01*
X110116063Y-92890226D01*
X110002795Y-93059744D01*
X109924774Y-93248102D01*
X109885000Y-93448061D01*
X109885000Y-93651939D01*
X109924774Y-93851898D01*
X110002795Y-94040256D01*
X110116063Y-94209774D01*
X110260226Y-94353937D01*
X110429744Y-94467205D01*
X110618102Y-94545226D01*
X110818061Y-94585000D01*
X111021939Y-94585000D01*
X111221898Y-94545226D01*
X111410256Y-94467205D01*
X111579774Y-94353937D01*
X111723937Y-94209774D01*
X111837205Y-94040256D01*
X111915226Y-93851898D01*
X111934013Y-93757448D01*
X112038523Y-93630103D01*
X112118380Y-93480701D01*
X112126316Y-93454538D01*
X138816164Y-93454538D01*
X138816164Y-93705462D01*
X138865116Y-93951564D01*
X138961141Y-94183388D01*
X139100547Y-94392023D01*
X139277977Y-94569453D01*
X139486612Y-94708859D01*
X139718436Y-94804884D01*
X139964538Y-94853836D01*
X140215462Y-94853836D01*
X140461564Y-94804884D01*
X140693388Y-94708859D01*
X140902023Y-94569453D01*
X141079453Y-94392023D01*
X141218859Y-94183388D01*
X141314884Y-93951564D01*
X141363836Y-93705462D01*
X141363836Y-93454538D01*
X141314884Y-93208436D01*
X141218859Y-92976612D01*
X141079453Y-92767977D01*
X140991476Y-92680000D01*
X141089453Y-92582023D01*
X141228859Y-92373388D01*
X141324884Y-92141564D01*
X141373836Y-91895462D01*
X141373836Y-91644538D01*
X141324884Y-91398436D01*
X141228859Y-91166612D01*
X141089453Y-90957977D01*
X140912023Y-90780547D01*
X140703388Y-90641141D01*
X140471564Y-90545116D01*
X140225462Y-90496164D01*
X139974538Y-90496164D01*
X139728436Y-90545116D01*
X139496612Y-90641141D01*
X139287977Y-90780547D01*
X139110547Y-90957977D01*
X138971141Y-91166612D01*
X138875116Y-91398436D01*
X138826164Y-91644538D01*
X138826164Y-91895462D01*
X138875116Y-92141564D01*
X138971141Y-92373388D01*
X139110547Y-92582023D01*
X139198524Y-92670000D01*
X139100547Y-92767977D01*
X138961141Y-92976612D01*
X138865116Y-93208436D01*
X138816164Y-93454538D01*
X112126316Y-93454538D01*
X112167555Y-93318590D01*
X112179999Y-93192247D01*
X112179999Y-93192241D01*
X112184159Y-93150002D01*
X112179999Y-93107763D01*
X112179999Y-91552238D01*
X112184159Y-91509999D01*
X112179999Y-91467760D01*
X112179999Y-91467753D01*
X112167555Y-91341410D01*
X112118380Y-91179299D01*
X112038523Y-91029897D01*
X111931053Y-90898945D01*
X111898240Y-90872016D01*
X106777988Y-85751765D01*
X106751054Y-85718946D01*
X106620102Y-85611476D01*
X106470700Y-85531619D01*
X106308589Y-85482444D01*
X106182246Y-85470000D01*
X106182239Y-85470000D01*
X106140000Y-85465840D01*
X106097761Y-85470000D01*
X100500000Y-85470000D01*
X100500000Y-74752239D01*
X100504160Y-74710001D01*
X100502552Y-74693672D01*
X100913058Y-74283165D01*
X101073368Y-74443475D01*
X101247760Y-74560000D01*
X101073368Y-74676525D01*
X100866525Y-74883368D01*
X100704010Y-75126589D01*
X100592068Y-75396842D01*
X100535000Y-75683740D01*
X100535000Y-75976260D01*
X100592068Y-76263158D01*
X100704010Y-76533411D01*
X100866525Y-76776632D01*
X101073368Y-76983475D01*
X101247760Y-77100000D01*
X101073368Y-77216525D01*
X100866525Y-77423368D01*
X100704010Y-77666589D01*
X100592068Y-77936842D01*
X100535000Y-78223740D01*
X100535000Y-78516260D01*
X100592068Y-78803158D01*
X100704010Y-79073411D01*
X100866525Y-79316632D01*
X101073368Y-79523475D01*
X101247760Y-79640000D01*
X101073368Y-79756525D01*
X100866525Y-79963368D01*
X100704010Y-80206589D01*
X100592068Y-80476842D01*
X100535000Y-80763740D01*
X100535000Y-81056260D01*
X100592068Y-81343158D01*
X100704010Y-81613411D01*
X100866525Y-81856632D01*
X101073368Y-82063475D01*
X101247760Y-82180000D01*
X101073368Y-82296525D01*
X100866525Y-82503368D01*
X100704010Y-82746589D01*
X100592068Y-83016842D01*
X100535000Y-83303740D01*
X100535000Y-83596260D01*
X100592068Y-83883158D01*
X100704010Y-84153411D01*
X100866525Y-84396632D01*
X101073368Y-84603475D01*
X101316589Y-84765990D01*
X101586842Y-84877932D01*
X101873740Y-84935000D01*
X102166260Y-84935000D01*
X102453158Y-84877932D01*
X102723411Y-84765990D01*
X102966632Y-84603475D01*
X103098487Y-84471620D01*
X103120498Y-84544180D01*
X103179463Y-84654494D01*
X103258815Y-84751185D01*
X103355506Y-84830537D01*
X103465820Y-84889502D01*
X103585518Y-84925812D01*
X103710000Y-84938072D01*
X105410000Y-84938072D01*
X105534482Y-84925812D01*
X105654180Y-84889502D01*
X105764494Y-84830537D01*
X105861185Y-84751185D01*
X105940537Y-84654494D01*
X105999502Y-84544180D01*
X106035812Y-84424482D01*
X106048072Y-84300000D01*
X106048072Y-82600000D01*
X106035812Y-82475518D01*
X105999502Y-82355820D01*
X105940537Y-82245506D01*
X105861185Y-82148815D01*
X105764494Y-82069463D01*
X105654180Y-82010498D01*
X105581620Y-81988487D01*
X105713475Y-81856632D01*
X105875990Y-81613411D01*
X105987932Y-81343158D01*
X106045000Y-81056260D01*
X106045000Y-80763740D01*
X105987932Y-80476842D01*
X105875990Y-80206589D01*
X105713475Y-79963368D01*
X105506632Y-79756525D01*
X105332240Y-79640000D01*
X105506632Y-79523475D01*
X105713475Y-79316632D01*
X105875990Y-79073411D01*
X105987932Y-78803158D01*
X106045000Y-78516260D01*
X106045000Y-78223740D01*
X105987932Y-77936842D01*
X105875990Y-77666589D01*
X105713475Y-77423368D01*
X105506632Y-77216525D01*
X105332240Y-77100000D01*
X105506632Y-76983475D01*
X105713475Y-76776632D01*
X105875990Y-76533411D01*
X105987932Y-76263158D01*
X106045000Y-75976260D01*
X106045000Y-75683740D01*
X105987932Y-75396842D01*
X105875990Y-75126589D01*
X105713475Y-74883368D01*
X105506632Y-74676525D01*
X105332240Y-74560000D01*
X105506632Y-74443475D01*
X105713475Y-74236632D01*
X105875990Y-73993411D01*
X105987932Y-73723158D01*
X106045000Y-73436260D01*
X106045000Y-73143740D01*
X105987932Y-72856842D01*
X105875990Y-72586589D01*
X105713475Y-72343368D01*
X105506632Y-72136525D01*
X105332240Y-72020000D01*
X105506632Y-71903475D01*
X105713475Y-71696632D01*
X105875990Y-71453411D01*
X105987932Y-71183158D01*
X106042517Y-70908741D01*
X106060001Y-70926225D01*
X106060000Y-80753446D01*
X106055840Y-80795685D01*
X106060000Y-80837924D01*
X106060000Y-80837930D01*
X106072444Y-80964273D01*
X106121619Y-81126384D01*
X106201476Y-81275786D01*
X106308946Y-81406739D01*
X106341765Y-81433673D01*
X108966332Y-84058241D01*
X108993261Y-84091054D01*
X109124213Y-84198524D01*
X109204026Y-84241185D01*
X109273614Y-84278381D01*
X109435725Y-84327556D01*
X109599674Y-84343704D01*
X109679744Y-84397205D01*
X109868102Y-84475226D01*
X110068061Y-84515000D01*
X110271939Y-84515000D01*
X110471898Y-84475226D01*
X110660256Y-84397205D01*
X110829774Y-84283937D01*
X110913711Y-84200000D01*
X111111928Y-84200000D01*
X111111928Y-85900000D01*
X111124188Y-86024482D01*
X111160498Y-86144180D01*
X111219463Y-86254494D01*
X111298815Y-86351185D01*
X111395506Y-86430537D01*
X111505820Y-86489502D01*
X111625518Y-86525812D01*
X111750000Y-86538072D01*
X113450000Y-86538072D01*
X113574482Y-86525812D01*
X113694180Y-86489502D01*
X113804494Y-86430537D01*
X113901185Y-86351185D01*
X113980537Y-86254494D01*
X114039502Y-86144180D01*
X114061513Y-86071620D01*
X114193368Y-86203475D01*
X114436589Y-86365990D01*
X114706842Y-86477932D01*
X114993740Y-86535000D01*
X115286260Y-86535000D01*
X115573158Y-86477932D01*
X115843411Y-86365990D01*
X116086632Y-86203475D01*
X116293475Y-85996632D01*
X116410000Y-85822240D01*
X116526525Y-85996632D01*
X116733368Y-86203475D01*
X116976589Y-86365990D01*
X117246842Y-86477932D01*
X117533740Y-86535000D01*
X117826260Y-86535000D01*
X118113158Y-86477932D01*
X118383411Y-86365990D01*
X118626632Y-86203475D01*
X118833475Y-85996632D01*
X118950000Y-85822240D01*
X119066525Y-85996632D01*
X119273368Y-86203475D01*
X119516589Y-86365990D01*
X119786842Y-86477932D01*
X120073740Y-86535000D01*
X120366260Y-86535000D01*
X120653158Y-86477932D01*
X120923411Y-86365990D01*
X121166632Y-86203475D01*
X121373475Y-85996632D01*
X121535990Y-85753411D01*
X121647932Y-85483158D01*
X121705000Y-85196260D01*
X121705000Y-84903740D01*
X121647932Y-84616842D01*
X121535990Y-84346589D01*
X121373475Y-84103368D01*
X121166632Y-83896525D01*
X120923411Y-83734010D01*
X120653158Y-83622068D01*
X120366260Y-83565000D01*
X120073740Y-83565000D01*
X119786842Y-83622068D01*
X119516589Y-83734010D01*
X119273368Y-83896525D01*
X119066525Y-84103368D01*
X118950000Y-84277760D01*
X118833475Y-84103368D01*
X118626632Y-83896525D01*
X118383411Y-83734010D01*
X118113158Y-83622068D01*
X117826260Y-83565000D01*
X117533740Y-83565000D01*
X117246842Y-83622068D01*
X116976589Y-83734010D01*
X116733368Y-83896525D01*
X116526525Y-84103368D01*
X116410000Y-84277760D01*
X116293475Y-84103368D01*
X116086632Y-83896525D01*
X115843411Y-83734010D01*
X115573158Y-83622068D01*
X115286260Y-83565000D01*
X114993740Y-83565000D01*
X114706842Y-83622068D01*
X114436589Y-83734010D01*
X114193368Y-83896525D01*
X114061513Y-84028380D01*
X114039502Y-83955820D01*
X113980537Y-83845506D01*
X113901185Y-83748815D01*
X113804494Y-83669463D01*
X113694180Y-83610498D01*
X113574482Y-83574188D01*
X113450000Y-83561928D01*
X111750000Y-83561928D01*
X111625518Y-83574188D01*
X111505820Y-83610498D01*
X111395506Y-83669463D01*
X111298815Y-83748815D01*
X111219463Y-83845506D01*
X111160498Y-83955820D01*
X111124188Y-84075518D01*
X111111928Y-84200000D01*
X110913711Y-84200000D01*
X110973937Y-84139774D01*
X111087205Y-83970256D01*
X111165226Y-83781898D01*
X111205000Y-83581939D01*
X111205000Y-83378061D01*
X111165226Y-83178102D01*
X111087205Y-82989744D01*
X110973937Y-82820226D01*
X110829774Y-82676063D01*
X110660256Y-82562795D01*
X110471898Y-82484774D01*
X110271939Y-82445000D01*
X110068061Y-82445000D01*
X109868102Y-82484774D01*
X109837846Y-82497307D01*
X107780000Y-80439462D01*
X107780000Y-77938061D01*
X116395000Y-77938061D01*
X116395000Y-78141939D01*
X116434774Y-78341898D01*
X116512795Y-78530256D01*
X116626063Y-78699774D01*
X116770226Y-78843937D01*
X116939744Y-78957205D01*
X117128102Y-79035226D01*
X117328061Y-79075000D01*
X117531939Y-79075000D01*
X117731898Y-79035226D01*
X117920256Y-78957205D01*
X118005870Y-78900000D01*
X118893777Y-78900000D01*
X122620001Y-82626225D01*
X122620000Y-86297761D01*
X122615840Y-86340000D01*
X122620000Y-86382239D01*
X122620000Y-86382245D01*
X122632444Y-86508588D01*
X122681619Y-86670699D01*
X122761476Y-86820101D01*
X122868946Y-86951054D01*
X122901765Y-86977988D01*
X124732017Y-88808241D01*
X124758946Y-88841054D01*
X124889898Y-88948524D01*
X124961882Y-88987000D01*
X125039299Y-89028381D01*
X125201410Y-89077556D01*
X125370000Y-89094161D01*
X125412246Y-89090000D01*
X133814130Y-89090000D01*
X133899744Y-89147205D01*
X134088102Y-89225226D01*
X134288061Y-89265000D01*
X134491939Y-89265000D01*
X134691898Y-89225226D01*
X134880256Y-89147205D01*
X135049774Y-89033937D01*
X135193937Y-88889774D01*
X135307205Y-88720256D01*
X135385226Y-88531898D01*
X135425000Y-88331939D01*
X135425000Y-88128061D01*
X135385226Y-87928102D01*
X135307205Y-87739744D01*
X135193937Y-87570226D01*
X135071772Y-87448061D01*
X147145000Y-87448061D01*
X147145000Y-87651939D01*
X147184774Y-87851898D01*
X147262795Y-88040256D01*
X147376063Y-88209774D01*
X147520226Y-88353937D01*
X147689744Y-88467205D01*
X147878102Y-88545226D01*
X148078061Y-88585000D01*
X148281939Y-88585000D01*
X148481898Y-88545226D01*
X148670256Y-88467205D01*
X148839774Y-88353937D01*
X148983937Y-88209774D01*
X149097205Y-88040256D01*
X149175226Y-87851898D01*
X149183560Y-87810000D01*
X152697761Y-87810000D01*
X152740000Y-87814160D01*
X152782239Y-87810000D01*
X152782246Y-87810000D01*
X152908589Y-87797556D01*
X153070700Y-87748381D01*
X153220102Y-87668524D01*
X153351054Y-87561054D01*
X153377988Y-87528235D01*
X154358011Y-86548212D01*
X155105000Y-86548212D01*
X155105000Y-86771788D01*
X155148617Y-86991067D01*
X155234176Y-87197624D01*
X155358388Y-87383520D01*
X155516480Y-87541612D01*
X155702376Y-87665824D01*
X155908933Y-87751383D01*
X156128212Y-87795000D01*
X156351788Y-87795000D01*
X156571067Y-87751383D01*
X156777624Y-87665824D01*
X156963520Y-87541612D01*
X157121612Y-87383520D01*
X157245824Y-87197624D01*
X157331383Y-86991067D01*
X157375000Y-86771788D01*
X157375000Y-86548212D01*
X157645000Y-86548212D01*
X157645000Y-86771788D01*
X157688617Y-86991067D01*
X157774176Y-87197624D01*
X157898388Y-87383520D01*
X158056480Y-87541612D01*
X158242376Y-87665824D01*
X158448933Y-87751383D01*
X158668212Y-87795000D01*
X158891788Y-87795000D01*
X159111067Y-87751383D01*
X159317624Y-87665824D01*
X159503520Y-87541612D01*
X159661612Y-87383520D01*
X159785824Y-87197624D01*
X159871383Y-86991067D01*
X159915000Y-86771788D01*
X159915000Y-86548212D01*
X159871383Y-86328933D01*
X159785824Y-86122376D01*
X159661612Y-85936480D01*
X159503520Y-85778388D01*
X159317624Y-85654176D01*
X159111067Y-85568617D01*
X158891788Y-85525000D01*
X158668212Y-85525000D01*
X158448933Y-85568617D01*
X158242376Y-85654176D01*
X158056480Y-85778388D01*
X157898388Y-85936480D01*
X157774176Y-86122376D01*
X157688617Y-86328933D01*
X157645000Y-86548212D01*
X157375000Y-86548212D01*
X157331383Y-86328933D01*
X157245824Y-86122376D01*
X157121612Y-85936480D01*
X156963520Y-85778388D01*
X156777624Y-85654176D01*
X156571067Y-85568617D01*
X156351788Y-85525000D01*
X156128212Y-85525000D01*
X155908933Y-85568617D01*
X155702376Y-85654176D01*
X155516480Y-85778388D01*
X155358388Y-85936480D01*
X155234176Y-86122376D01*
X155148617Y-86328933D01*
X155105000Y-86548212D01*
X154358011Y-86548212D01*
X170445876Y-70460348D01*
X170521898Y-70445226D01*
X170710256Y-70367205D01*
X170879774Y-70253937D01*
X171023937Y-70109774D01*
X171137205Y-69940256D01*
X171215226Y-69751898D01*
X171255000Y-69551939D01*
X171255000Y-69348061D01*
X171215226Y-69148102D01*
X171137205Y-68959744D01*
X171023937Y-68790226D01*
X170879774Y-68646063D01*
X170710256Y-68532795D01*
X170521898Y-68454774D01*
X170321939Y-68415000D01*
X170118061Y-68415000D01*
X169918102Y-68454774D01*
X169729744Y-68532795D01*
X169560226Y-68646063D01*
X169416063Y-68790226D01*
X169302795Y-68959744D01*
X169224774Y-69148102D01*
X169199720Y-69274056D01*
X152383777Y-86090000D01*
X152018877Y-86090000D01*
X152173411Y-86025990D01*
X152416632Y-85863475D01*
X152623475Y-85656632D01*
X152785990Y-85413411D01*
X152897932Y-85143158D01*
X152955000Y-84856260D01*
X152955000Y-84563740D01*
X152897932Y-84276842D01*
X152785990Y-84006589D01*
X152623475Y-83763368D01*
X152416632Y-83556525D01*
X152242240Y-83440000D01*
X152416632Y-83323475D01*
X152623475Y-83116632D01*
X152785990Y-82873411D01*
X152897932Y-82603158D01*
X152955000Y-82316260D01*
X152955000Y-82023740D01*
X152897932Y-81736842D01*
X152785990Y-81466589D01*
X152623475Y-81223368D01*
X152416632Y-81016525D01*
X152242240Y-80900000D01*
X152416632Y-80783475D01*
X152623475Y-80576632D01*
X152785990Y-80333411D01*
X152897932Y-80063158D01*
X152955000Y-79776260D01*
X152955000Y-79483740D01*
X152897932Y-79196842D01*
X152785990Y-78926589D01*
X152623475Y-78683368D01*
X152416632Y-78476525D01*
X152242240Y-78360000D01*
X152416632Y-78243475D01*
X152623475Y-78036632D01*
X152785990Y-77793411D01*
X152897932Y-77523158D01*
X152955000Y-77236260D01*
X152955000Y-76943740D01*
X152897932Y-76656842D01*
X152785990Y-76386589D01*
X152623475Y-76143368D01*
X152416632Y-75936525D01*
X152242240Y-75820000D01*
X152416632Y-75703475D01*
X152623475Y-75496632D01*
X152785990Y-75253411D01*
X152897932Y-74983158D01*
X152955000Y-74696260D01*
X152955000Y-74403740D01*
X152897932Y-74116842D01*
X152785990Y-73846589D01*
X152623475Y-73603368D01*
X152416632Y-73396525D01*
X152242240Y-73280000D01*
X152416632Y-73163475D01*
X152623475Y-72956632D01*
X152785990Y-72713411D01*
X152897932Y-72443158D01*
X152955000Y-72156260D01*
X152955000Y-71863740D01*
X152897932Y-71576842D01*
X152785990Y-71306589D01*
X152623475Y-71063368D01*
X152416632Y-70856525D01*
X152242240Y-70740000D01*
X152416632Y-70623475D01*
X152623475Y-70416632D01*
X152785990Y-70173411D01*
X152897932Y-69903158D01*
X152955000Y-69616260D01*
X152955000Y-69323740D01*
X152897932Y-69036842D01*
X152785990Y-68766589D01*
X152623475Y-68523368D01*
X152416632Y-68316525D01*
X152242240Y-68200000D01*
X152416632Y-68083475D01*
X152623475Y-67876632D01*
X152785990Y-67633411D01*
X152897932Y-67363158D01*
X152926408Y-67220000D01*
X178421928Y-67220000D01*
X178421928Y-68920000D01*
X178434188Y-69044482D01*
X178470498Y-69164180D01*
X178529463Y-69274494D01*
X178608815Y-69371185D01*
X178705506Y-69450537D01*
X178815820Y-69509502D01*
X178888380Y-69531513D01*
X178756525Y-69663368D01*
X178594010Y-69906589D01*
X178482068Y-70176842D01*
X178425000Y-70463740D01*
X178425000Y-70756260D01*
X178482068Y-71043158D01*
X178594010Y-71313411D01*
X178756525Y-71556632D01*
X178963368Y-71763475D01*
X179137760Y-71880000D01*
X178963368Y-71996525D01*
X178756525Y-72203368D01*
X178594010Y-72446589D01*
X178482068Y-72716842D01*
X178425000Y-73003740D01*
X178425000Y-73296260D01*
X178482068Y-73583158D01*
X178594010Y-73853411D01*
X178756525Y-74096632D01*
X178963368Y-74303475D01*
X179137760Y-74420000D01*
X178963368Y-74536525D01*
X178756525Y-74743368D01*
X178594010Y-74986589D01*
X178482068Y-75256842D01*
X178425000Y-75543740D01*
X178425000Y-75836260D01*
X178482068Y-76123158D01*
X178594010Y-76393411D01*
X178756525Y-76636632D01*
X178963368Y-76843475D01*
X179137760Y-76960000D01*
X178963368Y-77076525D01*
X178756525Y-77283368D01*
X178594010Y-77526589D01*
X178482068Y-77796842D01*
X178425000Y-78083740D01*
X178425000Y-78376260D01*
X178482068Y-78663158D01*
X178594010Y-78933411D01*
X178756525Y-79176632D01*
X178963368Y-79383475D01*
X179137760Y-79500000D01*
X178963368Y-79616525D01*
X178756525Y-79823368D01*
X178594010Y-80066589D01*
X178482068Y-80336842D01*
X178425000Y-80623740D01*
X178425000Y-80916260D01*
X178482068Y-81203158D01*
X178594010Y-81473411D01*
X178756525Y-81716632D01*
X178963368Y-81923475D01*
X179137760Y-82040000D01*
X178963368Y-82156525D01*
X178756525Y-82363368D01*
X178594010Y-82606589D01*
X178482068Y-82876842D01*
X178425000Y-83163740D01*
X178425000Y-83456260D01*
X178482068Y-83743158D01*
X178594010Y-84013411D01*
X178756525Y-84256632D01*
X178963368Y-84463475D01*
X179137760Y-84580000D01*
X178963368Y-84696525D01*
X178756525Y-84903368D01*
X178594010Y-85146589D01*
X178482068Y-85416842D01*
X178425000Y-85703740D01*
X178425000Y-85996260D01*
X178482068Y-86283158D01*
X178594010Y-86553411D01*
X178756525Y-86796632D01*
X178963368Y-87003475D01*
X179206589Y-87165990D01*
X179476842Y-87277932D01*
X179763740Y-87335000D01*
X180056260Y-87335000D01*
X180343158Y-87277932D01*
X180613411Y-87165990D01*
X180856632Y-87003475D01*
X181063475Y-86796632D01*
X181180000Y-86622240D01*
X181296525Y-86796632D01*
X181503368Y-87003475D01*
X181746589Y-87165990D01*
X182016842Y-87277932D01*
X182303740Y-87335000D01*
X182596260Y-87335000D01*
X182883158Y-87277932D01*
X183153411Y-87165990D01*
X183396632Y-87003475D01*
X183603475Y-86796632D01*
X183765990Y-86553411D01*
X183877932Y-86283158D01*
X183935000Y-85996260D01*
X183935000Y-85703740D01*
X183877932Y-85416842D01*
X183765990Y-85146589D01*
X183603475Y-84903368D01*
X183396632Y-84696525D01*
X183222240Y-84580000D01*
X183396632Y-84463475D01*
X183603475Y-84256632D01*
X183765990Y-84013411D01*
X183877932Y-83743158D01*
X183935000Y-83456260D01*
X183935000Y-83163740D01*
X183877932Y-82876842D01*
X183765990Y-82606589D01*
X183603475Y-82363368D01*
X183396632Y-82156525D01*
X183222240Y-82040000D01*
X183396632Y-81923475D01*
X183603475Y-81716632D01*
X183765990Y-81473411D01*
X183877932Y-81203158D01*
X183935000Y-80916260D01*
X183935000Y-80623740D01*
X183877932Y-80336842D01*
X183765990Y-80066589D01*
X183603475Y-79823368D01*
X183396632Y-79616525D01*
X183222240Y-79500000D01*
X183396632Y-79383475D01*
X183603475Y-79176632D01*
X183765990Y-78933411D01*
X183877932Y-78663158D01*
X183935000Y-78376260D01*
X183935000Y-78083740D01*
X183877932Y-77796842D01*
X183765990Y-77526589D01*
X183603475Y-77283368D01*
X183396632Y-77076525D01*
X183222240Y-76960000D01*
X183396632Y-76843475D01*
X183603475Y-76636632D01*
X183765990Y-76393411D01*
X183877932Y-76123158D01*
X183935000Y-75836260D01*
X183935000Y-75543740D01*
X183877932Y-75256842D01*
X183765990Y-74986589D01*
X183603475Y-74743368D01*
X183396632Y-74536525D01*
X183222240Y-74420000D01*
X183396632Y-74303475D01*
X183603475Y-74096632D01*
X183765990Y-73853411D01*
X183877932Y-73583158D01*
X183935000Y-73296260D01*
X183935000Y-73003740D01*
X183877932Y-72716842D01*
X183765990Y-72446589D01*
X183603475Y-72203368D01*
X183396632Y-71996525D01*
X183222240Y-71880000D01*
X183396632Y-71763475D01*
X183603475Y-71556632D01*
X183765990Y-71313411D01*
X183877932Y-71043158D01*
X183935000Y-70756260D01*
X183935000Y-70463740D01*
X183877932Y-70176842D01*
X183765990Y-69906589D01*
X183603475Y-69663368D01*
X183396632Y-69456525D01*
X183222240Y-69340000D01*
X183396632Y-69223475D01*
X183603475Y-69016632D01*
X183765990Y-68773411D01*
X183877932Y-68503158D01*
X183935000Y-68216260D01*
X183935000Y-67923740D01*
X183877932Y-67636842D01*
X183765990Y-67366589D01*
X183603475Y-67123368D01*
X183396632Y-66916525D01*
X183386867Y-66910000D01*
X187421928Y-66910000D01*
X187421928Y-68610000D01*
X187434188Y-68734482D01*
X187470498Y-68854180D01*
X187529463Y-68964494D01*
X187608815Y-69061185D01*
X187705506Y-69140537D01*
X187815820Y-69199502D01*
X187888380Y-69221513D01*
X187756525Y-69353368D01*
X187594010Y-69596589D01*
X187482068Y-69866842D01*
X187425000Y-70153740D01*
X187425000Y-70446260D01*
X187482068Y-70733158D01*
X187594010Y-71003411D01*
X187756525Y-71246632D01*
X187963368Y-71453475D01*
X188137760Y-71570000D01*
X187963368Y-71686525D01*
X187756525Y-71893368D01*
X187594010Y-72136589D01*
X187482068Y-72406842D01*
X187425000Y-72693740D01*
X187425000Y-72986260D01*
X187482068Y-73273158D01*
X187594010Y-73543411D01*
X187756525Y-73786632D01*
X187963368Y-73993475D01*
X188137760Y-74110000D01*
X187963368Y-74226525D01*
X187756525Y-74433368D01*
X187594010Y-74676589D01*
X187482068Y-74946842D01*
X187425000Y-75233740D01*
X187425000Y-75526260D01*
X187482068Y-75813158D01*
X187594010Y-76083411D01*
X187756525Y-76326632D01*
X187963368Y-76533475D01*
X188137760Y-76650000D01*
X187963368Y-76766525D01*
X187756525Y-76973368D01*
X187594010Y-77216589D01*
X187482068Y-77486842D01*
X187425000Y-77773740D01*
X187425000Y-78066260D01*
X187482068Y-78353158D01*
X187594010Y-78623411D01*
X187756525Y-78866632D01*
X187963368Y-79073475D01*
X188137760Y-79190000D01*
X187963368Y-79306525D01*
X187756525Y-79513368D01*
X187594010Y-79756589D01*
X187482068Y-80026842D01*
X187425000Y-80313740D01*
X187425000Y-80606260D01*
X187482068Y-80893158D01*
X187594010Y-81163411D01*
X187756525Y-81406632D01*
X187963368Y-81613475D01*
X188137760Y-81730000D01*
X187963368Y-81846525D01*
X187756525Y-82053368D01*
X187594010Y-82296589D01*
X187482068Y-82566842D01*
X187425000Y-82853740D01*
X187425000Y-83146260D01*
X187482068Y-83433158D01*
X187594010Y-83703411D01*
X187756525Y-83946632D01*
X187963368Y-84153475D01*
X188137760Y-84270000D01*
X187963368Y-84386525D01*
X187756525Y-84593368D01*
X187594010Y-84836589D01*
X187482068Y-85106842D01*
X187425000Y-85393740D01*
X187425000Y-85686260D01*
X187482068Y-85973158D01*
X187594010Y-86243411D01*
X187756525Y-86486632D01*
X187963368Y-86693475D01*
X188206589Y-86855990D01*
X188476842Y-86967932D01*
X188763740Y-87025000D01*
X189056260Y-87025000D01*
X189343158Y-86967932D01*
X189613411Y-86855990D01*
X189856632Y-86693475D01*
X190063475Y-86486632D01*
X190180000Y-86312240D01*
X190296525Y-86486632D01*
X190503368Y-86693475D01*
X190746589Y-86855990D01*
X191016842Y-86967932D01*
X191303740Y-87025000D01*
X191596260Y-87025000D01*
X191883158Y-86967932D01*
X192153411Y-86855990D01*
X192396632Y-86693475D01*
X192603475Y-86486632D01*
X192765990Y-86243411D01*
X192877932Y-85973158D01*
X192935000Y-85686260D01*
X192935000Y-85393740D01*
X192877932Y-85106842D01*
X192765990Y-84836589D01*
X192603475Y-84593368D01*
X192396632Y-84386525D01*
X192222240Y-84270000D01*
X192396632Y-84153475D01*
X192603475Y-83946632D01*
X192765990Y-83703411D01*
X192877932Y-83433158D01*
X192935000Y-83146260D01*
X192935000Y-82853740D01*
X192877932Y-82566842D01*
X192765990Y-82296589D01*
X192603475Y-82053368D01*
X192396632Y-81846525D01*
X192222240Y-81730000D01*
X192396632Y-81613475D01*
X192603475Y-81406632D01*
X192765990Y-81163411D01*
X192877932Y-80893158D01*
X192935000Y-80606260D01*
X192935000Y-80313740D01*
X192877932Y-80026842D01*
X192765990Y-79756589D01*
X192603475Y-79513368D01*
X192396632Y-79306525D01*
X192222240Y-79190000D01*
X192396632Y-79073475D01*
X192603475Y-78866632D01*
X192765990Y-78623411D01*
X192877932Y-78353158D01*
X192935000Y-78066260D01*
X192935000Y-77773740D01*
X192877932Y-77486842D01*
X192765990Y-77216589D01*
X192603475Y-76973368D01*
X192396632Y-76766525D01*
X192222240Y-76650000D01*
X192396632Y-76533475D01*
X192603475Y-76326632D01*
X192765990Y-76083411D01*
X192877932Y-75813158D01*
X192935000Y-75526260D01*
X192935000Y-75233740D01*
X192877932Y-74946842D01*
X192765990Y-74676589D01*
X192603475Y-74433368D01*
X192396632Y-74226525D01*
X192222240Y-74110000D01*
X192396632Y-73993475D01*
X192603475Y-73786632D01*
X192765990Y-73543411D01*
X192877932Y-73273158D01*
X192935000Y-72986260D01*
X192935000Y-72693740D01*
X192877932Y-72406842D01*
X192765990Y-72136589D01*
X192603475Y-71893368D01*
X192396632Y-71686525D01*
X192222240Y-71570000D01*
X192396632Y-71453475D01*
X192603475Y-71246632D01*
X192765990Y-71003411D01*
X192877932Y-70733158D01*
X192935000Y-70446260D01*
X192935000Y-70153740D01*
X192877932Y-69866842D01*
X192765990Y-69596589D01*
X192603475Y-69353368D01*
X192396632Y-69146525D01*
X192222240Y-69030000D01*
X192396632Y-68913475D01*
X192603475Y-68706632D01*
X192765990Y-68463411D01*
X192877932Y-68193158D01*
X192935000Y-67906260D01*
X192935000Y-67613740D01*
X192877932Y-67326842D01*
X192765990Y-67056589D01*
X192603475Y-66813368D01*
X192396632Y-66606525D01*
X192153411Y-66444010D01*
X191883158Y-66332068D01*
X191596260Y-66275000D01*
X191303740Y-66275000D01*
X191016842Y-66332068D01*
X190746589Y-66444010D01*
X190503368Y-66606525D01*
X190371513Y-66738380D01*
X190349502Y-66665820D01*
X190290537Y-66555506D01*
X190211185Y-66458815D01*
X190114494Y-66379463D01*
X190004180Y-66320498D01*
X189884482Y-66284188D01*
X189760000Y-66271928D01*
X188060000Y-66271928D01*
X187935518Y-66284188D01*
X187815820Y-66320498D01*
X187705506Y-66379463D01*
X187608815Y-66458815D01*
X187529463Y-66555506D01*
X187470498Y-66665820D01*
X187434188Y-66785518D01*
X187421928Y-66910000D01*
X183386867Y-66910000D01*
X183153411Y-66754010D01*
X182883158Y-66642068D01*
X182596260Y-66585000D01*
X182303740Y-66585000D01*
X182016842Y-66642068D01*
X181746589Y-66754010D01*
X181503368Y-66916525D01*
X181371513Y-67048380D01*
X181349502Y-66975820D01*
X181290537Y-66865506D01*
X181211185Y-66768815D01*
X181114494Y-66689463D01*
X181004180Y-66630498D01*
X180884482Y-66594188D01*
X180760000Y-66581928D01*
X179060000Y-66581928D01*
X178935518Y-66594188D01*
X178815820Y-66630498D01*
X178705506Y-66689463D01*
X178608815Y-66768815D01*
X178529463Y-66865506D01*
X178470498Y-66975820D01*
X178434188Y-67095518D01*
X178421928Y-67220000D01*
X152926408Y-67220000D01*
X152955000Y-67076260D01*
X152955000Y-66783740D01*
X152897932Y-66496842D01*
X152785990Y-66226589D01*
X152623475Y-65983368D01*
X152416632Y-65776525D01*
X152173411Y-65614010D01*
X151903158Y-65502068D01*
X151616260Y-65445000D01*
X151323740Y-65445000D01*
X151036842Y-65502068D01*
X150766589Y-65614010D01*
X150523368Y-65776525D01*
X150391513Y-65908380D01*
X150369502Y-65835820D01*
X150310537Y-65725506D01*
X150231185Y-65628815D01*
X150134494Y-65549463D01*
X150024180Y-65490498D01*
X149904482Y-65454188D01*
X149780000Y-65441928D01*
X148080000Y-65441928D01*
X147955518Y-65454188D01*
X147835820Y-65490498D01*
X147725506Y-65549463D01*
X147628815Y-65628815D01*
X147549463Y-65725506D01*
X147490498Y-65835820D01*
X147454188Y-65955518D01*
X147441928Y-66080000D01*
X147441928Y-67780000D01*
X147454188Y-67904482D01*
X147490498Y-68024180D01*
X147549463Y-68134494D01*
X147628815Y-68231185D01*
X147725506Y-68310537D01*
X147835820Y-68369502D01*
X147908380Y-68391513D01*
X147776525Y-68523368D01*
X147614010Y-68766589D01*
X147502068Y-69036842D01*
X147445000Y-69323740D01*
X147445000Y-69616260D01*
X147502068Y-69903158D01*
X147614010Y-70173411D01*
X147776525Y-70416632D01*
X147983368Y-70623475D01*
X148157760Y-70740000D01*
X147983368Y-70856525D01*
X147776525Y-71063368D01*
X147614010Y-71306589D01*
X147502068Y-71576842D01*
X147445000Y-71863740D01*
X147445000Y-72156260D01*
X147502068Y-72443158D01*
X147614010Y-72713411D01*
X147776525Y-72956632D01*
X147983368Y-73163475D01*
X148157760Y-73280000D01*
X147983368Y-73396525D01*
X147776525Y-73603368D01*
X147614010Y-73846589D01*
X147502068Y-74116842D01*
X147445000Y-74403740D01*
X147445000Y-74696260D01*
X147502068Y-74983158D01*
X147614010Y-75253411D01*
X147776525Y-75496632D01*
X147983368Y-75703475D01*
X148157760Y-75820000D01*
X147983368Y-75936525D01*
X147776525Y-76143368D01*
X147614010Y-76386589D01*
X147502068Y-76656842D01*
X147445000Y-76943740D01*
X147445000Y-77236260D01*
X147502068Y-77523158D01*
X147614010Y-77793411D01*
X147776525Y-78036632D01*
X147983368Y-78243475D01*
X148157760Y-78360000D01*
X147983368Y-78476525D01*
X147776525Y-78683368D01*
X147614010Y-78926589D01*
X147502068Y-79196842D01*
X147445000Y-79483740D01*
X147445000Y-79776260D01*
X147502068Y-80063158D01*
X147614010Y-80333411D01*
X147776525Y-80576632D01*
X147983368Y-80783475D01*
X148157760Y-80900000D01*
X147983368Y-81016525D01*
X147776525Y-81223368D01*
X147614010Y-81466589D01*
X147502068Y-81736842D01*
X147445000Y-82023740D01*
X147445000Y-82316260D01*
X147502068Y-82603158D01*
X147614010Y-82873411D01*
X147776525Y-83116632D01*
X147983368Y-83323475D01*
X148157760Y-83440000D01*
X147983368Y-83556525D01*
X147776525Y-83763368D01*
X147614010Y-84006589D01*
X147502068Y-84276842D01*
X147445000Y-84563740D01*
X147445000Y-84856260D01*
X147502068Y-85143158D01*
X147614010Y-85413411D01*
X147776525Y-85656632D01*
X147983368Y-85863475D01*
X148226589Y-86025990D01*
X148495818Y-86137508D01*
X148449300Y-86151619D01*
X148299898Y-86231476D01*
X148168946Y-86338946D01*
X148142016Y-86371760D01*
X147979090Y-86534686D01*
X147878102Y-86554774D01*
X147689744Y-86632795D01*
X147520226Y-86746063D01*
X147376063Y-86890226D01*
X147262795Y-87059744D01*
X147184774Y-87248102D01*
X147145000Y-87448061D01*
X135071772Y-87448061D01*
X135049774Y-87426063D01*
X134880256Y-87312795D01*
X134691898Y-87234774D01*
X134491939Y-87195000D01*
X134288061Y-87195000D01*
X134088102Y-87234774D01*
X133899744Y-87312795D01*
X133814130Y-87370000D01*
X125726224Y-87370000D01*
X124340000Y-85983777D01*
X124340000Y-82793740D01*
X124955000Y-82793740D01*
X124955000Y-83086260D01*
X125012068Y-83373158D01*
X125124010Y-83643411D01*
X125286525Y-83886632D01*
X125493368Y-84093475D01*
X125667760Y-84210000D01*
X125493368Y-84326525D01*
X125286525Y-84533368D01*
X125124010Y-84776589D01*
X125012068Y-85046842D01*
X124955000Y-85333740D01*
X124955000Y-85626260D01*
X125012068Y-85913158D01*
X125124010Y-86183411D01*
X125286525Y-86426632D01*
X125493368Y-86633475D01*
X125736589Y-86795990D01*
X126006842Y-86907932D01*
X126293740Y-86965000D01*
X126586260Y-86965000D01*
X126873158Y-86907932D01*
X127143411Y-86795990D01*
X127386632Y-86633475D01*
X127593475Y-86426632D01*
X127710000Y-86252240D01*
X127826525Y-86426632D01*
X128033368Y-86633475D01*
X128276589Y-86795990D01*
X128546842Y-86907932D01*
X128833740Y-86965000D01*
X129126260Y-86965000D01*
X129413158Y-86907932D01*
X129683411Y-86795990D01*
X129926632Y-86633475D01*
X130133475Y-86426632D01*
X130250000Y-86252240D01*
X130366525Y-86426632D01*
X130573368Y-86633475D01*
X130816589Y-86795990D01*
X131086842Y-86907932D01*
X131373740Y-86965000D01*
X131666260Y-86965000D01*
X131953158Y-86907932D01*
X132223411Y-86795990D01*
X132466632Y-86633475D01*
X132673475Y-86426632D01*
X132790000Y-86252240D01*
X132906525Y-86426632D01*
X133113368Y-86633475D01*
X133356589Y-86795990D01*
X133626842Y-86907932D01*
X133913740Y-86965000D01*
X134206260Y-86965000D01*
X134493158Y-86907932D01*
X134763411Y-86795990D01*
X135006632Y-86633475D01*
X135213475Y-86426632D01*
X135330000Y-86252240D01*
X135446525Y-86426632D01*
X135653368Y-86633475D01*
X135896589Y-86795990D01*
X136166842Y-86907932D01*
X136453740Y-86965000D01*
X136746260Y-86965000D01*
X137033158Y-86907932D01*
X137303411Y-86795990D01*
X137546632Y-86633475D01*
X137753475Y-86426632D01*
X137870000Y-86252240D01*
X137986525Y-86426632D01*
X138193368Y-86633475D01*
X138436589Y-86795990D01*
X138706842Y-86907932D01*
X138993740Y-86965000D01*
X139286260Y-86965000D01*
X139573158Y-86907932D01*
X139843411Y-86795990D01*
X140086632Y-86633475D01*
X140293475Y-86426632D01*
X140410000Y-86252240D01*
X140526525Y-86426632D01*
X140733368Y-86633475D01*
X140976589Y-86795990D01*
X141246842Y-86907932D01*
X141533740Y-86965000D01*
X141826260Y-86965000D01*
X142113158Y-86907932D01*
X142383411Y-86795990D01*
X142626632Y-86633475D01*
X142833475Y-86426632D01*
X142950000Y-86252240D01*
X143066525Y-86426632D01*
X143273368Y-86633475D01*
X143516589Y-86795990D01*
X143786842Y-86907932D01*
X144073740Y-86965000D01*
X144366260Y-86965000D01*
X144653158Y-86907932D01*
X144923411Y-86795990D01*
X145166632Y-86633475D01*
X145373475Y-86426632D01*
X145535990Y-86183411D01*
X145647932Y-85913158D01*
X145705000Y-85626260D01*
X145705000Y-85333740D01*
X145647932Y-85046842D01*
X145535990Y-84776589D01*
X145373475Y-84533368D01*
X145241620Y-84401513D01*
X145314180Y-84379502D01*
X145424494Y-84320537D01*
X145521185Y-84241185D01*
X145600537Y-84144494D01*
X145659502Y-84034180D01*
X145695812Y-83914482D01*
X145708072Y-83790000D01*
X145708072Y-82090000D01*
X145695812Y-81965518D01*
X145659502Y-81845820D01*
X145600537Y-81735506D01*
X145521185Y-81638815D01*
X145424494Y-81559463D01*
X145314180Y-81500498D01*
X145194482Y-81464188D01*
X145070000Y-81451928D01*
X143370000Y-81451928D01*
X143245518Y-81464188D01*
X143125820Y-81500498D01*
X143015506Y-81559463D01*
X142918815Y-81638815D01*
X142839463Y-81735506D01*
X142780498Y-81845820D01*
X142758487Y-81918380D01*
X142626632Y-81786525D01*
X142383411Y-81624010D01*
X142113158Y-81512068D01*
X141826260Y-81455000D01*
X141533740Y-81455000D01*
X141246842Y-81512068D01*
X140976589Y-81624010D01*
X140733368Y-81786525D01*
X140526525Y-81993368D01*
X140410000Y-82167760D01*
X140293475Y-81993368D01*
X140086632Y-81786525D01*
X139843411Y-81624010D01*
X139573158Y-81512068D01*
X139286260Y-81455000D01*
X138993740Y-81455000D01*
X138706842Y-81512068D01*
X138436589Y-81624010D01*
X138193368Y-81786525D01*
X137986525Y-81993368D01*
X137870000Y-82167760D01*
X137753475Y-81993368D01*
X137546632Y-81786525D01*
X137303411Y-81624010D01*
X137033158Y-81512068D01*
X136746260Y-81455000D01*
X136453740Y-81455000D01*
X136166842Y-81512068D01*
X135896589Y-81624010D01*
X135653368Y-81786525D01*
X135446525Y-81993368D01*
X135330000Y-82167760D01*
X135213475Y-81993368D01*
X135006632Y-81786525D01*
X134763411Y-81624010D01*
X134493158Y-81512068D01*
X134206260Y-81455000D01*
X133913740Y-81455000D01*
X133626842Y-81512068D01*
X133356589Y-81624010D01*
X133113368Y-81786525D01*
X132906525Y-81993368D01*
X132790000Y-82167760D01*
X132673475Y-81993368D01*
X132466632Y-81786525D01*
X132223411Y-81624010D01*
X131953158Y-81512068D01*
X131666260Y-81455000D01*
X131373740Y-81455000D01*
X131086842Y-81512068D01*
X130816589Y-81624010D01*
X130573368Y-81786525D01*
X130366525Y-81993368D01*
X130250000Y-82167760D01*
X130133475Y-81993368D01*
X129926632Y-81786525D01*
X129683411Y-81624010D01*
X129413158Y-81512068D01*
X129126260Y-81455000D01*
X128833740Y-81455000D01*
X128546842Y-81512068D01*
X128276589Y-81624010D01*
X128033368Y-81786525D01*
X127826525Y-81993368D01*
X127710000Y-82167760D01*
X127593475Y-81993368D01*
X127386632Y-81786525D01*
X127143411Y-81624010D01*
X126873158Y-81512068D01*
X126586260Y-81455000D01*
X126293740Y-81455000D01*
X126006842Y-81512068D01*
X125736589Y-81624010D01*
X125493368Y-81786525D01*
X125286525Y-81993368D01*
X125124010Y-82236589D01*
X125012068Y-82506842D01*
X124955000Y-82793740D01*
X124340000Y-82793740D01*
X124340000Y-82312238D01*
X124344160Y-82269999D01*
X124340000Y-82227760D01*
X124340000Y-82227754D01*
X124327556Y-82101411D01*
X124327556Y-82101409D01*
X124286334Y-81965518D01*
X124278381Y-81939300D01*
X124198524Y-81789898D01*
X124091054Y-81658946D01*
X124058241Y-81632017D01*
X119887988Y-77461765D01*
X119861054Y-77428946D01*
X119730102Y-77321476D01*
X119580700Y-77241619D01*
X119418589Y-77192444D01*
X119292246Y-77180000D01*
X119292239Y-77180000D01*
X119250000Y-77175840D01*
X119207761Y-77180000D01*
X118005870Y-77180000D01*
X117920256Y-77122795D01*
X117731898Y-77044774D01*
X117531939Y-77005000D01*
X117328061Y-77005000D01*
X117128102Y-77044774D01*
X116939744Y-77122795D01*
X116770226Y-77236063D01*
X116626063Y-77380226D01*
X116512795Y-77549744D01*
X116434774Y-77738102D01*
X116395000Y-77938061D01*
X107780000Y-77938061D01*
X107780000Y-70612238D01*
X107784160Y-70569999D01*
X107780000Y-70527760D01*
X107780000Y-70527754D01*
X107767556Y-70401411D01*
X107718381Y-70239300D01*
X107638524Y-70089898D01*
X107531054Y-69958946D01*
X107498241Y-69932017D01*
X106024673Y-68458450D01*
X106045000Y-68356260D01*
X106045000Y-68063740D01*
X105987932Y-67776842D01*
X105875990Y-67506589D01*
X105713475Y-67263368D01*
X105506632Y-67056525D01*
X105324466Y-66934805D01*
X105441355Y-66865178D01*
X105657588Y-66670269D01*
X105831641Y-66436920D01*
X105956825Y-66174099D01*
X106001476Y-66026890D01*
X105880155Y-65797000D01*
X104687000Y-65797000D01*
X104687000Y-65817000D01*
X104433000Y-65817000D01*
X104433000Y-65797000D01*
X102147000Y-65797000D01*
X102147000Y-65817000D01*
X101893000Y-65817000D01*
X101893000Y-65797000D01*
X100699845Y-65797000D01*
X100578524Y-66026890D01*
X100623175Y-66174099D01*
X100748359Y-66436920D01*
X100922412Y-66670269D01*
X101138645Y-66865178D01*
X101255534Y-66934805D01*
X101073368Y-67056525D01*
X100866525Y-67263368D01*
X100704010Y-67506589D01*
X100592068Y-67776842D01*
X100535000Y-68063740D01*
X100535000Y-68356260D01*
X100592068Y-68643158D01*
X100704010Y-68913411D01*
X100866525Y-69156632D01*
X101073368Y-69363475D01*
X101247760Y-69480000D01*
X101073368Y-69596525D01*
X100866525Y-69803368D01*
X100704010Y-70046589D01*
X100592068Y-70316842D01*
X100535000Y-70603740D01*
X100535000Y-70896260D01*
X100592068Y-71183158D01*
X100704010Y-71453411D01*
X100866525Y-71696632D01*
X101073368Y-71903475D01*
X101247760Y-72020000D01*
X101073368Y-72136525D01*
X100866525Y-72343368D01*
X100808639Y-72430000D01*
X100732238Y-72430000D01*
X100689999Y-72425840D01*
X100647760Y-72430000D01*
X100647754Y-72430000D01*
X100538558Y-72440755D01*
X100521410Y-72442444D01*
X100472235Y-72457361D01*
X100359300Y-72491619D01*
X100209898Y-72571476D01*
X100078946Y-72678946D01*
X100052016Y-72711760D01*
X99061760Y-73702017D01*
X99028947Y-73728946D01*
X98921476Y-73859898D01*
X98841619Y-74009300D01*
X98792444Y-74171411D01*
X98780000Y-74297754D01*
X98780000Y-74297761D01*
X98775840Y-74340000D01*
X98780000Y-74382239D01*
X98780000Y-74576226D01*
X98765840Y-74720000D01*
X98660000Y-74720000D01*
X98660000Y-65313110D01*
X100578524Y-65313110D01*
X100699845Y-65543000D01*
X101893000Y-65543000D01*
X101893000Y-64349186D01*
X102147000Y-64349186D01*
X102147000Y-65543000D01*
X104433000Y-65543000D01*
X104433000Y-64349186D01*
X104687000Y-64349186D01*
X104687000Y-65543000D01*
X105880155Y-65543000D01*
X106001476Y-65313110D01*
X105956825Y-65165901D01*
X105831641Y-64903080D01*
X105657588Y-64669731D01*
X105441355Y-64474822D01*
X105191252Y-64325843D01*
X104916891Y-64228519D01*
X104687000Y-64349186D01*
X104433000Y-64349186D01*
X104203109Y-64228519D01*
X103928748Y-64325843D01*
X103678645Y-64474822D01*
X103462412Y-64669731D01*
X103290000Y-64900880D01*
X103117588Y-64669731D01*
X102901355Y-64474822D01*
X102651252Y-64325843D01*
X102376891Y-64228519D01*
X102147000Y-64349186D01*
X101893000Y-64349186D01*
X101663109Y-64228519D01*
X101388748Y-64325843D01*
X101138645Y-64474822D01*
X100922412Y-64669731D01*
X100748359Y-64903080D01*
X100623175Y-65165901D01*
X100578524Y-65313110D01*
X98660000Y-65313110D01*
X98660000Y-63931800D01*
X109903000Y-63931800D01*
X109903000Y-64810000D01*
G37*
X109903000Y-64810000D02*
X109905358Y-64834359D01*
X109912505Y-64858208D01*
X109924168Y-64880204D01*
X109939897Y-64899502D01*
X109959090Y-64915360D01*
X109981007Y-64927169D01*
X110004807Y-64934476D01*
X110029575Y-64936999D01*
X124613000Y-64985806D01*
X124613000Y-67180000D01*
X124615522Y-67205183D01*
X124622827Y-67228983D01*
X124634634Y-67250902D01*
X124650491Y-67270095D01*
X124669788Y-67285826D01*
X124691782Y-67297491D01*
X124715630Y-67304640D01*
X124740414Y-67306999D01*
X146190414Y-67236999D01*
X146215137Y-67234487D01*
X146238941Y-67227191D01*
X146260863Y-67215392D01*
X146280062Y-67199542D01*
X146295801Y-67180251D01*
X146307473Y-67158260D01*
X146314631Y-67134415D01*
X146316999Y-67109632D01*
X146311174Y-65100200D01*
X158437021Y-65100200D01*
X158433005Y-65538837D01*
X158435393Y-65564539D01*
X158442575Y-65588378D01*
X158454269Y-65610356D01*
X158470027Y-65629632D01*
X158489242Y-65645462D01*
X158511176Y-65657240D01*
X158534987Y-65664512D01*
X158559758Y-65667000D01*
X173913800Y-65696209D01*
X173913800Y-65836800D01*
X173916240Y-65861576D01*
X173923467Y-65885401D01*
X173935203Y-65907357D01*
X173950997Y-65926603D01*
X173970243Y-65942397D01*
X173992199Y-65954133D01*
X174016024Y-65961360D01*
X174040800Y-65963800D01*
X194340000Y-65963800D01*
X194340001Y-100840000D01*
X98660000Y-100840000D01*
X98660000Y-97330000D01*
X102951928Y-97330000D01*
X102964188Y-97454482D01*
X103000498Y-97574180D01*
X103059463Y-97684494D01*
X103138815Y-97781185D01*
X103235506Y-97860537D01*
X103345820Y-97919502D01*
X103465518Y-97955812D01*
X103590000Y-97968072D01*
X104154250Y-97965000D01*
X104313000Y-97806250D01*
X104313000Y-96607000D01*
X104567000Y-96607000D01*
X104567000Y-97806250D01*
X104725750Y-97965000D01*
X105290000Y-97968072D01*
X105414482Y-97955812D01*
X105534180Y-97919502D01*
X105644494Y-97860537D01*
X105741185Y-97781185D01*
X105820537Y-97684494D01*
X105879502Y-97574180D01*
X105915812Y-97454482D01*
X105928072Y-97330000D01*
X105925000Y-96765750D01*
X105766250Y-96607000D01*
X104567000Y-96607000D01*
X104313000Y-96607000D01*
X103113750Y-96607000D01*
X102955000Y-96765750D01*
X102951928Y-97330000D01*
X98660000Y-97330000D01*
X98660000Y-96403740D01*
X109795000Y-96403740D01*
X109795000Y-96696260D01*
X109852068Y-96983158D01*
X109964010Y-97253411D01*
X110126525Y-97496632D01*
X110333368Y-97703475D01*
X110576589Y-97865990D01*
X110846842Y-97977932D01*
X111133740Y-98035000D01*
X111426260Y-98035000D01*
X111713158Y-97977932D01*
X111983411Y-97865990D01*
X112226632Y-97703475D01*
X112433475Y-97496632D01*
X112550000Y-97322240D01*
X112666525Y-97496632D01*
X112873368Y-97703475D01*
X113116589Y-97865990D01*
X113386842Y-97977932D01*
X113673740Y-98035000D01*
X113966260Y-98035000D01*
X114253158Y-97977932D01*
X114523411Y-97865990D01*
X114766632Y-97703475D01*
X114973475Y-97496632D01*
X115090000Y-97322240D01*
X115206525Y-97496632D01*
X115413368Y-97703475D01*
X115656589Y-97865990D01*
X115926842Y-97977932D01*
X116213740Y-98035000D01*
X116506260Y-98035000D01*
X116793158Y-97977932D01*
X117063411Y-97865990D01*
X117306632Y-97703475D01*
X117438487Y-97571620D01*
X117460498Y-97644180D01*
X117519463Y-97754494D01*
X117598815Y-97851185D01*
X117695506Y-97930537D01*
X117805820Y-97989502D01*
X117925518Y-98025812D01*
X118050000Y-98038072D01*
X119750000Y-98038072D01*
X119874482Y-98025812D01*
X119994180Y-97989502D01*
X120104494Y-97930537D01*
X120201185Y-97851185D01*
X120280537Y-97754494D01*
X120339502Y-97644180D01*
X120375812Y-97524482D01*
X120388072Y-97400000D01*
X120388072Y-96440000D01*
X161391928Y-96440000D01*
X161391928Y-98140000D01*
X161404188Y-98264482D01*
X161440498Y-98384180D01*
X161499463Y-98494494D01*
X161578815Y-98591185D01*
X161675506Y-98670537D01*
X161785820Y-98729502D01*
X161905518Y-98765812D01*
X162030000Y-98778072D01*
X163730000Y-98778072D01*
X163854482Y-98765812D01*
X163974180Y-98729502D01*
X164084494Y-98670537D01*
X164181185Y-98591185D01*
X164260537Y-98494494D01*
X164319502Y-98384180D01*
X164341513Y-98311620D01*
X164473368Y-98443475D01*
X164716589Y-98605990D01*
X164986842Y-98717932D01*
X165273740Y-98775000D01*
X165566260Y-98775000D01*
X165853158Y-98717932D01*
X166123411Y-98605990D01*
X166366632Y-98443475D01*
X166573475Y-98236632D01*
X166690000Y-98062240D01*
X166806525Y-98236632D01*
X167013368Y-98443475D01*
X167256589Y-98605990D01*
X167526842Y-98717932D01*
X167813740Y-98775000D01*
X168106260Y-98775000D01*
X168393158Y-98717932D01*
X168663411Y-98605990D01*
X168906632Y-98443475D01*
X169113475Y-98236632D01*
X169230000Y-98062240D01*
X169346525Y-98236632D01*
X169553368Y-98443475D01*
X169796589Y-98605990D01*
X170066842Y-98717932D01*
X170353740Y-98775000D01*
X170646260Y-98775000D01*
X170933158Y-98717932D01*
X171203411Y-98605990D01*
X171446632Y-98443475D01*
X171653475Y-98236632D01*
X171770000Y-98062240D01*
X171886525Y-98236632D01*
X172093368Y-98443475D01*
X172336589Y-98605990D01*
X172606842Y-98717932D01*
X172893740Y-98775000D01*
X173186260Y-98775000D01*
X173473158Y-98717932D01*
X173743411Y-98605990D01*
X173986632Y-98443475D01*
X174193475Y-98236632D01*
X174310000Y-98062240D01*
X174426525Y-98236632D01*
X174633368Y-98443475D01*
X174876589Y-98605990D01*
X175146842Y-98717932D01*
X175433740Y-98775000D01*
X175726260Y-98775000D01*
X176013158Y-98717932D01*
X176283411Y-98605990D01*
X176526632Y-98443475D01*
X176733475Y-98236632D01*
X176850000Y-98062240D01*
X176966525Y-98236632D01*
X177173368Y-98443475D01*
X177416589Y-98605990D01*
X177686842Y-98717932D01*
X177973740Y-98775000D01*
X178266260Y-98775000D01*
X178553158Y-98717932D01*
X178823411Y-98605990D01*
X179066632Y-98443475D01*
X179273475Y-98236632D01*
X179390000Y-98062240D01*
X179506525Y-98236632D01*
X179713368Y-98443475D01*
X179956589Y-98605990D01*
X180226842Y-98717932D01*
X180513740Y-98775000D01*
X180806260Y-98775000D01*
X181093158Y-98717932D01*
X181363411Y-98605990D01*
X181606632Y-98443475D01*
X181813475Y-98236632D01*
X181975990Y-97993411D01*
X182087932Y-97723158D01*
X182145000Y-97436260D01*
X182145000Y-97143740D01*
X182087932Y-96856842D01*
X181975990Y-96586589D01*
X181813475Y-96343368D01*
X181606632Y-96136525D01*
X181432240Y-96020000D01*
X181606632Y-95903475D01*
X181813475Y-95696632D01*
X181975990Y-95453411D01*
X182087932Y-95183158D01*
X182145000Y-94896260D01*
X182145000Y-94603740D01*
X182087932Y-94316842D01*
X181975990Y-94046589D01*
X181813475Y-93803368D01*
X181606632Y-93596525D01*
X181363411Y-93434010D01*
X181093158Y-93322068D01*
X180806260Y-93265000D01*
X180513740Y-93265000D01*
X180226842Y-93322068D01*
X179956589Y-93434010D01*
X179713368Y-93596525D01*
X179506525Y-93803368D01*
X179390000Y-93977760D01*
X179273475Y-93803368D01*
X179066632Y-93596525D01*
X178823411Y-93434010D01*
X178553158Y-93322068D01*
X178266260Y-93265000D01*
X177973740Y-93265000D01*
X177686842Y-93322068D01*
X177416589Y-93434010D01*
X177173368Y-93596525D01*
X176966525Y-93803368D01*
X176850000Y-93977760D01*
X176733475Y-93803368D01*
X176526632Y-93596525D01*
X176283411Y-93434010D01*
X176013158Y-93322068D01*
X175726260Y-93265000D01*
X175433740Y-93265000D01*
X175146842Y-93322068D01*
X174876589Y-93434010D01*
X174633368Y-93596525D01*
X174426525Y-93803368D01*
X174310000Y-93977760D01*
X174193475Y-93803368D01*
X173986632Y-93596525D01*
X173743411Y-93434010D01*
X173473158Y-93322068D01*
X173186260Y-93265000D01*
X172893740Y-93265000D01*
X172606842Y-93322068D01*
X172336589Y-93434010D01*
X172093368Y-93596525D01*
X171886525Y-93803368D01*
X171770000Y-93977760D01*
X171653475Y-93803368D01*
X171446632Y-93596525D01*
X171203411Y-93434010D01*
X170933158Y-93322068D01*
X170646260Y-93265000D01*
X170353740Y-93265000D01*
X170066842Y-93322068D01*
X169796589Y-93434010D01*
X169553368Y-93596525D01*
X169346525Y-93803368D01*
X169230000Y-93977760D01*
X169113475Y-93803368D01*
X168906632Y-93596525D01*
X168663411Y-93434010D01*
X168393158Y-93322068D01*
X168106260Y-93265000D01*
X167813740Y-93265000D01*
X167526842Y-93322068D01*
X167256589Y-93434010D01*
X167013368Y-93596525D01*
X166806525Y-93803368D01*
X166690000Y-93977760D01*
X166573475Y-93803368D01*
X166366632Y-93596525D01*
X166123411Y-93434010D01*
X165853158Y-93322068D01*
X165566260Y-93265000D01*
X165273740Y-93265000D01*
X164986842Y-93322068D01*
X164716589Y-93434010D01*
X164473368Y-93596525D01*
X164266525Y-93803368D01*
X164150000Y-93977760D01*
X164033475Y-93803368D01*
X163826632Y-93596525D01*
X163583411Y-93434010D01*
X163313158Y-93322068D01*
X163026260Y-93265000D01*
X162733740Y-93265000D01*
X162446842Y-93322068D01*
X162176589Y-93434010D01*
X161933368Y-93596525D01*
X161726525Y-93803368D01*
X161564010Y-94046589D01*
X161452068Y-94316842D01*
X161395000Y-94603740D01*
X161395000Y-94896260D01*
X161452068Y-95183158D01*
X161564010Y-95453411D01*
X161726525Y-95696632D01*
X161858380Y-95828487D01*
X161785820Y-95850498D01*
X161675506Y-95909463D01*
X161578815Y-95988815D01*
X161499463Y-96085506D01*
X161440498Y-96195820D01*
X161404188Y-96315518D01*
X161391928Y-96440000D01*
X120388072Y-96440000D01*
X120388072Y-95700000D01*
X120375812Y-95575518D01*
X120339502Y-95455820D01*
X120280537Y-95345506D01*
X120201185Y-95248815D01*
X120104494Y-95169463D01*
X119994180Y-95110498D01*
X119874482Y-95074188D01*
X119750000Y-95061928D01*
X118050000Y-95061928D01*
X117925518Y-95074188D01*
X117805820Y-95110498D01*
X117695506Y-95169463D01*
X117598815Y-95248815D01*
X117519463Y-95345506D01*
X117460498Y-95455820D01*
X117438487Y-95528380D01*
X117306632Y-95396525D01*
X117063411Y-95234010D01*
X116793158Y-95122068D01*
X116506260Y-95065000D01*
X116213740Y-95065000D01*
X115926842Y-95122068D01*
X115656589Y-95234010D01*
X115413368Y-95396525D01*
X115206525Y-95603368D01*
X115090000Y-95777760D01*
X114973475Y-95603368D01*
X114766632Y-95396525D01*
X114523411Y-95234010D01*
X114253158Y-95122068D01*
X113966260Y-95065000D01*
X113673740Y-95065000D01*
X113386842Y-95122068D01*
X113116589Y-95234010D01*
X112873368Y-95396525D01*
X112666525Y-95603368D01*
X112550000Y-95777760D01*
X112433475Y-95603368D01*
X112226632Y-95396525D01*
X111983411Y-95234010D01*
X111713158Y-95122068D01*
X111426260Y-95065000D01*
X111133740Y-95065000D01*
X110846842Y-95122068D01*
X110576589Y-95234010D01*
X110333368Y-95396525D01*
X110126525Y-95603368D01*
X109964010Y-95846589D01*
X109852068Y-96116842D01*
X109795000Y-96403740D01*
X98660000Y-96403740D01*
X98660000Y-95630000D01*
X102951928Y-95630000D01*
X102955000Y-96194250D01*
X103113750Y-96353000D01*
X104313000Y-96353000D01*
X104313000Y-94067000D01*
X104567000Y-94067000D01*
X104567000Y-96353000D01*
X105766250Y-96353000D01*
X105925000Y-96194250D01*
X105928072Y-95630000D01*
X105915812Y-95505518D01*
X105879502Y-95385820D01*
X105820537Y-95275506D01*
X105741185Y-95178815D01*
X105644494Y-95099463D01*
X105534180Y-95040498D01*
X105453534Y-95016034D01*
X105537588Y-94940269D01*
X105711641Y-94706920D01*
X105836825Y-94444099D01*
X105881476Y-94296890D01*
X105760155Y-94067000D01*
X104567000Y-94067000D01*
X104313000Y-94067000D01*
X103119845Y-94067000D01*
X102998524Y-94296890D01*
X103043175Y-94444099D01*
X103168359Y-94706920D01*
X103342412Y-94940269D01*
X103426466Y-95016034D01*
X103345820Y-95040498D01*
X103235506Y-95099463D01*
X103138815Y-95178815D01*
X103059463Y-95275506D01*
X103000498Y-95385820D01*
X102964188Y-95505518D01*
X102951928Y-95630000D01*
X98660000Y-95630000D01*
X98660000Y-91756890D01*
X102998524Y-91756890D01*
X103043175Y-91904099D01*
X103168359Y-92166920D01*
X103342412Y-92400269D01*
X103558645Y-92595178D01*
X103684255Y-92670000D01*
X103558645Y-92744822D01*
X103342412Y-92939731D01*
X103168359Y-93173080D01*
X103043175Y-93435901D01*
X102998524Y-93583110D01*
X103119845Y-93813000D01*
X104313000Y-93813000D01*
X104313000Y-91527000D01*
X104567000Y-91527000D01*
X104567000Y-93813000D01*
X105760155Y-93813000D01*
X105881476Y-93583110D01*
X105836825Y-93435901D01*
X105711641Y-93173080D01*
X105537588Y-92939731D01*
X105321355Y-92744822D01*
X105195745Y-92670000D01*
X105321355Y-92595178D01*
X105537588Y-92400269D01*
X105711641Y-92166920D01*
X105836825Y-91904099D01*
X105881476Y-91756890D01*
X105760155Y-91527000D01*
X104567000Y-91527000D01*
X104313000Y-91527000D01*
X103119845Y-91527000D01*
X102998524Y-91756890D01*
X98660000Y-91756890D01*
X98660000Y-89216890D01*
X102998524Y-89216890D01*
X103043175Y-89364099D01*
X103168359Y-89626920D01*
X103342412Y-89860269D01*
X103558645Y-90055178D01*
X103684255Y-90130000D01*
X103558645Y-90204822D01*
X103342412Y-90399731D01*
X103168359Y-90633080D01*
X103043175Y-90895901D01*
X102998524Y-91043110D01*
X103119845Y-91273000D01*
X104313000Y-91273000D01*
X104313000Y-88987000D01*
X104567000Y-88987000D01*
X104567000Y-91273000D01*
X105760155Y-91273000D01*
X105881476Y-91043110D01*
X105836825Y-90895901D01*
X105711641Y-90633080D01*
X105537588Y-90399731D01*
X105321355Y-90204822D01*
X105195745Y-90130000D01*
X105321355Y-90055178D01*
X105537588Y-89860269D01*
X105711641Y-89626920D01*
X105836825Y-89364099D01*
X105881476Y-89216890D01*
X105760155Y-88987000D01*
X104567000Y-88987000D01*
X104313000Y-88987000D01*
X103119845Y-88987000D01*
X102998524Y-89216890D01*
X98660000Y-89216890D01*
X98660000Y-88503110D01*
X102998524Y-88503110D01*
X103119845Y-88733000D01*
X104313000Y-88733000D01*
X104313000Y-87539186D01*
X104567000Y-87539186D01*
X104567000Y-88733000D01*
X105760155Y-88733000D01*
X105881476Y-88503110D01*
X105836825Y-88355901D01*
X105711641Y-88093080D01*
X105537588Y-87859731D01*
X105321355Y-87664822D01*
X105071252Y-87515843D01*
X104796891Y-87418519D01*
X104567000Y-87539186D01*
X104313000Y-87539186D01*
X104083109Y-87418519D01*
X103808748Y-87515843D01*
X103558645Y-87664822D01*
X103342412Y-87859731D01*
X103168359Y-88093080D01*
X103043175Y-88355901D01*
X102998524Y-88503110D01*
X98660000Y-88503110D01*
X98660000Y-74720000D01*
X98765840Y-74720000D01*
X98780001Y-74863784D01*
X98780000Y-85877761D01*
X98775840Y-85920000D01*
X98780000Y-85962239D01*
X98780000Y-85962245D01*
X98792444Y-86088588D01*
X98841619Y-86250699D01*
X98921476Y-86400101D01*
X99028946Y-86531054D01*
X99061765Y-86557988D01*
X99412012Y-86908235D01*
X99438946Y-86941054D01*
X99569898Y-87048524D01*
X99680703Y-87107750D01*
X99719299Y-87128381D01*
X99881410Y-87177556D01*
X100050000Y-87194161D01*
X100092246Y-87190000D01*
X105783777Y-87190000D01*
X110460000Y-91866224D01*
X110459999Y-92620263D01*
X110429744Y-92632795D01*
X110260226Y-92746063D01*
X110116063Y-92890226D01*
X110002795Y-93059744D01*
X109924774Y-93248102D01*
X109885000Y-93448061D01*
X109885000Y-93651939D01*
X109924774Y-93851898D01*
X110002795Y-94040256D01*
X110116063Y-94209774D01*
X110260226Y-94353937D01*
X110429744Y-94467205D01*
X110618102Y-94545226D01*
X110818061Y-94585000D01*
X111021939Y-94585000D01*
X111221898Y-94545226D01*
X111410256Y-94467205D01*
X111579774Y-94353937D01*
X111723937Y-94209774D01*
X111837205Y-94040256D01*
X111915226Y-93851898D01*
X111934013Y-93757448D01*
X112038523Y-93630103D01*
X112118380Y-93480701D01*
X112126316Y-93454538D01*
X138816164Y-93454538D01*
X138816164Y-93705462D01*
X138865116Y-93951564D01*
X138961141Y-94183388D01*
X139100547Y-94392023D01*
X139277977Y-94569453D01*
X139486612Y-94708859D01*
X139718436Y-94804884D01*
X139964538Y-94853836D01*
X140215462Y-94853836D01*
X140461564Y-94804884D01*
X140693388Y-94708859D01*
X140902023Y-94569453D01*
X141079453Y-94392023D01*
X141218859Y-94183388D01*
X141314884Y-93951564D01*
X141363836Y-93705462D01*
X141363836Y-93454538D01*
X141314884Y-93208436D01*
X141218859Y-92976612D01*
X141079453Y-92767977D01*
X140991476Y-92680000D01*
X141089453Y-92582023D01*
X141228859Y-92373388D01*
X141324884Y-92141564D01*
X141373836Y-91895462D01*
X141373836Y-91644538D01*
X141324884Y-91398436D01*
X141228859Y-91166612D01*
X141089453Y-90957977D01*
X140912023Y-90780547D01*
X140703388Y-90641141D01*
X140471564Y-90545116D01*
X140225462Y-90496164D01*
X139974538Y-90496164D01*
X139728436Y-90545116D01*
X139496612Y-90641141D01*
X139287977Y-90780547D01*
X139110547Y-90957977D01*
X138971141Y-91166612D01*
X138875116Y-91398436D01*
X138826164Y-91644538D01*
X138826164Y-91895462D01*
X138875116Y-92141564D01*
X138971141Y-92373388D01*
X139110547Y-92582023D01*
X139198524Y-92670000D01*
X139100547Y-92767977D01*
X138961141Y-92976612D01*
X138865116Y-93208436D01*
X138816164Y-93454538D01*
X112126316Y-93454538D01*
X112167555Y-93318590D01*
X112179999Y-93192247D01*
X112179999Y-93192241D01*
X112184159Y-93150002D01*
X112179999Y-93107763D01*
X112179999Y-91552238D01*
X112184159Y-91509999D01*
X112179999Y-91467760D01*
X112179999Y-91467753D01*
X112167555Y-91341410D01*
X112118380Y-91179299D01*
X112038523Y-91029897D01*
X111931053Y-90898945D01*
X111898240Y-90872016D01*
X106777988Y-85751765D01*
X106751054Y-85718946D01*
X106620102Y-85611476D01*
X106470700Y-85531619D01*
X106308589Y-85482444D01*
X106182246Y-85470000D01*
X106182239Y-85470000D01*
X106140000Y-85465840D01*
X106097761Y-85470000D01*
X100500000Y-85470000D01*
X100500000Y-74752239D01*
X100504160Y-74710001D01*
X100502552Y-74693672D01*
X100913058Y-74283165D01*
X101073368Y-74443475D01*
X101247760Y-74560000D01*
X101073368Y-74676525D01*
X100866525Y-74883368D01*
X100704010Y-75126589D01*
X100592068Y-75396842D01*
X100535000Y-75683740D01*
X100535000Y-75976260D01*
X100592068Y-76263158D01*
X100704010Y-76533411D01*
X100866525Y-76776632D01*
X101073368Y-76983475D01*
X101247760Y-77100000D01*
X101073368Y-77216525D01*
X100866525Y-77423368D01*
X100704010Y-77666589D01*
X100592068Y-77936842D01*
X100535000Y-78223740D01*
X100535000Y-78516260D01*
X100592068Y-78803158D01*
X100704010Y-79073411D01*
X100866525Y-79316632D01*
X101073368Y-79523475D01*
X101247760Y-79640000D01*
X101073368Y-79756525D01*
X100866525Y-79963368D01*
X100704010Y-80206589D01*
X100592068Y-80476842D01*
X100535000Y-80763740D01*
X100535000Y-81056260D01*
X100592068Y-81343158D01*
X100704010Y-81613411D01*
X100866525Y-81856632D01*
X101073368Y-82063475D01*
X101247760Y-82180000D01*
X101073368Y-82296525D01*
X100866525Y-82503368D01*
X100704010Y-82746589D01*
X100592068Y-83016842D01*
X100535000Y-83303740D01*
X100535000Y-83596260D01*
X100592068Y-83883158D01*
X100704010Y-84153411D01*
X100866525Y-84396632D01*
X101073368Y-84603475D01*
X101316589Y-84765990D01*
X101586842Y-84877932D01*
X101873740Y-84935000D01*
X102166260Y-84935000D01*
X102453158Y-84877932D01*
X102723411Y-84765990D01*
X102966632Y-84603475D01*
X103098487Y-84471620D01*
X103120498Y-84544180D01*
X103179463Y-84654494D01*
X103258815Y-84751185D01*
X103355506Y-84830537D01*
X103465820Y-84889502D01*
X103585518Y-84925812D01*
X103710000Y-84938072D01*
X105410000Y-84938072D01*
X105534482Y-84925812D01*
X105654180Y-84889502D01*
X105764494Y-84830537D01*
X105861185Y-84751185D01*
X105940537Y-84654494D01*
X105999502Y-84544180D01*
X106035812Y-84424482D01*
X106048072Y-84300000D01*
X106048072Y-82600000D01*
X106035812Y-82475518D01*
X105999502Y-82355820D01*
X105940537Y-82245506D01*
X105861185Y-82148815D01*
X105764494Y-82069463D01*
X105654180Y-82010498D01*
X105581620Y-81988487D01*
X105713475Y-81856632D01*
X105875990Y-81613411D01*
X105987932Y-81343158D01*
X106045000Y-81056260D01*
X106045000Y-80763740D01*
X105987932Y-80476842D01*
X105875990Y-80206589D01*
X105713475Y-79963368D01*
X105506632Y-79756525D01*
X105332240Y-79640000D01*
X105506632Y-79523475D01*
X105713475Y-79316632D01*
X105875990Y-79073411D01*
X105987932Y-78803158D01*
X106045000Y-78516260D01*
X106045000Y-78223740D01*
X105987932Y-77936842D01*
X105875990Y-77666589D01*
X105713475Y-77423368D01*
X105506632Y-77216525D01*
X105332240Y-77100000D01*
X105506632Y-76983475D01*
X105713475Y-76776632D01*
X105875990Y-76533411D01*
X105987932Y-76263158D01*
X106045000Y-75976260D01*
X106045000Y-75683740D01*
X105987932Y-75396842D01*
X105875990Y-75126589D01*
X105713475Y-74883368D01*
X105506632Y-74676525D01*
X105332240Y-74560000D01*
X105506632Y-74443475D01*
X105713475Y-74236632D01*
X105875990Y-73993411D01*
X105987932Y-73723158D01*
X106045000Y-73436260D01*
X106045000Y-73143740D01*
X105987932Y-72856842D01*
X105875990Y-72586589D01*
X105713475Y-72343368D01*
X105506632Y-72136525D01*
X105332240Y-72020000D01*
X105506632Y-71903475D01*
X105713475Y-71696632D01*
X105875990Y-71453411D01*
X105987932Y-71183158D01*
X106042517Y-70908741D01*
X106060001Y-70926225D01*
X106060000Y-80753446D01*
X106055840Y-80795685D01*
X106060000Y-80837924D01*
X106060000Y-80837930D01*
X106072444Y-80964273D01*
X106121619Y-81126384D01*
X106201476Y-81275786D01*
X106308946Y-81406739D01*
X106341765Y-81433673D01*
X108966332Y-84058241D01*
X108993261Y-84091054D01*
X109124213Y-84198524D01*
X109204026Y-84241185D01*
X109273614Y-84278381D01*
X109435725Y-84327556D01*
X109599674Y-84343704D01*
X109679744Y-84397205D01*
X109868102Y-84475226D01*
X110068061Y-84515000D01*
X110271939Y-84515000D01*
X110471898Y-84475226D01*
X110660256Y-84397205D01*
X110829774Y-84283937D01*
X110913711Y-84200000D01*
X111111928Y-84200000D01*
X111111928Y-85900000D01*
X111124188Y-86024482D01*
X111160498Y-86144180D01*
X111219463Y-86254494D01*
X111298815Y-86351185D01*
X111395506Y-86430537D01*
X111505820Y-86489502D01*
X111625518Y-86525812D01*
X111750000Y-86538072D01*
X113450000Y-86538072D01*
X113574482Y-86525812D01*
X113694180Y-86489502D01*
X113804494Y-86430537D01*
X113901185Y-86351185D01*
X113980537Y-86254494D01*
X114039502Y-86144180D01*
X114061513Y-86071620D01*
X114193368Y-86203475D01*
X114436589Y-86365990D01*
X114706842Y-86477932D01*
X114993740Y-86535000D01*
X115286260Y-86535000D01*
X115573158Y-86477932D01*
X115843411Y-86365990D01*
X116086632Y-86203475D01*
X116293475Y-85996632D01*
X116410000Y-85822240D01*
X116526525Y-85996632D01*
X116733368Y-86203475D01*
X116976589Y-86365990D01*
X117246842Y-86477932D01*
X117533740Y-86535000D01*
X117826260Y-86535000D01*
X118113158Y-86477932D01*
X118383411Y-86365990D01*
X118626632Y-86203475D01*
X118833475Y-85996632D01*
X118950000Y-85822240D01*
X119066525Y-85996632D01*
X119273368Y-86203475D01*
X119516589Y-86365990D01*
X119786842Y-86477932D01*
X120073740Y-86535000D01*
X120366260Y-86535000D01*
X120653158Y-86477932D01*
X120923411Y-86365990D01*
X121166632Y-86203475D01*
X121373475Y-85996632D01*
X121535990Y-85753411D01*
X121647932Y-85483158D01*
X121705000Y-85196260D01*
X121705000Y-84903740D01*
X121647932Y-84616842D01*
X121535990Y-84346589D01*
X121373475Y-84103368D01*
X121166632Y-83896525D01*
X120923411Y-83734010D01*
X120653158Y-83622068D01*
X120366260Y-83565000D01*
X120073740Y-83565000D01*
X119786842Y-83622068D01*
X119516589Y-83734010D01*
X119273368Y-83896525D01*
X119066525Y-84103368D01*
X118950000Y-84277760D01*
X118833475Y-84103368D01*
X118626632Y-83896525D01*
X118383411Y-83734010D01*
X118113158Y-83622068D01*
X117826260Y-83565000D01*
X117533740Y-83565000D01*
X117246842Y-83622068D01*
X116976589Y-83734010D01*
X116733368Y-83896525D01*
X116526525Y-84103368D01*
X116410000Y-84277760D01*
X116293475Y-84103368D01*
X116086632Y-83896525D01*
X115843411Y-83734010D01*
X115573158Y-83622068D01*
X115286260Y-83565000D01*
X114993740Y-83565000D01*
X114706842Y-83622068D01*
X114436589Y-83734010D01*
X114193368Y-83896525D01*
X114061513Y-84028380D01*
X114039502Y-83955820D01*
X113980537Y-83845506D01*
X113901185Y-83748815D01*
X113804494Y-83669463D01*
X113694180Y-83610498D01*
X113574482Y-83574188D01*
X113450000Y-83561928D01*
X111750000Y-83561928D01*
X111625518Y-83574188D01*
X111505820Y-83610498D01*
X111395506Y-83669463D01*
X111298815Y-83748815D01*
X111219463Y-83845506D01*
X111160498Y-83955820D01*
X111124188Y-84075518D01*
X111111928Y-84200000D01*
X110913711Y-84200000D01*
X110973937Y-84139774D01*
X111087205Y-83970256D01*
X111165226Y-83781898D01*
X111205000Y-83581939D01*
X111205000Y-83378061D01*
X111165226Y-83178102D01*
X111087205Y-82989744D01*
X110973937Y-82820226D01*
X110829774Y-82676063D01*
X110660256Y-82562795D01*
X110471898Y-82484774D01*
X110271939Y-82445000D01*
X110068061Y-82445000D01*
X109868102Y-82484774D01*
X109837846Y-82497307D01*
X107780000Y-80439462D01*
X107780000Y-77938061D01*
X116395000Y-77938061D01*
X116395000Y-78141939D01*
X116434774Y-78341898D01*
X116512795Y-78530256D01*
X116626063Y-78699774D01*
X116770226Y-78843937D01*
X116939744Y-78957205D01*
X117128102Y-79035226D01*
X117328061Y-79075000D01*
X117531939Y-79075000D01*
X117731898Y-79035226D01*
X117920256Y-78957205D01*
X118005870Y-78900000D01*
X118893777Y-78900000D01*
X122620001Y-82626225D01*
X122620000Y-86297761D01*
X122615840Y-86340000D01*
X122620000Y-86382239D01*
X122620000Y-86382245D01*
X122632444Y-86508588D01*
X122681619Y-86670699D01*
X122761476Y-86820101D01*
X122868946Y-86951054D01*
X122901765Y-86977988D01*
X124732017Y-88808241D01*
X124758946Y-88841054D01*
X124889898Y-88948524D01*
X124961882Y-88987000D01*
X125039299Y-89028381D01*
X125201410Y-89077556D01*
X125370000Y-89094161D01*
X125412246Y-89090000D01*
X133814130Y-89090000D01*
X133899744Y-89147205D01*
X134088102Y-89225226D01*
X134288061Y-89265000D01*
X134491939Y-89265000D01*
X134691898Y-89225226D01*
X134880256Y-89147205D01*
X135049774Y-89033937D01*
X135193937Y-88889774D01*
X135307205Y-88720256D01*
X135385226Y-88531898D01*
X135425000Y-88331939D01*
X135425000Y-88128061D01*
X135385226Y-87928102D01*
X135307205Y-87739744D01*
X135193937Y-87570226D01*
X135071772Y-87448061D01*
X147145000Y-87448061D01*
X147145000Y-87651939D01*
X147184774Y-87851898D01*
X147262795Y-88040256D01*
X147376063Y-88209774D01*
X147520226Y-88353937D01*
X147689744Y-88467205D01*
X147878102Y-88545226D01*
X148078061Y-88585000D01*
X148281939Y-88585000D01*
X148481898Y-88545226D01*
X148670256Y-88467205D01*
X148839774Y-88353937D01*
X148983937Y-88209774D01*
X149097205Y-88040256D01*
X149175226Y-87851898D01*
X149183560Y-87810000D01*
X152697761Y-87810000D01*
X152740000Y-87814160D01*
X152782239Y-87810000D01*
X152782246Y-87810000D01*
X152908589Y-87797556D01*
X153070700Y-87748381D01*
X153220102Y-87668524D01*
X153351054Y-87561054D01*
X153377988Y-87528235D01*
X154358011Y-86548212D01*
X155105000Y-86548212D01*
X155105000Y-86771788D01*
X155148617Y-86991067D01*
X155234176Y-87197624D01*
X155358388Y-87383520D01*
X155516480Y-87541612D01*
X155702376Y-87665824D01*
X155908933Y-87751383D01*
X156128212Y-87795000D01*
X156351788Y-87795000D01*
X156571067Y-87751383D01*
X156777624Y-87665824D01*
X156963520Y-87541612D01*
X157121612Y-87383520D01*
X157245824Y-87197624D01*
X157331383Y-86991067D01*
X157375000Y-86771788D01*
X157375000Y-86548212D01*
X157645000Y-86548212D01*
X157645000Y-86771788D01*
X157688617Y-86991067D01*
X157774176Y-87197624D01*
X157898388Y-87383520D01*
X158056480Y-87541612D01*
X158242376Y-87665824D01*
X158448933Y-87751383D01*
X158668212Y-87795000D01*
X158891788Y-87795000D01*
X159111067Y-87751383D01*
X159317624Y-87665824D01*
X159503520Y-87541612D01*
X159661612Y-87383520D01*
X159785824Y-87197624D01*
X159871383Y-86991067D01*
X159915000Y-86771788D01*
X159915000Y-86548212D01*
X159871383Y-86328933D01*
X159785824Y-86122376D01*
X159661612Y-85936480D01*
X159503520Y-85778388D01*
X159317624Y-85654176D01*
X159111067Y-85568617D01*
X158891788Y-85525000D01*
X158668212Y-85525000D01*
X158448933Y-85568617D01*
X158242376Y-85654176D01*
X158056480Y-85778388D01*
X157898388Y-85936480D01*
X157774176Y-86122376D01*
X157688617Y-86328933D01*
X157645000Y-86548212D01*
X157375000Y-86548212D01*
X157331383Y-86328933D01*
X157245824Y-86122376D01*
X157121612Y-85936480D01*
X156963520Y-85778388D01*
X156777624Y-85654176D01*
X156571067Y-85568617D01*
X156351788Y-85525000D01*
X156128212Y-85525000D01*
X155908933Y-85568617D01*
X155702376Y-85654176D01*
X155516480Y-85778388D01*
X155358388Y-85936480D01*
X155234176Y-86122376D01*
X155148617Y-86328933D01*
X155105000Y-86548212D01*
X154358011Y-86548212D01*
X170445876Y-70460348D01*
X170521898Y-70445226D01*
X170710256Y-70367205D01*
X170879774Y-70253937D01*
X171023937Y-70109774D01*
X171137205Y-69940256D01*
X171215226Y-69751898D01*
X171255000Y-69551939D01*
X171255000Y-69348061D01*
X171215226Y-69148102D01*
X171137205Y-68959744D01*
X171023937Y-68790226D01*
X170879774Y-68646063D01*
X170710256Y-68532795D01*
X170521898Y-68454774D01*
X170321939Y-68415000D01*
X170118061Y-68415000D01*
X169918102Y-68454774D01*
X169729744Y-68532795D01*
X169560226Y-68646063D01*
X169416063Y-68790226D01*
X169302795Y-68959744D01*
X169224774Y-69148102D01*
X169199720Y-69274056D01*
X152383777Y-86090000D01*
X152018877Y-86090000D01*
X152173411Y-86025990D01*
X152416632Y-85863475D01*
X152623475Y-85656632D01*
X152785990Y-85413411D01*
X152897932Y-85143158D01*
X152955000Y-84856260D01*
X152955000Y-84563740D01*
X152897932Y-84276842D01*
X152785990Y-84006589D01*
X152623475Y-83763368D01*
X152416632Y-83556525D01*
X152242240Y-83440000D01*
X152416632Y-83323475D01*
X152623475Y-83116632D01*
X152785990Y-82873411D01*
X152897932Y-82603158D01*
X152955000Y-82316260D01*
X152955000Y-82023740D01*
X152897932Y-81736842D01*
X152785990Y-81466589D01*
X152623475Y-81223368D01*
X152416632Y-81016525D01*
X152242240Y-80900000D01*
X152416632Y-80783475D01*
X152623475Y-80576632D01*
X152785990Y-80333411D01*
X152897932Y-80063158D01*
X152955000Y-79776260D01*
X152955000Y-79483740D01*
X152897932Y-79196842D01*
X152785990Y-78926589D01*
X152623475Y-78683368D01*
X152416632Y-78476525D01*
X152242240Y-78360000D01*
X152416632Y-78243475D01*
X152623475Y-78036632D01*
X152785990Y-77793411D01*
X152897932Y-77523158D01*
X152955000Y-77236260D01*
X152955000Y-76943740D01*
X152897932Y-76656842D01*
X152785990Y-76386589D01*
X152623475Y-76143368D01*
X152416632Y-75936525D01*
X152242240Y-75820000D01*
X152416632Y-75703475D01*
X152623475Y-75496632D01*
X152785990Y-75253411D01*
X152897932Y-74983158D01*
X152955000Y-74696260D01*
X152955000Y-74403740D01*
X152897932Y-74116842D01*
X152785990Y-73846589D01*
X152623475Y-73603368D01*
X152416632Y-73396525D01*
X152242240Y-73280000D01*
X152416632Y-73163475D01*
X152623475Y-72956632D01*
X152785990Y-72713411D01*
X152897932Y-72443158D01*
X152955000Y-72156260D01*
X152955000Y-71863740D01*
X152897932Y-71576842D01*
X152785990Y-71306589D01*
X152623475Y-71063368D01*
X152416632Y-70856525D01*
X152242240Y-70740000D01*
X152416632Y-70623475D01*
X152623475Y-70416632D01*
X152785990Y-70173411D01*
X152897932Y-69903158D01*
X152955000Y-69616260D01*
X152955000Y-69323740D01*
X152897932Y-69036842D01*
X152785990Y-68766589D01*
X152623475Y-68523368D01*
X152416632Y-68316525D01*
X152242240Y-68200000D01*
X152416632Y-68083475D01*
X152623475Y-67876632D01*
X152785990Y-67633411D01*
X152897932Y-67363158D01*
X152926408Y-67220000D01*
X178421928Y-67220000D01*
X178421928Y-68920000D01*
X178434188Y-69044482D01*
X178470498Y-69164180D01*
X178529463Y-69274494D01*
X178608815Y-69371185D01*
X178705506Y-69450537D01*
X178815820Y-69509502D01*
X178888380Y-69531513D01*
X178756525Y-69663368D01*
X178594010Y-69906589D01*
X178482068Y-70176842D01*
X178425000Y-70463740D01*
X178425000Y-70756260D01*
X178482068Y-71043158D01*
X178594010Y-71313411D01*
X178756525Y-71556632D01*
X178963368Y-71763475D01*
X179137760Y-71880000D01*
X178963368Y-71996525D01*
X178756525Y-72203368D01*
X178594010Y-72446589D01*
X178482068Y-72716842D01*
X178425000Y-73003740D01*
X178425000Y-73296260D01*
X178482068Y-73583158D01*
X178594010Y-73853411D01*
X178756525Y-74096632D01*
X178963368Y-74303475D01*
X179137760Y-74420000D01*
X178963368Y-74536525D01*
X178756525Y-74743368D01*
X178594010Y-74986589D01*
X178482068Y-75256842D01*
X178425000Y-75543740D01*
X178425000Y-75836260D01*
X178482068Y-76123158D01*
X178594010Y-76393411D01*
X178756525Y-76636632D01*
X178963368Y-76843475D01*
X179137760Y-76960000D01*
X178963368Y-77076525D01*
X178756525Y-77283368D01*
X178594010Y-77526589D01*
X178482068Y-77796842D01*
X178425000Y-78083740D01*
X178425000Y-78376260D01*
X178482068Y-78663158D01*
X178594010Y-78933411D01*
X178756525Y-79176632D01*
X178963368Y-79383475D01*
X179137760Y-79500000D01*
X178963368Y-79616525D01*
X178756525Y-79823368D01*
X178594010Y-80066589D01*
X178482068Y-80336842D01*
X178425000Y-80623740D01*
X178425000Y-80916260D01*
X178482068Y-81203158D01*
X178594010Y-81473411D01*
X178756525Y-81716632D01*
X178963368Y-81923475D01*
X179137760Y-82040000D01*
X178963368Y-82156525D01*
X178756525Y-82363368D01*
X178594010Y-82606589D01*
X178482068Y-82876842D01*
X178425000Y-83163740D01*
X178425000Y-83456260D01*
X178482068Y-83743158D01*
X178594010Y-84013411D01*
X178756525Y-84256632D01*
X178963368Y-84463475D01*
X179137760Y-84580000D01*
X178963368Y-84696525D01*
X178756525Y-84903368D01*
X178594010Y-85146589D01*
X178482068Y-85416842D01*
X178425000Y-85703740D01*
X178425000Y-85996260D01*
X178482068Y-86283158D01*
X178594010Y-86553411D01*
X178756525Y-86796632D01*
X178963368Y-87003475D01*
X179206589Y-87165990D01*
X179476842Y-87277932D01*
X179763740Y-87335000D01*
X180056260Y-87335000D01*
X180343158Y-87277932D01*
X180613411Y-87165990D01*
X180856632Y-87003475D01*
X181063475Y-86796632D01*
X181180000Y-86622240D01*
X181296525Y-86796632D01*
X181503368Y-87003475D01*
X181746589Y-87165990D01*
X182016842Y-87277932D01*
X182303740Y-87335000D01*
X182596260Y-87335000D01*
X182883158Y-87277932D01*
X183153411Y-87165990D01*
X183396632Y-87003475D01*
X183603475Y-86796632D01*
X183765990Y-86553411D01*
X183877932Y-86283158D01*
X183935000Y-85996260D01*
X183935000Y-85703740D01*
X183877932Y-85416842D01*
X183765990Y-85146589D01*
X183603475Y-84903368D01*
X183396632Y-84696525D01*
X183222240Y-84580000D01*
X183396632Y-84463475D01*
X183603475Y-84256632D01*
X183765990Y-84013411D01*
X183877932Y-83743158D01*
X183935000Y-83456260D01*
X183935000Y-83163740D01*
X183877932Y-82876842D01*
X183765990Y-82606589D01*
X183603475Y-82363368D01*
X183396632Y-82156525D01*
X183222240Y-82040000D01*
X183396632Y-81923475D01*
X183603475Y-81716632D01*
X183765990Y-81473411D01*
X183877932Y-81203158D01*
X183935000Y-80916260D01*
X183935000Y-80623740D01*
X183877932Y-80336842D01*
X183765990Y-80066589D01*
X183603475Y-79823368D01*
X183396632Y-79616525D01*
X183222240Y-79500000D01*
X183396632Y-79383475D01*
X183603475Y-79176632D01*
X183765990Y-78933411D01*
X183877932Y-78663158D01*
X183935000Y-78376260D01*
X183935000Y-78083740D01*
X183877932Y-77796842D01*
X183765990Y-77526589D01*
X183603475Y-77283368D01*
X183396632Y-77076525D01*
X183222240Y-76960000D01*
X183396632Y-76843475D01*
X183603475Y-76636632D01*
X183765990Y-76393411D01*
X183877932Y-76123158D01*
X183935000Y-75836260D01*
X183935000Y-75543740D01*
X183877932Y-75256842D01*
X183765990Y-74986589D01*
X183603475Y-74743368D01*
X183396632Y-74536525D01*
X183222240Y-74420000D01*
X183396632Y-74303475D01*
X183603475Y-74096632D01*
X183765990Y-73853411D01*
X183877932Y-73583158D01*
X183935000Y-73296260D01*
X183935000Y-73003740D01*
X183877932Y-72716842D01*
X183765990Y-72446589D01*
X183603475Y-72203368D01*
X183396632Y-71996525D01*
X183222240Y-71880000D01*
X183396632Y-71763475D01*
X183603475Y-71556632D01*
X183765990Y-71313411D01*
X183877932Y-71043158D01*
X183935000Y-70756260D01*
X183935000Y-70463740D01*
X183877932Y-70176842D01*
X183765990Y-69906589D01*
X183603475Y-69663368D01*
X183396632Y-69456525D01*
X183222240Y-69340000D01*
X183396632Y-69223475D01*
X183603475Y-69016632D01*
X183765990Y-68773411D01*
X183877932Y-68503158D01*
X183935000Y-68216260D01*
X183935000Y-67923740D01*
X183877932Y-67636842D01*
X183765990Y-67366589D01*
X183603475Y-67123368D01*
X183396632Y-66916525D01*
X183386867Y-66910000D01*
X187421928Y-66910000D01*
X187421928Y-68610000D01*
X187434188Y-68734482D01*
X187470498Y-68854180D01*
X187529463Y-68964494D01*
X187608815Y-69061185D01*
X187705506Y-69140537D01*
X187815820Y-69199502D01*
X187888380Y-69221513D01*
X187756525Y-69353368D01*
X187594010Y-69596589D01*
X187482068Y-69866842D01*
X187425000Y-70153740D01*
X187425000Y-70446260D01*
X187482068Y-70733158D01*
X187594010Y-71003411D01*
X187756525Y-71246632D01*
X187963368Y-71453475D01*
X188137760Y-71570000D01*
X187963368Y-71686525D01*
X187756525Y-71893368D01*
X187594010Y-72136589D01*
X187482068Y-72406842D01*
X187425000Y-72693740D01*
X187425000Y-72986260D01*
X187482068Y-73273158D01*
X187594010Y-73543411D01*
X187756525Y-73786632D01*
X187963368Y-73993475D01*
X188137760Y-74110000D01*
X187963368Y-74226525D01*
X187756525Y-74433368D01*
X187594010Y-74676589D01*
X187482068Y-74946842D01*
X187425000Y-75233740D01*
X187425000Y-75526260D01*
X187482068Y-75813158D01*
X187594010Y-76083411D01*
X187756525Y-76326632D01*
X187963368Y-76533475D01*
X188137760Y-76650000D01*
X187963368Y-76766525D01*
X187756525Y-76973368D01*
X187594010Y-77216589D01*
X187482068Y-77486842D01*
X187425000Y-77773740D01*
X187425000Y-78066260D01*
X187482068Y-78353158D01*
X187594010Y-78623411D01*
X187756525Y-78866632D01*
X187963368Y-79073475D01*
X188137760Y-79190000D01*
X187963368Y-79306525D01*
X187756525Y-79513368D01*
X187594010Y-79756589D01*
X187482068Y-80026842D01*
X187425000Y-80313740D01*
X187425000Y-80606260D01*
X187482068Y-80893158D01*
X187594010Y-81163411D01*
X187756525Y-81406632D01*
X187963368Y-81613475D01*
X188137760Y-81730000D01*
X187963368Y-81846525D01*
X187756525Y-82053368D01*
X187594010Y-82296589D01*
X187482068Y-82566842D01*
X187425000Y-82853740D01*
X187425000Y-83146260D01*
X187482068Y-83433158D01*
X187594010Y-83703411D01*
X187756525Y-83946632D01*
X187963368Y-84153475D01*
X188137760Y-84270000D01*
X187963368Y-84386525D01*
X187756525Y-84593368D01*
X187594010Y-84836589D01*
X187482068Y-85106842D01*
X187425000Y-85393740D01*
X187425000Y-85686260D01*
X187482068Y-85973158D01*
X187594010Y-86243411D01*
X187756525Y-86486632D01*
X187963368Y-86693475D01*
X188206589Y-86855990D01*
X188476842Y-86967932D01*
X188763740Y-87025000D01*
X189056260Y-87025000D01*
X189343158Y-86967932D01*
X189613411Y-86855990D01*
X189856632Y-86693475D01*
X190063475Y-86486632D01*
X190180000Y-86312240D01*
X190296525Y-86486632D01*
X190503368Y-86693475D01*
X190746589Y-86855990D01*
X191016842Y-86967932D01*
X191303740Y-87025000D01*
X191596260Y-87025000D01*
X191883158Y-86967932D01*
X192153411Y-86855990D01*
X192396632Y-86693475D01*
X192603475Y-86486632D01*
X192765990Y-86243411D01*
X192877932Y-85973158D01*
X192935000Y-85686260D01*
X192935000Y-85393740D01*
X192877932Y-85106842D01*
X192765990Y-84836589D01*
X192603475Y-84593368D01*
X192396632Y-84386525D01*
X192222240Y-84270000D01*
X192396632Y-84153475D01*
X192603475Y-83946632D01*
X192765990Y-83703411D01*
X192877932Y-83433158D01*
X192935000Y-83146260D01*
X192935000Y-82853740D01*
X192877932Y-82566842D01*
X192765990Y-82296589D01*
X192603475Y-82053368D01*
X192396632Y-81846525D01*
X192222240Y-81730000D01*
X192396632Y-81613475D01*
X192603475Y-81406632D01*
X192765990Y-81163411D01*
X192877932Y-80893158D01*
X192935000Y-80606260D01*
X192935000Y-80313740D01*
X192877932Y-80026842D01*
X192765990Y-79756589D01*
X192603475Y-79513368D01*
X192396632Y-79306525D01*
X192222240Y-79190000D01*
X192396632Y-79073475D01*
X192603475Y-78866632D01*
X192765990Y-78623411D01*
X192877932Y-78353158D01*
X192935000Y-78066260D01*
X192935000Y-77773740D01*
X192877932Y-77486842D01*
X192765990Y-77216589D01*
X192603475Y-76973368D01*
X192396632Y-76766525D01*
X192222240Y-76650000D01*
X192396632Y-76533475D01*
X192603475Y-76326632D01*
X192765990Y-76083411D01*
X192877932Y-75813158D01*
X192935000Y-75526260D01*
X192935000Y-75233740D01*
X192877932Y-74946842D01*
X192765990Y-74676589D01*
X192603475Y-74433368D01*
X192396632Y-74226525D01*
X192222240Y-74110000D01*
X192396632Y-73993475D01*
X192603475Y-73786632D01*
X192765990Y-73543411D01*
X192877932Y-73273158D01*
X192935000Y-72986260D01*
X192935000Y-72693740D01*
X192877932Y-72406842D01*
X192765990Y-72136589D01*
X192603475Y-71893368D01*
X192396632Y-71686525D01*
X192222240Y-71570000D01*
X192396632Y-71453475D01*
X192603475Y-71246632D01*
X192765990Y-71003411D01*
X192877932Y-70733158D01*
X192935000Y-70446260D01*
X192935000Y-70153740D01*
X192877932Y-69866842D01*
X192765990Y-69596589D01*
X192603475Y-69353368D01*
X192396632Y-69146525D01*
X192222240Y-69030000D01*
X192396632Y-68913475D01*
X192603475Y-68706632D01*
X192765990Y-68463411D01*
X192877932Y-68193158D01*
X192935000Y-67906260D01*
X192935000Y-67613740D01*
X192877932Y-67326842D01*
X192765990Y-67056589D01*
X192603475Y-66813368D01*
X192396632Y-66606525D01*
X192153411Y-66444010D01*
X191883158Y-66332068D01*
X191596260Y-66275000D01*
X191303740Y-66275000D01*
X191016842Y-66332068D01*
X190746589Y-66444010D01*
X190503368Y-66606525D01*
X190371513Y-66738380D01*
X190349502Y-66665820D01*
X190290537Y-66555506D01*
X190211185Y-66458815D01*
X190114494Y-66379463D01*
X190004180Y-66320498D01*
X189884482Y-66284188D01*
X189760000Y-66271928D01*
X188060000Y-66271928D01*
X187935518Y-66284188D01*
X187815820Y-66320498D01*
X187705506Y-66379463D01*
X187608815Y-66458815D01*
X187529463Y-66555506D01*
X187470498Y-66665820D01*
X187434188Y-66785518D01*
X187421928Y-66910000D01*
X183386867Y-66910000D01*
X183153411Y-66754010D01*
X182883158Y-66642068D01*
X182596260Y-66585000D01*
X182303740Y-66585000D01*
X182016842Y-66642068D01*
X181746589Y-66754010D01*
X181503368Y-66916525D01*
X181371513Y-67048380D01*
X181349502Y-66975820D01*
X181290537Y-66865506D01*
X181211185Y-66768815D01*
X181114494Y-66689463D01*
X181004180Y-66630498D01*
X180884482Y-66594188D01*
X180760000Y-66581928D01*
X179060000Y-66581928D01*
X178935518Y-66594188D01*
X178815820Y-66630498D01*
X178705506Y-66689463D01*
X178608815Y-66768815D01*
X178529463Y-66865506D01*
X178470498Y-66975820D01*
X178434188Y-67095518D01*
X178421928Y-67220000D01*
X152926408Y-67220000D01*
X152955000Y-67076260D01*
X152955000Y-66783740D01*
X152897932Y-66496842D01*
X152785990Y-66226589D01*
X152623475Y-65983368D01*
X152416632Y-65776525D01*
X152173411Y-65614010D01*
X151903158Y-65502068D01*
X151616260Y-65445000D01*
X151323740Y-65445000D01*
X151036842Y-65502068D01*
X150766589Y-65614010D01*
X150523368Y-65776525D01*
X150391513Y-65908380D01*
X150369502Y-65835820D01*
X150310537Y-65725506D01*
X150231185Y-65628815D01*
X150134494Y-65549463D01*
X150024180Y-65490498D01*
X149904482Y-65454188D01*
X149780000Y-65441928D01*
X148080000Y-65441928D01*
X147955518Y-65454188D01*
X147835820Y-65490498D01*
X147725506Y-65549463D01*
X147628815Y-65628815D01*
X147549463Y-65725506D01*
X147490498Y-65835820D01*
X147454188Y-65955518D01*
X147441928Y-66080000D01*
X147441928Y-67780000D01*
X147454188Y-67904482D01*
X147490498Y-68024180D01*
X147549463Y-68134494D01*
X147628815Y-68231185D01*
X147725506Y-68310537D01*
X147835820Y-68369502D01*
X147908380Y-68391513D01*
X147776525Y-68523368D01*
X147614010Y-68766589D01*
X147502068Y-69036842D01*
X147445000Y-69323740D01*
X147445000Y-69616260D01*
X147502068Y-69903158D01*
X147614010Y-70173411D01*
X147776525Y-70416632D01*
X147983368Y-70623475D01*
X148157760Y-70740000D01*
X147983368Y-70856525D01*
X147776525Y-71063368D01*
X147614010Y-71306589D01*
X147502068Y-71576842D01*
X147445000Y-71863740D01*
X147445000Y-72156260D01*
X147502068Y-72443158D01*
X147614010Y-72713411D01*
X147776525Y-72956632D01*
X147983368Y-73163475D01*
X148157760Y-73280000D01*
X147983368Y-73396525D01*
X147776525Y-73603368D01*
X147614010Y-73846589D01*
X147502068Y-74116842D01*
X147445000Y-74403740D01*
X147445000Y-74696260D01*
X147502068Y-74983158D01*
X147614010Y-75253411D01*
X147776525Y-75496632D01*
X147983368Y-75703475D01*
X148157760Y-75820000D01*
X147983368Y-75936525D01*
X147776525Y-76143368D01*
X147614010Y-76386589D01*
X147502068Y-76656842D01*
X147445000Y-76943740D01*
X147445000Y-77236260D01*
X147502068Y-77523158D01*
X147614010Y-77793411D01*
X147776525Y-78036632D01*
X147983368Y-78243475D01*
X148157760Y-78360000D01*
X147983368Y-78476525D01*
X147776525Y-78683368D01*
X147614010Y-78926589D01*
X147502068Y-79196842D01*
X147445000Y-79483740D01*
X147445000Y-79776260D01*
X147502068Y-80063158D01*
X147614010Y-80333411D01*
X147776525Y-80576632D01*
X147983368Y-80783475D01*
X148157760Y-80900000D01*
X147983368Y-81016525D01*
X147776525Y-81223368D01*
X147614010Y-81466589D01*
X147502068Y-81736842D01*
X147445000Y-82023740D01*
X147445000Y-82316260D01*
X147502068Y-82603158D01*
X147614010Y-82873411D01*
X147776525Y-83116632D01*
X147983368Y-83323475D01*
X148157760Y-83440000D01*
X147983368Y-83556525D01*
X147776525Y-83763368D01*
X147614010Y-84006589D01*
X147502068Y-84276842D01*
X147445000Y-84563740D01*
X147445000Y-84856260D01*
X147502068Y-85143158D01*
X147614010Y-85413411D01*
X147776525Y-85656632D01*
X147983368Y-85863475D01*
X148226589Y-86025990D01*
X148495818Y-86137508D01*
X148449300Y-86151619D01*
X148299898Y-86231476D01*
X148168946Y-86338946D01*
X148142016Y-86371760D01*
X147979090Y-86534686D01*
X147878102Y-86554774D01*
X147689744Y-86632795D01*
X147520226Y-86746063D01*
X147376063Y-86890226D01*
X147262795Y-87059744D01*
X147184774Y-87248102D01*
X147145000Y-87448061D01*
X135071772Y-87448061D01*
X135049774Y-87426063D01*
X134880256Y-87312795D01*
X134691898Y-87234774D01*
X134491939Y-87195000D01*
X134288061Y-87195000D01*
X134088102Y-87234774D01*
X133899744Y-87312795D01*
X133814130Y-87370000D01*
X125726224Y-87370000D01*
X124340000Y-85983777D01*
X124340000Y-82793740D01*
X124955000Y-82793740D01*
X124955000Y-83086260D01*
X125012068Y-83373158D01*
X125124010Y-83643411D01*
X125286525Y-83886632D01*
X125493368Y-84093475D01*
X125667760Y-84210000D01*
X125493368Y-84326525D01*
X125286525Y-84533368D01*
X125124010Y-84776589D01*
X125012068Y-85046842D01*
X124955000Y-85333740D01*
X124955000Y-85626260D01*
X125012068Y-85913158D01*
X125124010Y-86183411D01*
X125286525Y-86426632D01*
X125493368Y-86633475D01*
X125736589Y-86795990D01*
X126006842Y-86907932D01*
X126293740Y-86965000D01*
X126586260Y-86965000D01*
X126873158Y-86907932D01*
X127143411Y-86795990D01*
X127386632Y-86633475D01*
X127593475Y-86426632D01*
X127710000Y-86252240D01*
X127826525Y-86426632D01*
X128033368Y-86633475D01*
X128276589Y-86795990D01*
X128546842Y-86907932D01*
X128833740Y-86965000D01*
X129126260Y-86965000D01*
X129413158Y-86907932D01*
X129683411Y-86795990D01*
X129926632Y-86633475D01*
X130133475Y-86426632D01*
X130250000Y-86252240D01*
X130366525Y-86426632D01*
X130573368Y-86633475D01*
X130816589Y-86795990D01*
X131086842Y-86907932D01*
X131373740Y-86965000D01*
X131666260Y-86965000D01*
X131953158Y-86907932D01*
X132223411Y-86795990D01*
X132466632Y-86633475D01*
X132673475Y-86426632D01*
X132790000Y-86252240D01*
X132906525Y-86426632D01*
X133113368Y-86633475D01*
X133356589Y-86795990D01*
X133626842Y-86907932D01*
X133913740Y-86965000D01*
X134206260Y-86965000D01*
X134493158Y-86907932D01*
X134763411Y-86795990D01*
X135006632Y-86633475D01*
X135213475Y-86426632D01*
X135330000Y-86252240D01*
X135446525Y-86426632D01*
X135653368Y-86633475D01*
X135896589Y-86795990D01*
X136166842Y-86907932D01*
X136453740Y-86965000D01*
X136746260Y-86965000D01*
X137033158Y-86907932D01*
X137303411Y-86795990D01*
X137546632Y-86633475D01*
X137753475Y-86426632D01*
X137870000Y-86252240D01*
X137986525Y-86426632D01*
X138193368Y-86633475D01*
X138436589Y-86795990D01*
X138706842Y-86907932D01*
X138993740Y-86965000D01*
X139286260Y-86965000D01*
X139573158Y-86907932D01*
X139843411Y-86795990D01*
X140086632Y-86633475D01*
X140293475Y-86426632D01*
X140410000Y-86252240D01*
X140526525Y-86426632D01*
X140733368Y-86633475D01*
X140976589Y-86795990D01*
X141246842Y-86907932D01*
X141533740Y-86965000D01*
X141826260Y-86965000D01*
X142113158Y-86907932D01*
X142383411Y-86795990D01*
X142626632Y-86633475D01*
X142833475Y-86426632D01*
X142950000Y-86252240D01*
X143066525Y-86426632D01*
X143273368Y-86633475D01*
X143516589Y-86795990D01*
X143786842Y-86907932D01*
X144073740Y-86965000D01*
X144366260Y-86965000D01*
X144653158Y-86907932D01*
X144923411Y-86795990D01*
X145166632Y-86633475D01*
X145373475Y-86426632D01*
X145535990Y-86183411D01*
X145647932Y-85913158D01*
X145705000Y-85626260D01*
X145705000Y-85333740D01*
X145647932Y-85046842D01*
X145535990Y-84776589D01*
X145373475Y-84533368D01*
X145241620Y-84401513D01*
X145314180Y-84379502D01*
X145424494Y-84320537D01*
X145521185Y-84241185D01*
X145600537Y-84144494D01*
X145659502Y-84034180D01*
X145695812Y-83914482D01*
X145708072Y-83790000D01*
X145708072Y-82090000D01*
X145695812Y-81965518D01*
X145659502Y-81845820D01*
X145600537Y-81735506D01*
X145521185Y-81638815D01*
X145424494Y-81559463D01*
X145314180Y-81500498D01*
X145194482Y-81464188D01*
X145070000Y-81451928D01*
X143370000Y-81451928D01*
X143245518Y-81464188D01*
X143125820Y-81500498D01*
X143015506Y-81559463D01*
X142918815Y-81638815D01*
X142839463Y-81735506D01*
X142780498Y-81845820D01*
X142758487Y-81918380D01*
X142626632Y-81786525D01*
X142383411Y-81624010D01*
X142113158Y-81512068D01*
X141826260Y-81455000D01*
X141533740Y-81455000D01*
X141246842Y-81512068D01*
X140976589Y-81624010D01*
X140733368Y-81786525D01*
X140526525Y-81993368D01*
X140410000Y-82167760D01*
X140293475Y-81993368D01*
X140086632Y-81786525D01*
X139843411Y-81624010D01*
X139573158Y-81512068D01*
X139286260Y-81455000D01*
X138993740Y-81455000D01*
X138706842Y-81512068D01*
X138436589Y-81624010D01*
X138193368Y-81786525D01*
X137986525Y-81993368D01*
X137870000Y-82167760D01*
X137753475Y-81993368D01*
X137546632Y-81786525D01*
X137303411Y-81624010D01*
X137033158Y-81512068D01*
X136746260Y-81455000D01*
X136453740Y-81455000D01*
X136166842Y-81512068D01*
X135896589Y-81624010D01*
X135653368Y-81786525D01*
X135446525Y-81993368D01*
X135330000Y-82167760D01*
X135213475Y-81993368D01*
X135006632Y-81786525D01*
X134763411Y-81624010D01*
X134493158Y-81512068D01*
X134206260Y-81455000D01*
X133913740Y-81455000D01*
X133626842Y-81512068D01*
X133356589Y-81624010D01*
X133113368Y-81786525D01*
X132906525Y-81993368D01*
X132790000Y-82167760D01*
X132673475Y-81993368D01*
X132466632Y-81786525D01*
X132223411Y-81624010D01*
X131953158Y-81512068D01*
X131666260Y-81455000D01*
X131373740Y-81455000D01*
X131086842Y-81512068D01*
X130816589Y-81624010D01*
X130573368Y-81786525D01*
X130366525Y-81993368D01*
X130250000Y-82167760D01*
X130133475Y-81993368D01*
X129926632Y-81786525D01*
X129683411Y-81624010D01*
X129413158Y-81512068D01*
X129126260Y-81455000D01*
X128833740Y-81455000D01*
X128546842Y-81512068D01*
X128276589Y-81624010D01*
X128033368Y-81786525D01*
X127826525Y-81993368D01*
X127710000Y-82167760D01*
X127593475Y-81993368D01*
X127386632Y-81786525D01*
X127143411Y-81624010D01*
X126873158Y-81512068D01*
X126586260Y-81455000D01*
X126293740Y-81455000D01*
X126006842Y-81512068D01*
X125736589Y-81624010D01*
X125493368Y-81786525D01*
X125286525Y-81993368D01*
X125124010Y-82236589D01*
X125012068Y-82506842D01*
X124955000Y-82793740D01*
X124340000Y-82793740D01*
X124340000Y-82312238D01*
X124344160Y-82269999D01*
X124340000Y-82227760D01*
X124340000Y-82227754D01*
X124327556Y-82101411D01*
X124327556Y-82101409D01*
X124286334Y-81965518D01*
X124278381Y-81939300D01*
X124198524Y-81789898D01*
X124091054Y-81658946D01*
X124058241Y-81632017D01*
X119887988Y-77461765D01*
X119861054Y-77428946D01*
X119730102Y-77321476D01*
X119580700Y-77241619D01*
X119418589Y-77192444D01*
X119292246Y-77180000D01*
X119292239Y-77180000D01*
X119250000Y-77175840D01*
X119207761Y-77180000D01*
X118005870Y-77180000D01*
X117920256Y-77122795D01*
X117731898Y-77044774D01*
X117531939Y-77005000D01*
X117328061Y-77005000D01*
X117128102Y-77044774D01*
X116939744Y-77122795D01*
X116770226Y-77236063D01*
X116626063Y-77380226D01*
X116512795Y-77549744D01*
X116434774Y-77738102D01*
X116395000Y-77938061D01*
X107780000Y-77938061D01*
X107780000Y-70612238D01*
X107784160Y-70569999D01*
X107780000Y-70527760D01*
X107780000Y-70527754D01*
X107767556Y-70401411D01*
X107718381Y-70239300D01*
X107638524Y-70089898D01*
X107531054Y-69958946D01*
X107498241Y-69932017D01*
X106024673Y-68458450D01*
X106045000Y-68356260D01*
X106045000Y-68063740D01*
X105987932Y-67776842D01*
X105875990Y-67506589D01*
X105713475Y-67263368D01*
X105506632Y-67056525D01*
X105324466Y-66934805D01*
X105441355Y-66865178D01*
X105657588Y-66670269D01*
X105831641Y-66436920D01*
X105956825Y-66174099D01*
X106001476Y-66026890D01*
X105880155Y-65797000D01*
X104687000Y-65797000D01*
X104687000Y-65817000D01*
X104433000Y-65817000D01*
X104433000Y-65797000D01*
X102147000Y-65797000D01*
X102147000Y-65817000D01*
X101893000Y-65817000D01*
X101893000Y-65797000D01*
X100699845Y-65797000D01*
X100578524Y-66026890D01*
X100623175Y-66174099D01*
X100748359Y-66436920D01*
X100922412Y-66670269D01*
X101138645Y-66865178D01*
X101255534Y-66934805D01*
X101073368Y-67056525D01*
X100866525Y-67263368D01*
X100704010Y-67506589D01*
X100592068Y-67776842D01*
X100535000Y-68063740D01*
X100535000Y-68356260D01*
X100592068Y-68643158D01*
X100704010Y-68913411D01*
X100866525Y-69156632D01*
X101073368Y-69363475D01*
X101247760Y-69480000D01*
X101073368Y-69596525D01*
X100866525Y-69803368D01*
X100704010Y-70046589D01*
X100592068Y-70316842D01*
X100535000Y-70603740D01*
X100535000Y-70896260D01*
X100592068Y-71183158D01*
X100704010Y-71453411D01*
X100866525Y-71696632D01*
X101073368Y-71903475D01*
X101247760Y-72020000D01*
X101073368Y-72136525D01*
X100866525Y-72343368D01*
X100808639Y-72430000D01*
X100732238Y-72430000D01*
X100689999Y-72425840D01*
X100647760Y-72430000D01*
X100647754Y-72430000D01*
X100538558Y-72440755D01*
X100521410Y-72442444D01*
X100472235Y-72457361D01*
X100359300Y-72491619D01*
X100209898Y-72571476D01*
X100078946Y-72678946D01*
X100052016Y-72711760D01*
X99061760Y-73702017D01*
X99028947Y-73728946D01*
X98921476Y-73859898D01*
X98841619Y-74009300D01*
X98792444Y-74171411D01*
X98780000Y-74297754D01*
X98780000Y-74297761D01*
X98775840Y-74340000D01*
X98780000Y-74382239D01*
X98780000Y-74576226D01*
X98765840Y-74720000D01*
X98660000Y-74720000D01*
X98660000Y-65313110D01*
X100578524Y-65313110D01*
X100699845Y-65543000D01*
X101893000Y-65543000D01*
X101893000Y-64349186D01*
X102147000Y-64349186D01*
X102147000Y-65543000D01*
X104433000Y-65543000D01*
X104433000Y-64349186D01*
X104687000Y-64349186D01*
X104687000Y-65543000D01*
X105880155Y-65543000D01*
X106001476Y-65313110D01*
X105956825Y-65165901D01*
X105831641Y-64903080D01*
X105657588Y-64669731D01*
X105441355Y-64474822D01*
X105191252Y-64325843D01*
X104916891Y-64228519D01*
X104687000Y-64349186D01*
X104433000Y-64349186D01*
X104203109Y-64228519D01*
X103928748Y-64325843D01*
X103678645Y-64474822D01*
X103462412Y-64669731D01*
X103290000Y-64900880D01*
X103117588Y-64669731D01*
X102901355Y-64474822D01*
X102651252Y-64325843D01*
X102376891Y-64228519D01*
X102147000Y-64349186D01*
X101893000Y-64349186D01*
X101663109Y-64228519D01*
X101388748Y-64325843D01*
X101138645Y-64474822D01*
X100922412Y-64669731D01*
X100748359Y-64903080D01*
X100623175Y-65165901D01*
X100578524Y-65313110D01*
X98660000Y-65313110D01*
X98660000Y-63931800D01*
X109903000Y-63931800D01*
X109903000Y-64810000D01*
M02*
